M48
;Layer_Color=9474304
;FILE_FORMAT=4:4
METRIC,LZ
;TYPE=PLATED
T1F00S00C0.5000
T2F00S00C1.0000
%
T01
X0004699Y0001651
Y0003074
Y0004497
X0007366Y0010795
X000762Y0012319
X000889
X001016
X0012065Y0009398
X0014224Y0004497
Y0002413
X0015012Y0003455
X001651Y0006604
Y0011684
X0014709Y0011725
X0022352Y0013589
X0022356Y0006447
X0021568Y0005405
X0022356Y0004363
X0018381Y0001109
X0029337Y0008763
Y001016
X0031496
Y0008763
X0026416Y0014351
Y0015875
X0023749
Y0014351
X002507Y0020121
X0016129Y0022352
X0015693Y00239
X0008792Y0020349
X000889Y0018415
X001016
X000762
X0006422Y0022085
X0011684Y0015367
T02
X000254Y000254
Y000508
Y000762
Y001016
Y00127
X002286Y000254
X00254
X002794
X003048
X003302
X00381
Y000508
Y000762
Y001016
Y00127
Y001524
Y001778
Y002032
Y002286
Y00254
X000254
Y002286
Y002032
Y001778
Y001524
M30
