G04 Layer_Physical_Order=2*
G04 Layer_Color=16711680*
%FSLAX44Y44*%
%MOMM*%
G71*
G01*
G75*
%ADD23C,0.3000*%
%ADD24C,0.5000*%
%ADD28R,2.0000X2.0000*%
%ADD29C,2.0000*%
%ADD30R,2.0000X2.0000*%
%ADD31C,1.0000*%
%ADD32R,5.8420X7.3660*%
G36*
X400050Y6350D02*
X6350D01*
Y273050D01*
X400050D01*
Y6350D01*
D02*
G37*
%LPC*%
G36*
X304800Y38048D02*
X301526Y37617D01*
X298476Y36354D01*
X295856Y34344D01*
X293846Y31724D01*
X292787Y29167D01*
X291413D01*
X290354Y31724D01*
X288344Y34344D01*
X285724Y36354D01*
X282674Y37617D01*
X280670Y37881D01*
Y25400D01*
Y12919D01*
X282674Y13183D01*
X285724Y14446D01*
X288344Y16456D01*
X290354Y19076D01*
X291413Y21633D01*
X292787D01*
X293846Y19076D01*
X295856Y16456D01*
X298476Y14446D01*
X301526Y13183D01*
X304800Y12752D01*
X308074Y13183D01*
X311124Y14446D01*
X313744Y16456D01*
X315754Y19076D01*
X316390Y20612D01*
X317660Y20359D01*
Y12860D01*
X342740D01*
Y37940D01*
X317660D01*
Y30440D01*
X316390Y30188D01*
X315754Y31724D01*
X313744Y34344D01*
X311124Y36354D01*
X308074Y37617D01*
X304800Y38048D01*
D02*
G37*
G36*
X37881Y227330D02*
X12919D01*
X13183Y225326D01*
X14446Y222276D01*
X16456Y219656D01*
X19076Y217646D01*
X21633Y216587D01*
Y215213D01*
X19076Y214154D01*
X16456Y212144D01*
X14446Y209524D01*
X13183Y206474D01*
X12752Y203200D01*
X13183Y199926D01*
X14446Y196876D01*
X16456Y194256D01*
X19076Y192246D01*
X21633Y191187D01*
Y189813D01*
X19076Y188754D01*
X16456Y186744D01*
X14446Y184124D01*
X13183Y181074D01*
X12752Y177800D01*
X13183Y174526D01*
X14446Y171476D01*
X16456Y168856D01*
X19076Y166846D01*
X21633Y165787D01*
Y164413D01*
X19076Y163354D01*
X16456Y161344D01*
X14446Y158724D01*
X13183Y155674D01*
X12752Y152400D01*
X13183Y149126D01*
X14446Y146076D01*
X16456Y143456D01*
X19076Y141446D01*
X21633Y140387D01*
Y139013D01*
X19076Y137954D01*
X16456Y135944D01*
X14446Y133324D01*
X13183Y130274D01*
X12752Y127000D01*
X13183Y123726D01*
X14446Y120676D01*
X16456Y118056D01*
X19076Y116046D01*
X21633Y114987D01*
Y113613D01*
X19076Y112554D01*
X16456Y110544D01*
X14446Y107924D01*
X13183Y104874D01*
X12752Y101600D01*
X13183Y98326D01*
X14446Y95276D01*
X16456Y92656D01*
X19076Y90646D01*
X21633Y89587D01*
Y88213D01*
X19076Y87154D01*
X16456Y85144D01*
X14446Y82524D01*
X13183Y79474D01*
X12752Y76200D01*
X13183Y72926D01*
X14446Y69876D01*
X16456Y67256D01*
X19076Y65246D01*
X21633Y64187D01*
Y62813D01*
X19076Y61754D01*
X16456Y59744D01*
X14446Y57124D01*
X13183Y54074D01*
X12752Y50800D01*
X13183Y47526D01*
X14446Y44476D01*
X16456Y41856D01*
X19076Y39846D01*
X21633Y38787D01*
Y37413D01*
X19076Y36354D01*
X16456Y34344D01*
X14446Y31724D01*
X13183Y28674D01*
X12752Y25400D01*
X13183Y22126D01*
X14446Y19076D01*
X16456Y16456D01*
X19076Y14446D01*
X22126Y13183D01*
X25400Y12752D01*
X28674Y13183D01*
X31724Y14446D01*
X34344Y16456D01*
X36354Y19076D01*
X37617Y22126D01*
X38048Y25400D01*
X37617Y28674D01*
X36354Y31724D01*
X34344Y34344D01*
X31724Y36354D01*
X29167Y37413D01*
Y38787D01*
X31724Y39846D01*
X34344Y41856D01*
X36354Y44476D01*
X37617Y47526D01*
X38048Y50800D01*
X37617Y54074D01*
X36354Y57124D01*
X34344Y59744D01*
X31724Y61754D01*
X29167Y62813D01*
Y64187D01*
X31724Y65246D01*
X34344Y67256D01*
X36354Y69876D01*
X37617Y72926D01*
X38048Y76200D01*
X37617Y79474D01*
X36354Y82524D01*
X34344Y85144D01*
X31724Y87154D01*
X29167Y88213D01*
Y89587D01*
X31724Y90646D01*
X34344Y92656D01*
X36354Y95276D01*
X37617Y98326D01*
X38048Y101600D01*
X37617Y104874D01*
X36354Y107924D01*
X34344Y110544D01*
X31724Y112554D01*
X29167Y113613D01*
Y114987D01*
X31724Y116046D01*
X34344Y118056D01*
X36354Y120676D01*
X37617Y123726D01*
X38048Y127000D01*
X37617Y130274D01*
X36354Y133324D01*
X34344Y135944D01*
X31724Y137954D01*
X29167Y139013D01*
Y140387D01*
X31724Y141446D01*
X34344Y143456D01*
X36354Y146076D01*
X37617Y149126D01*
X38048Y152400D01*
X37617Y155674D01*
X36354Y158724D01*
X34344Y161344D01*
X31724Y163354D01*
X29167Y164413D01*
Y165787D01*
X31724Y166846D01*
X34344Y168856D01*
X36354Y171476D01*
X37617Y174526D01*
X38048Y177800D01*
X37617Y181074D01*
X36354Y184124D01*
X34344Y186744D01*
X31724Y188754D01*
X29167Y189813D01*
Y191187D01*
X31724Y192246D01*
X34344Y194256D01*
X36354Y196876D01*
X37617Y199926D01*
X38048Y203200D01*
X37617Y206474D01*
X36354Y209524D01*
X34344Y212144D01*
X31724Y214154D01*
X29167Y215213D01*
Y216587D01*
X31724Y217646D01*
X34344Y219656D01*
X36354Y222276D01*
X37617Y225326D01*
X37881Y227330D01*
D02*
G37*
G36*
X165100Y124445D02*
X163132Y124186D01*
X161297Y123426D01*
X159722Y122218D01*
X158514Y120642D01*
X157754Y118808D01*
X157495Y116840D01*
X157754Y114872D01*
X158514Y113038D01*
X159722Y111462D01*
X159961Y111279D01*
Y71601D01*
X159722Y71418D01*
X158514Y69843D01*
X157754Y68008D01*
X157495Y66040D01*
X157754Y64072D01*
X158514Y62238D01*
X159722Y60662D01*
X161297Y59454D01*
X163132Y58694D01*
X165100Y58435D01*
X167068Y58694D01*
X168902Y59454D01*
X170478Y60662D01*
X170661Y60901D01*
X198120D01*
X200086Y61292D01*
X201754Y62406D01*
X221838Y82491D01*
X287809D01*
X287992Y82252D01*
X289568Y81044D01*
X291402Y80284D01*
X293370Y80025D01*
X295338Y80284D01*
X297173Y81044D01*
X298748Y82252D01*
X299713Y83511D01*
X308617D01*
X309582Y82252D01*
X311157Y81044D01*
X312992Y80284D01*
X314960Y80025D01*
X316928Y80284D01*
X318762Y81044D01*
X320338Y82252D01*
X321546Y83827D01*
X322306Y85662D01*
X322565Y87630D01*
X322306Y89598D01*
X321546Y91433D01*
X320338Y93008D01*
X319250Y93842D01*
X319165Y94046D01*
Y95184D01*
X319250Y95388D01*
X320338Y96222D01*
X321546Y97797D01*
X322306Y99632D01*
X322565Y101600D01*
X322306Y103568D01*
X321546Y105402D01*
X320338Y106978D01*
X318762Y108186D01*
X316928Y108946D01*
X314960Y109205D01*
X312992Y108946D01*
X311157Y108186D01*
X309582Y106978D01*
X308617Y105719D01*
X299713D01*
X298748Y106978D01*
X297173Y108186D01*
X295338Y108946D01*
X293370Y109205D01*
X291402Y108946D01*
X289568Y108186D01*
X287992Y106978D01*
X286784Y105402D01*
X286024Y103568D01*
X285765Y101600D01*
X286024Y99632D01*
X286784Y97797D01*
X287992Y96222D01*
X289080Y95388D01*
X289165Y95184D01*
Y94046D01*
X289080Y93842D01*
X287992Y93008D01*
X287809Y92769D01*
X219710D01*
X217743Y92378D01*
X216076Y91264D01*
X195991Y71179D01*
X170661D01*
X170478Y71418D01*
X170239Y71601D01*
Y111279D01*
X170478Y111462D01*
X171686Y113038D01*
X172446Y114872D01*
X172705Y116840D01*
X172446Y118808D01*
X171686Y120642D01*
X170478Y122218D01*
X168902Y123426D01*
X167068Y124186D01*
X165100Y124445D01*
D02*
G37*
G36*
X37940Y266540D02*
X12860D01*
Y241460D01*
X20359D01*
X20612Y240190D01*
X19076Y239554D01*
X16456Y237544D01*
X14446Y234924D01*
X13183Y231874D01*
X12919Y229870D01*
X37881D01*
X37617Y231874D01*
X36354Y234924D01*
X34344Y237544D01*
X31724Y239554D01*
X30188Y240190D01*
X30440Y241460D01*
X37940D01*
Y266540D01*
D02*
G37*
G36*
X393540D02*
X368460D01*
Y241460D01*
X375960D01*
X376212Y240190D01*
X374676Y239554D01*
X372056Y237544D01*
X370046Y234924D01*
X368783Y231874D01*
X368352Y228600D01*
X368783Y225326D01*
X370046Y222276D01*
X372056Y219656D01*
X374676Y217646D01*
X377233Y216587D01*
Y215213D01*
X374676Y214154D01*
X372056Y212144D01*
X370046Y209524D01*
X368783Y206474D01*
X368352Y203200D01*
X368783Y199926D01*
X370046Y196876D01*
X372056Y194256D01*
X374676Y192246D01*
X377233Y191187D01*
Y189813D01*
X374676Y188754D01*
X372056Y186744D01*
X370046Y184124D01*
X368783Y181074D01*
X368352Y177800D01*
X368783Y174526D01*
X370046Y171476D01*
X372056Y168856D01*
X374676Y166846D01*
X377233Y165787D01*
Y164413D01*
X374676Y163354D01*
X372056Y161344D01*
X370046Y158724D01*
X368783Y155674D01*
X368352Y152400D01*
X368783Y149126D01*
X370046Y146076D01*
X372056Y143456D01*
X374676Y141446D01*
X377233Y140387D01*
Y139013D01*
X374676Y137954D01*
X372056Y135944D01*
X370046Y133324D01*
X368783Y130274D01*
X368352Y127000D01*
X368783Y123726D01*
X370046Y120676D01*
X372056Y118056D01*
X374676Y116046D01*
X377233Y114987D01*
Y113613D01*
X374676Y112554D01*
X372056Y110544D01*
X370046Y107924D01*
X368783Y104874D01*
X368352Y101600D01*
X368783Y98326D01*
X370046Y95276D01*
X372056Y92656D01*
X374676Y90646D01*
X377233Y89587D01*
Y88213D01*
X374676Y87154D01*
X372056Y85144D01*
X370046Y82524D01*
X368783Y79474D01*
X368352Y76200D01*
X368783Y72926D01*
X369696Y70721D01*
X367564Y68589D01*
X229903D01*
X228938Y69848D01*
X227363Y71056D01*
X225528Y71816D01*
X223560Y72075D01*
X221592Y71816D01*
X219757Y71056D01*
X218182Y69848D01*
X216974Y68273D01*
X216214Y66438D01*
X215955Y64470D01*
X216165Y62872D01*
X215906Y62221D01*
X215215Y61594D01*
X213712Y61396D01*
X211877Y60636D01*
X210302Y59428D01*
X209094Y57853D01*
X208334Y56018D01*
X208075Y54050D01*
X208334Y52082D01*
X209094Y50248D01*
X210302Y48672D01*
X211877Y47464D01*
X213712Y46704D01*
X215215Y46506D01*
X215906Y45879D01*
X216165Y45228D01*
X215955Y43630D01*
X216214Y41662D01*
X216974Y39827D01*
X218182Y38252D01*
X219757Y37044D01*
X220622Y36686D01*
X220814Y35232D01*
X219656Y34344D01*
X217646Y31724D01*
X216733Y29519D01*
X189666D01*
X161663Y57523D01*
X160326Y58416D01*
X158750Y58729D01*
X84256D01*
X77779Y65206D01*
Y101607D01*
X79038Y102572D01*
X80246Y104148D01*
X81006Y105982D01*
X81265Y107950D01*
X81006Y109918D01*
X80246Y111753D01*
X79038Y113328D01*
X77835Y114250D01*
X78266Y115520D01*
X107950D01*
X108941Y115717D01*
X109781Y116279D01*
X110343Y117119D01*
X110540Y118110D01*
Y147544D01*
X111810Y148026D01*
X113038Y147084D01*
X114872Y146324D01*
X116840Y146065D01*
X118808Y146324D01*
X120642Y147084D01*
X122218Y148292D01*
X123426Y149867D01*
X124186Y151702D01*
X124445Y153670D01*
X124186Y155638D01*
X123426Y157472D01*
X122218Y159048D01*
X121979Y159231D01*
Y212502D01*
X127858Y218381D01*
X155729D01*
X155912Y218142D01*
X157487Y216934D01*
X159322Y216174D01*
X161290Y215915D01*
X163258Y216174D01*
X165093Y216934D01*
X166668Y218142D01*
X167876Y219718D01*
X168636Y221552D01*
X168895Y223520D01*
X168636Y225488D01*
X167876Y227323D01*
X166668Y228898D01*
X165093Y230106D01*
X163258Y230866D01*
X161290Y231125D01*
X159322Y230866D01*
X157487Y230106D01*
X155912Y228898D01*
X155729Y228659D01*
X125730D01*
X123764Y228268D01*
X122096Y227154D01*
X113206Y218264D01*
X112092Y216597D01*
X111701Y214630D01*
Y192440D01*
X110431Y192315D01*
X110343Y192761D01*
X109781Y193601D01*
X108941Y194163D01*
X107950Y194360D01*
X49530D01*
X48539Y194163D01*
X47699Y193601D01*
X47137Y192761D01*
X46940Y191770D01*
Y118110D01*
X47137Y117119D01*
X47699Y116279D01*
X48539Y115717D01*
X49530Y115520D01*
X69054D01*
X69485Y114250D01*
X68282Y113328D01*
X67074Y111753D01*
X66314Y109918D01*
X66055Y107950D01*
X66314Y105982D01*
X67074Y104148D01*
X68282Y102572D01*
X69541Y101607D01*
Y63500D01*
X69854Y61924D01*
X70747Y60587D01*
X79637Y51697D01*
X80974Y50804D01*
X82550Y50491D01*
X134023D01*
X134729Y49221D01*
X134647Y49089D01*
X53333D01*
X52368Y50348D01*
X50792Y51556D01*
X48958Y52316D01*
X46990Y52575D01*
X45022Y52316D01*
X43187Y51556D01*
X41612Y50348D01*
X40404Y48773D01*
X39644Y46938D01*
X39385Y44970D01*
X39644Y43002D01*
X40404Y41167D01*
X41612Y39592D01*
X42919Y38590D01*
X43036Y38041D01*
Y37669D01*
X42919Y37120D01*
X41612Y36118D01*
X40404Y34543D01*
X39644Y32708D01*
X39385Y30740D01*
X39644Y28772D01*
X40404Y26937D01*
X41612Y25362D01*
X42919Y24360D01*
X43036Y23811D01*
Y23439D01*
X42919Y22890D01*
X41612Y21888D01*
X40404Y20312D01*
X39644Y18478D01*
X39385Y16510D01*
X39644Y14542D01*
X40404Y12708D01*
X41612Y11132D01*
X43187Y9924D01*
X45022Y9164D01*
X46990Y8905D01*
X48958Y9164D01*
X50792Y9924D01*
X52368Y11132D01*
X53333Y12391D01*
X58420D01*
X59996Y12704D01*
X61333Y13597D01*
X67746Y20011D01*
X135897D01*
X136862Y18752D01*
X138438Y17544D01*
X140272Y16784D01*
X142240Y16525D01*
X144208Y16784D01*
X146042Y17544D01*
X147618Y18752D01*
X148826Y20327D01*
X149586Y22162D01*
X149845Y24130D01*
X149635Y25728D01*
X149894Y26379D01*
X150585Y27006D01*
X152088Y27204D01*
X153923Y27964D01*
X155498Y29172D01*
X156706Y30747D01*
X157466Y32582D01*
X157725Y34550D01*
X157466Y36518D01*
X156706Y38352D01*
X155498Y39928D01*
X153923Y41136D01*
X152088Y41896D01*
X150585Y42094D01*
X149894Y42722D01*
X149635Y43372D01*
X149845Y44970D01*
X149586Y46938D01*
X148826Y48773D01*
X148482Y49221D01*
X149108Y50491D01*
X157044D01*
X185047Y22487D01*
X186384Y21594D01*
X187960Y21281D01*
X216733D01*
X217646Y19076D01*
X219656Y16456D01*
X222276Y14446D01*
X225326Y13183D01*
X228600Y12752D01*
X231874Y13183D01*
X234924Y14446D01*
X237544Y16456D01*
X239554Y19076D01*
X240613Y21633D01*
X241987D01*
X243046Y19076D01*
X245056Y16456D01*
X247676Y14446D01*
X250726Y13183D01*
X254000Y12752D01*
X257274Y13183D01*
X260324Y14446D01*
X262944Y16456D01*
X264954Y19076D01*
X266013Y21633D01*
X267387D01*
X268446Y19076D01*
X270456Y16456D01*
X273076Y14446D01*
X276126Y13183D01*
X278130Y12919D01*
Y25400D01*
Y37881D01*
X276126Y37617D01*
X273076Y36354D01*
X270456Y34344D01*
X268446Y31724D01*
X267387Y29167D01*
X266013D01*
X264954Y31724D01*
X262944Y34344D01*
X260324Y36354D01*
X257274Y37617D01*
X254000Y38048D01*
X250726Y37617D01*
X247676Y36354D01*
X245056Y34344D01*
X243046Y31724D01*
X241987Y29167D01*
X240613D01*
X239554Y31724D01*
X237544Y34344D01*
X234924Y36354D01*
X231874Y37617D01*
X231219Y37703D01*
X230601Y39066D01*
X230899Y39511D01*
X345824D01*
X362847Y22487D01*
X364184Y21594D01*
X365760Y21281D01*
X369133D01*
X370046Y19076D01*
X372056Y16456D01*
X374676Y14446D01*
X377726Y13183D01*
X381000Y12752D01*
X384274Y13183D01*
X387324Y14446D01*
X389944Y16456D01*
X391954Y19076D01*
X393217Y22126D01*
X393648Y25400D01*
X393217Y28674D01*
X391954Y31724D01*
X389944Y34344D01*
X387324Y36354D01*
X384767Y37413D01*
Y38787D01*
X387324Y39846D01*
X389944Y41856D01*
X391954Y44476D01*
X393217Y47526D01*
X393648Y50800D01*
X393217Y54074D01*
X391954Y57124D01*
X389944Y59744D01*
X387324Y61754D01*
X384767Y62813D01*
Y64187D01*
X387324Y65246D01*
X389944Y67256D01*
X391954Y69876D01*
X393217Y72926D01*
X393648Y76200D01*
X393217Y79474D01*
X391954Y82524D01*
X389944Y85144D01*
X387324Y87154D01*
X384767Y88213D01*
Y89587D01*
X387324Y90646D01*
X389944Y92656D01*
X391954Y95276D01*
X393217Y98326D01*
X393648Y101600D01*
X393217Y104874D01*
X391954Y107924D01*
X389944Y110544D01*
X387324Y112554D01*
X384767Y113613D01*
Y114987D01*
X387324Y116046D01*
X389944Y118056D01*
X391954Y120676D01*
X393217Y123726D01*
X393648Y127000D01*
X393217Y130274D01*
X391954Y133324D01*
X389944Y135944D01*
X387324Y137954D01*
X384767Y139013D01*
Y140387D01*
X387324Y141446D01*
X389944Y143456D01*
X391954Y146076D01*
X393217Y149126D01*
X393648Y152400D01*
X393217Y155674D01*
X391954Y158724D01*
X389944Y161344D01*
X387324Y163354D01*
X384767Y164413D01*
Y165787D01*
X387324Y166846D01*
X389944Y168856D01*
X391954Y171476D01*
X393217Y174526D01*
X393648Y177800D01*
X393217Y181074D01*
X391954Y184124D01*
X389944Y186744D01*
X387324Y188754D01*
X384767Y189813D01*
Y191187D01*
X387324Y192246D01*
X389944Y194256D01*
X391954Y196876D01*
X393217Y199926D01*
X393648Y203200D01*
X393217Y206474D01*
X391954Y209524D01*
X389944Y212144D01*
X387324Y214154D01*
X384767Y215213D01*
Y216587D01*
X387324Y217646D01*
X389944Y219656D01*
X391954Y222276D01*
X393217Y225326D01*
X393648Y228600D01*
X393217Y231874D01*
X391954Y234924D01*
X389944Y237544D01*
X387324Y239554D01*
X385788Y240190D01*
X386040Y241460D01*
X393540D01*
Y266540D01*
D02*
G37*
G36*
X264160Y166355D02*
X262192Y166096D01*
X260357Y165336D01*
X258782Y164128D01*
X257817Y162869D01*
X243833D01*
X242868Y164128D01*
X241292Y165336D01*
X239458Y166096D01*
X237490Y166355D01*
X235522Y166096D01*
X233687Y165336D01*
X232112Y164128D01*
X230904Y162553D01*
X230144Y160718D01*
X229885Y158750D01*
X230144Y156782D01*
X230904Y154948D01*
X232112Y153372D01*
X233687Y152164D01*
X234524Y151817D01*
Y150443D01*
X233687Y150096D01*
X232112Y148888D01*
X230904Y147312D01*
X230144Y145478D01*
X229885Y143510D01*
X230144Y141542D01*
X230904Y139707D01*
X232112Y138132D01*
X233687Y136924D01*
X235522Y136164D01*
X237490Y135905D01*
X239458Y136164D01*
X241292Y136924D01*
X242868Y138132D01*
X243833Y139391D01*
X257817D01*
X258782Y138132D01*
X260357Y136924D01*
X262192Y136164D01*
X264160Y135905D01*
X266128Y136164D01*
X267962Y136924D01*
X269538Y138132D01*
X270746Y139707D01*
X271506Y141542D01*
X271765Y143510D01*
X271506Y145478D01*
X270746Y147312D01*
X269538Y148888D01*
X267962Y150096D01*
X267126Y150443D01*
Y151817D01*
X267962Y152164D01*
X269538Y153372D01*
X270746Y154948D01*
X271506Y156782D01*
X271765Y158750D01*
X271506Y160718D01*
X270746Y162553D01*
X269538Y164128D01*
X267962Y165336D01*
X266128Y166096D01*
X264160Y166355D01*
D02*
G37*
%LPD*%
D23*
X369270Y64470D02*
X381000Y76200D01*
X223560Y64470D02*
X369270D01*
X365760Y25400D02*
X381000D01*
X347530Y43630D02*
X365760Y25400D01*
X223560Y43630D02*
X347530D01*
X350520Y50800D02*
X381000D01*
X347270Y54050D02*
X350520Y50800D01*
X215680Y54050D02*
X347270D01*
X187960Y25400D02*
X228600D01*
X158750Y54610D02*
X187960Y25400D01*
X82550Y54610D02*
X158750D01*
X73660Y63500D02*
X82550Y54610D01*
X73660Y63500D02*
Y107950D01*
X237490Y143510D02*
X264160D01*
X237490Y158750D02*
X264160D01*
X46990Y16510D02*
X58420D01*
X66040Y24130D01*
X46990Y30740D02*
X59950D01*
X63760Y34550D01*
X150120D01*
X46990Y44970D02*
X142240D01*
X66040Y24130D02*
X142240D01*
X293370Y87630D02*
X314960D01*
X293370Y101600D02*
X314960D01*
D24*
X219710Y87630D02*
X293370D01*
X198120Y66040D02*
X219710Y87630D01*
X165100Y66040D02*
X198120D01*
X165100D02*
Y116840D01*
X125730Y223520D02*
X161290D01*
X116840Y214630D02*
X125730Y223520D01*
X116840Y153670D02*
Y214630D01*
D28*
X330200Y25400D02*
D03*
D29*
X304800D02*
D03*
X279400D02*
D03*
X254000D02*
D03*
X228600D02*
D03*
X381000D02*
D03*
Y50800D02*
D03*
Y76200D02*
D03*
Y101600D02*
D03*
Y127000D02*
D03*
Y228600D02*
D03*
Y203200D02*
D03*
Y177800D02*
D03*
Y152400D02*
D03*
X25400Y25400D02*
D03*
Y50800D02*
D03*
Y76200D02*
D03*
Y101600D02*
D03*
Y127000D02*
D03*
Y228600D02*
D03*
Y203200D02*
D03*
Y177800D02*
D03*
Y152400D02*
D03*
D30*
X381000Y254000D02*
D03*
X25400D02*
D03*
D31*
X156930Y239000D02*
D03*
X76200Y123190D02*
D03*
X88900D02*
D03*
X101600D02*
D03*
Y184150D02*
D03*
X88900D02*
D03*
X76200D02*
D03*
X64220Y220850D02*
D03*
X147090Y117250D02*
D03*
X250700Y201210D02*
D03*
X87920Y203490D02*
D03*
X165100Y116840D02*
D03*
X223520Y135890D02*
D03*
X120650Y93980D02*
D03*
X165100Y66040D02*
D03*
X215680Y54050D02*
D03*
X223560Y43630D02*
D03*
Y64470D02*
D03*
X161290Y223520D02*
D03*
X116840Y153670D02*
D03*
X73660Y107950D02*
D03*
X264160Y143510D02*
D03*
X237490D02*
D03*
X264160Y158750D02*
D03*
X237490D02*
D03*
X46990Y30740D02*
D03*
Y44970D02*
D03*
Y16510D02*
D03*
X142240Y24130D02*
D03*
X183810Y11090D02*
D03*
X314960Y87630D02*
D03*
X293370D02*
D03*
Y101600D02*
D03*
X314960D02*
D03*
X142240Y44970D02*
D03*
X150120Y34550D02*
D03*
D32*
X78740Y154940D02*
D03*
M02*
