G04 Layer_Color=65535*
%FSLAX44Y44*%
%MOMM*%
G71*
G01*
G75*
%ADD34C,0.2500*%
%ADD35C,0.6000*%
%ADD36C,0.1000*%
%ADD37C,0.2032*%
%ADD38C,0.2000*%
%ADD39C,0.1270*%
%ADD40C,0.2540*%
%ADD41R,0.6350X2.5400*%
%ADD42R,40.6400X0.6350*%
%ADD43R,0.6350X27.9400*%
%ADD44R,4.1483X1.2954*%
G36*
X366229Y63572D02*
X338964D01*
Y76128D01*
X366229D01*
Y63572D01*
D02*
G37*
G36*
Y222322D02*
X338789D01*
Y234961D01*
X366229D01*
Y222322D01*
D02*
G37*
G36*
Y19122D02*
X343892D01*
Y31678D01*
X366229D01*
Y19122D01*
D02*
G37*
G36*
X282021Y97482D02*
X220520D01*
Y109982D01*
X282021D01*
Y97482D01*
D02*
G37*
G36*
X267164Y111434D02*
X220520D01*
Y124072D01*
X267164D01*
Y111434D01*
D02*
G37*
G36*
X149293Y259774D02*
X137727D01*
Y272404D01*
X149293D01*
Y259774D01*
D02*
G37*
G36*
X137512Y259890D02*
X126648D01*
Y272288D01*
X137512D01*
Y259890D01*
D02*
G37*
G36*
X160067Y259811D02*
X149813D01*
Y272367D01*
X160067D01*
Y259811D01*
D02*
G37*
G36*
X366229Y196932D02*
X338724D01*
Y209561D01*
X366229D01*
Y196932D01*
D02*
G37*
G36*
Y44522D02*
X343911D01*
Y57078D01*
X366229D01*
Y44522D01*
D02*
G37*
G36*
X62646Y69922D02*
X40180D01*
Y82441D01*
X62646D01*
Y69922D01*
D02*
G37*
G36*
X62462Y146243D02*
X40180D01*
Y158678D01*
X62462D01*
Y146243D01*
D02*
G37*
G36*
X62711Y95443D02*
X40180D01*
Y107868D01*
X62711D01*
Y95443D01*
D02*
G37*
G36*
X62526Y120722D02*
X40180D01*
Y133278D01*
X62526D01*
Y120722D01*
D02*
G37*
G36*
X62600Y44522D02*
X40180D01*
Y57078D01*
X62600D01*
Y44522D01*
D02*
G37*
G36*
X62517Y19243D02*
X40180D01*
Y31641D01*
X62517D01*
Y19243D01*
D02*
G37*
G36*
X239076Y82958D02*
X220520D01*
Y96132D01*
X239076D01*
Y82958D01*
D02*
G37*
G36*
X61454Y171643D02*
X40180D01*
Y184078D01*
X61454D01*
Y171643D01*
D02*
G37*
G36*
X62471Y196922D02*
X40180D01*
Y209478D01*
X62471D01*
Y196922D01*
D02*
G37*
G36*
X366229Y171643D02*
X343892D01*
Y184041D01*
X366229D01*
Y171643D01*
D02*
G37*
G36*
Y247722D02*
X336977D01*
Y260278D01*
X366229D01*
Y247722D01*
D02*
G37*
G36*
X260725Y178499D02*
X233220D01*
Y191128D01*
X260725D01*
Y178499D01*
D02*
G37*
G36*
X366229Y137970D02*
X338724D01*
Y150405D01*
X366229D01*
Y137970D01*
D02*
G37*
G36*
X317810Y178490D02*
X290370D01*
Y191128D01*
X317810D01*
Y178490D01*
D02*
G37*
G36*
X366229Y152472D02*
X343883D01*
Y165028D01*
X366229D01*
Y152472D01*
D02*
G37*
G36*
Y78160D02*
X338909D01*
Y90715D01*
X366229D01*
Y78160D01*
D02*
G37*
%LPC*%
G36*
X357238Y73128D02*
X356240D01*
X356147Y72915D01*
X356027Y72721D01*
X355897Y72536D01*
X355768Y72388D01*
X355657Y72268D01*
X355555Y72175D01*
X355518Y72138D01*
X355491Y72111D01*
X355472Y72101D01*
X355463Y72092D01*
X355260Y71944D01*
X355065Y71815D01*
X354890Y71713D01*
X354733Y71639D01*
X354603Y71583D01*
X354511Y71537D01*
X354474Y71528D01*
X354446Y71519D01*
X354437Y71510D01*
X354427D01*
Y70400D01*
X354760Y70530D01*
X355056Y70668D01*
X355195Y70742D01*
X355324Y70825D01*
X355444Y70899D01*
X355555Y70973D01*
X355657Y71047D01*
X355750Y71112D01*
X355824Y71167D01*
X355888Y71223D01*
X355944Y71269D01*
X355981Y71297D01*
X355999Y71315D01*
X356008Y71325D01*
Y66693D01*
X357238D01*
Y73128D01*
D02*
G37*
G36*
X351118Y73091D02*
X349749D01*
X347271Y66693D01*
X348640D01*
X349167Y68144D01*
X351737D01*
X352292Y66693D01*
X353688D01*
X351118Y73091D01*
D02*
G37*
G36*
X344322D02*
X341964D01*
Y66693D01*
X343259D01*
Y69106D01*
X344405D01*
X344544Y69115D01*
X344673D01*
X344794Y69124D01*
X344905Y69134D01*
X345006Y69143D01*
X345089Y69152D01*
X345173D01*
X345237Y69161D01*
X345302Y69170D01*
X345348Y69180D01*
X345385D01*
X345413Y69189D01*
X345432D01*
X345561Y69226D01*
X345681Y69272D01*
X345792Y69318D01*
X345894Y69374D01*
X345977Y69420D01*
X346042Y69457D01*
X346079Y69485D01*
X346097Y69494D01*
X346217Y69587D01*
X346319Y69688D01*
X346421Y69799D01*
X346495Y69892D01*
X346559Y69984D01*
X346606Y70058D01*
X346633Y70104D01*
X346643Y70123D01*
X346717Y70280D01*
X346772Y70446D01*
X346809Y70622D01*
X346837Y70779D01*
X346855Y70909D01*
Y70973D01*
X346865Y71020D01*
Y71066D01*
Y71094D01*
Y71112D01*
Y71121D01*
X346846Y71389D01*
X346809Y71639D01*
X346744Y71842D01*
X346680Y72027D01*
X346643Y72101D01*
X346606Y72166D01*
X346578Y72221D01*
X346541Y72277D01*
X346522Y72314D01*
X346504Y72342D01*
X346485Y72351D01*
Y72360D01*
X346338Y72527D01*
X346190Y72665D01*
X346032Y72776D01*
X345894Y72859D01*
X345764Y72915D01*
X345663Y72961D01*
X345626Y72970D01*
X345598Y72980D01*
X345579Y72989D01*
X345570D01*
X345496Y73007D01*
X345404Y73026D01*
X345293Y73035D01*
X345182Y73044D01*
X344923Y73063D01*
X344664Y73081D01*
X344424D01*
X344322Y73091D01*
D02*
G37*
G36*
X361241Y73128D02*
X361149D01*
X360983Y73118D01*
X360825Y73100D01*
X360668Y73063D01*
X360530Y73026D01*
X360400Y72970D01*
X360280Y72915D01*
X360178Y72859D01*
X360076Y72795D01*
X359993Y72730D01*
X359910Y72674D01*
X359845Y72619D01*
X359799Y72564D01*
X359753Y72527D01*
X359725Y72490D01*
X359707Y72471D01*
X359697Y72462D01*
X359586Y72305D01*
X359494Y72120D01*
X359411Y71926D01*
X359337Y71722D01*
X359281Y71510D01*
X359226Y71288D01*
X359189Y71075D01*
X359152Y70862D01*
X359133Y70659D01*
X359115Y70474D01*
X359096Y70298D01*
X359087Y70150D01*
X359078Y70030D01*
Y69938D01*
Y69901D01*
Y69873D01*
Y69864D01*
Y69855D01*
X359087Y69522D01*
X359106Y69217D01*
X359133Y68930D01*
X359170Y68671D01*
X359207Y68440D01*
X359254Y68227D01*
X359309Y68042D01*
X359365Y67876D01*
X359411Y67737D01*
X359466Y67608D01*
X359512Y67506D01*
X359559Y67423D01*
X359586Y67368D01*
X359614Y67321D01*
X359633Y67294D01*
X359642Y67284D01*
X359753Y67155D01*
X359873Y67053D01*
X359993Y66951D01*
X360123Y66877D01*
X360243Y66804D01*
X360372Y66748D01*
X360493Y66702D01*
X360613Y66665D01*
X360724Y66628D01*
X360825Y66609D01*
X360918Y66591D01*
X360992Y66582D01*
X361057D01*
X361112Y66572D01*
X361149D01*
X361315Y66582D01*
X361473Y66600D01*
X361630Y66637D01*
X361768Y66674D01*
X361898Y66720D01*
X362018Y66776D01*
X362120Y66841D01*
X362221Y66905D01*
X362305Y66961D01*
X362388Y67025D01*
X362453Y67081D01*
X362508Y67127D01*
X362545Y67164D01*
X362573Y67201D01*
X362591Y67220D01*
X362601Y67229D01*
X362711Y67386D01*
X362804Y67571D01*
X362896Y67765D01*
X362961Y67978D01*
X363026Y68190D01*
X363072Y68403D01*
X363118Y68625D01*
X363155Y68838D01*
X363174Y69041D01*
X363192Y69226D01*
X363211Y69402D01*
X363220Y69549D01*
X363229Y69670D01*
Y69762D01*
Y69799D01*
Y69827D01*
Y69836D01*
Y69845D01*
X363220Y70178D01*
X363201Y70483D01*
X363174Y70761D01*
X363128Y71020D01*
X363081Y71260D01*
X363035Y71473D01*
X362970Y71667D01*
X362915Y71833D01*
X362859Y71990D01*
X362804Y72111D01*
X362748Y72221D01*
X362702Y72314D01*
X362656Y72379D01*
X362628Y72425D01*
X362610Y72453D01*
X362601Y72462D01*
X362499Y72582D01*
X362388Y72684D01*
X362268Y72767D01*
X362147Y72850D01*
X362027Y72915D01*
X361907Y72961D01*
X361796Y73007D01*
X361676Y73044D01*
X361565Y73072D01*
X361473Y73091D01*
X361380Y73109D01*
X361306Y73118D01*
X361241Y73128D01*
D02*
G37*
%LPD*%
G36*
X351321Y69226D02*
X349555D01*
X350424Y71602D01*
X351321Y69226D01*
D02*
G37*
G36*
X344313Y72000D02*
X344396D01*
X344479Y71990D01*
X344599D01*
X344692Y71981D01*
X344757Y71972D01*
X344794Y71963D01*
X344803D01*
X344914Y71935D01*
X345015Y71898D01*
X345108Y71852D01*
X345182Y71796D01*
X345237Y71750D01*
X345284Y71713D01*
X345311Y71685D01*
X345321Y71676D01*
X345395Y71583D01*
X345441Y71491D01*
X345478Y71389D01*
X345505Y71297D01*
X345524Y71214D01*
X345533Y71149D01*
Y71112D01*
Y71094D01*
X345524Y70992D01*
X345515Y70899D01*
X345487Y70816D01*
X345459Y70742D01*
X345432Y70677D01*
X345413Y70631D01*
X345395Y70603D01*
X345385Y70594D01*
X345330Y70520D01*
X345256Y70456D01*
X345191Y70400D01*
X345126Y70354D01*
X345071Y70326D01*
X345025Y70298D01*
X344988Y70289D01*
X344978Y70280D01*
X344923Y70261D01*
X344858Y70252D01*
X344710Y70224D01*
X344544Y70206D01*
X344378Y70197D01*
X344211D01*
X344146Y70188D01*
X343259D01*
Y72009D01*
X344220D01*
X344313Y72000D01*
D02*
G37*
G36*
X361232Y72101D02*
X361306Y72092D01*
X361371Y72064D01*
X361426Y72037D01*
X361473Y72009D01*
X361510Y71990D01*
X361528Y71972D01*
X361537Y71963D01*
X361593Y71898D01*
X361648Y71815D01*
X361694Y71722D01*
X361741Y71630D01*
X361768Y71537D01*
X361796Y71463D01*
X361805Y71417D01*
X361815Y71408D01*
Y71399D01*
X361833Y71315D01*
X361852Y71214D01*
X361870Y71094D01*
X361889Y70973D01*
X361907Y70724D01*
X361916Y70465D01*
X361926Y70345D01*
Y70224D01*
X361935Y70123D01*
Y70030D01*
Y69956D01*
Y69892D01*
Y69855D01*
Y69845D01*
Y69642D01*
X361926Y69448D01*
Y69272D01*
X361916Y69115D01*
X361907Y68967D01*
X361898Y68838D01*
X361879Y68717D01*
X361870Y68616D01*
X361861Y68523D01*
X361842Y68449D01*
X361833Y68385D01*
X361824Y68329D01*
X361815Y68292D01*
Y68255D01*
X361805Y68246D01*
Y68237D01*
X361768Y68107D01*
X361722Y68005D01*
X361676Y67913D01*
X361639Y67848D01*
X361602Y67793D01*
X361565Y67756D01*
X361547Y67737D01*
X361537Y67728D01*
X361473Y67682D01*
X361408Y67645D01*
X361343Y67626D01*
X361278Y67608D01*
X361232Y67599D01*
X361186Y67590D01*
X361149D01*
X361066Y67599D01*
X360992Y67608D01*
X360927Y67636D01*
X360872Y67663D01*
X360825Y67682D01*
X360788Y67710D01*
X360770Y67719D01*
X360761Y67728D01*
X360705Y67793D01*
X360650Y67876D01*
X360603Y67969D01*
X360557Y68061D01*
X360530Y68144D01*
X360502Y68218D01*
X360493Y68264D01*
X360483Y68283D01*
X360465Y68375D01*
X360446Y68477D01*
X360428Y68588D01*
X360419Y68708D01*
X360400Y68967D01*
X360391Y69226D01*
X360382Y69346D01*
Y69466D01*
X360372Y69568D01*
Y69661D01*
Y69734D01*
Y69799D01*
Y69836D01*
Y69845D01*
Y70049D01*
X360382Y70243D01*
Y70409D01*
X360391Y70576D01*
X360400Y70715D01*
X360409Y70853D01*
X360419Y70964D01*
X360437Y71075D01*
X360446Y71167D01*
X360456Y71241D01*
X360465Y71306D01*
X360474Y71362D01*
X360483Y71399D01*
Y71436D01*
X360493Y71445D01*
Y71454D01*
X360530Y71583D01*
X360576Y71694D01*
X360613Y71778D01*
X360659Y71852D01*
X360696Y71898D01*
X360724Y71935D01*
X360742Y71953D01*
X360751Y71963D01*
X360816Y72009D01*
X360890Y72046D01*
X360955Y72074D01*
X361020Y72092D01*
X361066Y72101D01*
X361112Y72111D01*
X361149D01*
X361232Y72101D01*
D02*
G37*
%LPC*%
G36*
X350618Y231961D02*
X350507D01*
X350267Y231952D01*
X350027Y231924D01*
X349814Y231878D01*
X349601Y231822D01*
X349416Y231757D01*
X349231Y231683D01*
X349074Y231600D01*
X348926Y231517D01*
X348788Y231434D01*
X348677Y231351D01*
X348575Y231277D01*
X348492Y231212D01*
X348427Y231156D01*
X348381Y231110D01*
X348353Y231082D01*
X348344Y231073D01*
X348196Y230898D01*
X348076Y230713D01*
X347965Y230518D01*
X347872Y230315D01*
X347789Y230102D01*
X347724Y229899D01*
X347669Y229696D01*
X347623Y229501D01*
X347586Y229307D01*
X347567Y229141D01*
X347549Y228984D01*
X347530Y228854D01*
Y228743D01*
X347521Y228660D01*
Y228605D01*
Y228595D01*
Y228586D01*
X347530Y228309D01*
X347558Y228050D01*
X347595Y227800D01*
X347650Y227578D01*
X347706Y227366D01*
X347780Y227162D01*
X347854Y226987D01*
X347928Y226829D01*
X348002Y226681D01*
X348076Y226552D01*
X348150Y226450D01*
X348205Y226358D01*
X348261Y226293D01*
X348298Y226238D01*
X348325Y226210D01*
X348335Y226201D01*
X348492Y226044D01*
X348658Y225914D01*
X348834Y225794D01*
X349010Y225702D01*
X349185Y225618D01*
X349361Y225544D01*
X349527Y225489D01*
X349684Y225443D01*
X349842Y225406D01*
X349980Y225378D01*
X350110Y225359D01*
X350211Y225350D01*
X350304Y225341D01*
X350369Y225332D01*
X350424D01*
X350618Y225341D01*
X350794Y225350D01*
X350970Y225378D01*
X351127Y225415D01*
X351275Y225452D01*
X351413Y225489D01*
X351543Y225535D01*
X351663Y225591D01*
X351765Y225637D01*
X351857Y225683D01*
X351940Y225720D01*
X352005Y225757D01*
X352061Y225794D01*
X352098Y225822D01*
X352116Y225831D01*
X352125Y225840D01*
X352245Y225942D01*
X352356Y226053D01*
X352560Y226303D01*
X352726Y226561D01*
X352856Y226811D01*
X352911Y226931D01*
X352957Y227042D01*
X352994Y227144D01*
X353031Y227227D01*
X353059Y227301D01*
X353078Y227356D01*
X353087Y227393D01*
Y227403D01*
X351829Y227791D01*
X351755Y227541D01*
X351672Y227329D01*
X351589Y227153D01*
X351497Y227005D01*
X351423Y226894D01*
X351358Y226820D01*
X351312Y226774D01*
X351293Y226756D01*
X351145Y226645D01*
X350997Y226571D01*
X350849Y226515D01*
X350720Y226469D01*
X350600Y226450D01*
X350498Y226441D01*
X350461Y226432D01*
X350415D01*
X350285Y226441D01*
X350165Y226450D01*
X349943Y226515D01*
X349749Y226589D01*
X349592Y226691D01*
X349463Y226783D01*
X349370Y226857D01*
X349333Y226894D01*
X349305Y226922D01*
X349296Y226931D01*
X349287Y226940D01*
X349213Y227042D01*
X349148Y227162D01*
X349084Y227292D01*
X349037Y227430D01*
X348963Y227717D01*
X348908Y228004D01*
X348889Y228142D01*
X348880Y228263D01*
X348862Y228383D01*
Y228484D01*
X348852Y228558D01*
Y228623D01*
Y228669D01*
Y228679D01*
X348862Y228891D01*
X348871Y229085D01*
X348889Y229261D01*
X348917Y229428D01*
X348954Y229575D01*
X348991Y229714D01*
X349028Y229834D01*
X349074Y229945D01*
X349111Y230038D01*
X349148Y230121D01*
X349185Y230186D01*
X349222Y230241D01*
X349250Y230287D01*
X349268Y230315D01*
X349287Y230334D01*
Y230343D01*
X349370Y230435D01*
X349463Y230518D01*
X349555Y230583D01*
X349657Y230639D01*
X349851Y230731D01*
X350036Y230796D01*
X350193Y230833D01*
X350267Y230842D01*
X350322Y230851D01*
X350378Y230861D01*
X350443D01*
X350628Y230851D01*
X350794Y230814D01*
X350942Y230768D01*
X351071Y230713D01*
X351173Y230657D01*
X351247Y230611D01*
X351293Y230574D01*
X351312Y230565D01*
X351432Y230454D01*
X351543Y230324D01*
X351626Y230195D01*
X351691Y230065D01*
X351737Y229954D01*
X351765Y229871D01*
X351783Y229834D01*
Y229807D01*
X351792Y229797D01*
Y229788D01*
X353068Y230093D01*
X352976Y230361D01*
X352874Y230592D01*
X352763Y230796D01*
X352662Y230962D01*
X352560Y231092D01*
X352523Y231147D01*
X352486Y231193D01*
X352458Y231221D01*
X352430Y231249D01*
X352421Y231267D01*
X352412D01*
X352273Y231388D01*
X352116Y231499D01*
X351968Y231591D01*
X351811Y231665D01*
X351645Y231739D01*
X351487Y231794D01*
X351330Y231841D01*
X351182Y231878D01*
X351044Y231905D01*
X350914Y231924D01*
X350803Y231942D01*
X350701Y231952D01*
X350618Y231961D01*
D02*
G37*
G36*
X344146Y231841D02*
X341789D01*
Y225443D01*
X343083D01*
Y227856D01*
X344230D01*
X344368Y227865D01*
X344498D01*
X344618Y227874D01*
X344729Y227883D01*
X344831Y227893D01*
X344914Y227902D01*
X344997D01*
X345062Y227911D01*
X345126Y227920D01*
X345173Y227930D01*
X345210D01*
X345237Y227939D01*
X345256D01*
X345385Y227976D01*
X345505Y228022D01*
X345616Y228068D01*
X345718Y228124D01*
X345801Y228170D01*
X345866Y228207D01*
X345903Y228235D01*
X345922Y228244D01*
X346042Y228337D01*
X346143Y228438D01*
X346245Y228549D01*
X346319Y228642D01*
X346384Y228734D01*
X346430Y228808D01*
X346458Y228854D01*
X346467Y228873D01*
X346541Y229030D01*
X346596Y229196D01*
X346633Y229372D01*
X346661Y229529D01*
X346680Y229659D01*
Y229723D01*
X346689Y229770D01*
Y229816D01*
Y229844D01*
Y229862D01*
Y229871D01*
X346670Y230139D01*
X346633Y230389D01*
X346569Y230592D01*
X346504Y230777D01*
X346467Y230851D01*
X346430Y230916D01*
X346402Y230972D01*
X346365Y231027D01*
X346347Y231064D01*
X346328Y231092D01*
X346310Y231101D01*
Y231110D01*
X346162Y231277D01*
X346014Y231415D01*
X345857Y231526D01*
X345718Y231609D01*
X345589Y231665D01*
X345487Y231711D01*
X345450Y231720D01*
X345422Y231730D01*
X345404Y231739D01*
X345395D01*
X345321Y231757D01*
X345228Y231776D01*
X345117Y231785D01*
X345006Y231794D01*
X344747Y231813D01*
X344488Y231831D01*
X344248D01*
X344146Y231841D01*
D02*
G37*
G36*
X357062Y231878D02*
X356064D01*
X355971Y231665D01*
X355851Y231471D01*
X355722Y231286D01*
X355592Y231138D01*
X355481Y231018D01*
X355380Y230925D01*
X355343Y230888D01*
X355315Y230861D01*
X355297Y230851D01*
X355287Y230842D01*
X355084Y230694D01*
X354890Y230565D01*
X354714Y230463D01*
X354557Y230389D01*
X354427Y230334D01*
X354335Y230287D01*
X354298Y230278D01*
X354270Y230269D01*
X354261Y230260D01*
X354252D01*
Y229150D01*
X354585Y229280D01*
X354880Y229418D01*
X355019Y229492D01*
X355149Y229575D01*
X355269Y229649D01*
X355380Y229723D01*
X355481Y229797D01*
X355574Y229862D01*
X355648Y229918D01*
X355713Y229973D01*
X355768Y230019D01*
X355805Y230047D01*
X355824Y230065D01*
X355833Y230075D01*
Y225443D01*
X357062D01*
Y231878D01*
D02*
G37*
G36*
X362943Y231757D02*
X359697D01*
X359069Y228420D01*
X360058Y228281D01*
X360141Y228364D01*
X360224Y228438D01*
X360308Y228503D01*
X360391Y228558D01*
X360548Y228642D01*
X360696Y228697D01*
X360825Y228725D01*
X360918Y228743D01*
X360955Y228753D01*
X361010D01*
X361158Y228743D01*
X361297Y228706D01*
X361417Y228660D01*
X361519Y228605D01*
X361593Y228540D01*
X361657Y228494D01*
X361694Y228457D01*
X361704Y228447D01*
X361796Y228327D01*
X361861Y228189D01*
X361907Y228041D01*
X361935Y227893D01*
X361963Y227763D01*
X361972Y227662D01*
Y227615D01*
Y227588D01*
Y227569D01*
Y227560D01*
X361963Y227338D01*
X361935Y227144D01*
X361889Y226987D01*
X361842Y226857D01*
X361787Y226746D01*
X361750Y226672D01*
X361713Y226635D01*
X361704Y226617D01*
X361602Y226515D01*
X361491Y226432D01*
X361380Y226376D01*
X361278Y226339D01*
X361186Y226321D01*
X361112Y226312D01*
X361066Y226303D01*
X361047D01*
X360927Y226312D01*
X360807Y226339D01*
X360705Y226376D01*
X360622Y226423D01*
X360548Y226469D01*
X360493Y226506D01*
X360456Y226534D01*
X360446Y226543D01*
X360363Y226645D01*
X360289Y226746D01*
X360234Y226857D01*
X360197Y226959D01*
X360169Y227051D01*
X360150Y227135D01*
X360141Y227181D01*
Y227199D01*
X358921Y227070D01*
X358949Y226922D01*
X358976Y226783D01*
X359069Y226534D01*
X359170Y226312D01*
X359226Y226219D01*
X359291Y226127D01*
X359346Y226053D01*
X359392Y225988D01*
X359448Y225933D01*
X359485Y225877D01*
X359522Y225840D01*
X359549Y225812D01*
X359568Y225803D01*
X359577Y225794D01*
X359688Y225711D01*
X359799Y225637D01*
X359919Y225572D01*
X360039Y225526D01*
X360289Y225433D01*
X360511Y225378D01*
X360622Y225359D01*
X360714Y225350D01*
X360807Y225341D01*
X360881Y225332D01*
X360946Y225322D01*
X361029D01*
X361232Y225332D01*
X361426Y225359D01*
X361602Y225396D01*
X361768Y225452D01*
X361926Y225517D01*
X362064Y225591D01*
X362194Y225665D01*
X362314Y225748D01*
X362416Y225822D01*
X362508Y225896D01*
X362591Y225970D01*
X362656Y226034D01*
X362702Y226090D01*
X362739Y226127D01*
X362758Y226154D01*
X362767Y226164D01*
X362850Y226284D01*
X362924Y226404D01*
X362980Y226524D01*
X363035Y226654D01*
X363118Y226894D01*
X363174Y227116D01*
X363192Y227208D01*
X363201Y227301D01*
X363220Y227384D01*
Y227458D01*
X363229Y227514D01*
Y227551D01*
Y227578D01*
Y227588D01*
X363220Y227763D01*
X363201Y227930D01*
X363174Y228087D01*
X363137Y228235D01*
X363100Y228364D01*
X363044Y228494D01*
X362998Y228614D01*
X362943Y228716D01*
X362887Y228808D01*
X362841Y228891D01*
X362785Y228965D01*
X362748Y229021D01*
X362711Y229067D01*
X362684Y229104D01*
X362665Y229122D01*
X362656Y229132D01*
X362545Y229233D01*
X362434Y229326D01*
X362314Y229409D01*
X362194Y229483D01*
X362083Y229538D01*
X361963Y229585D01*
X361750Y229659D01*
X361648Y229686D01*
X361556Y229705D01*
X361473Y229714D01*
X361408Y229723D01*
X361352Y229733D01*
X361269D01*
X361112Y229723D01*
X360955Y229696D01*
X360816Y229668D01*
X360687Y229631D01*
X360585Y229585D01*
X360502Y229557D01*
X360446Y229529D01*
X360437Y229520D01*
X360428D01*
X360622Y230611D01*
X362943D01*
Y231757D01*
D02*
G37*
%LPD*%
G36*
X344137Y230750D02*
X344220D01*
X344304Y230740D01*
X344424D01*
X344516Y230731D01*
X344581Y230722D01*
X344618Y230713D01*
X344627D01*
X344738Y230685D01*
X344840Y230648D01*
X344932Y230602D01*
X345006Y230546D01*
X345062Y230500D01*
X345108Y230463D01*
X345136Y230435D01*
X345145Y230426D01*
X345219Y230334D01*
X345265Y230241D01*
X345302Y230139D01*
X345330Y230047D01*
X345348Y229964D01*
X345358Y229899D01*
Y229862D01*
Y229844D01*
X345348Y229742D01*
X345339Y229649D01*
X345311Y229566D01*
X345284Y229492D01*
X345256Y229428D01*
X345237Y229381D01*
X345219Y229354D01*
X345210Y229344D01*
X345154Y229270D01*
X345080Y229206D01*
X345015Y229150D01*
X344951Y229104D01*
X344895Y229076D01*
X344849Y229048D01*
X344812Y229039D01*
X344803Y229030D01*
X344747Y229011D01*
X344683Y229002D01*
X344535Y228974D01*
X344368Y228956D01*
X344202Y228947D01*
X344035D01*
X343971Y228937D01*
X343083D01*
Y230759D01*
X344045D01*
X344137Y230750D01*
D02*
G37*
%LPC*%
G36*
X361186Y28678D02*
X361093D01*
X360927Y28668D01*
X360770Y28659D01*
X360622Y28631D01*
X360483Y28604D01*
X360354Y28567D01*
X360234Y28530D01*
X360132Y28483D01*
X360039Y28446D01*
X359947Y28400D01*
X359873Y28354D01*
X359818Y28317D01*
X359762Y28280D01*
X359725Y28252D01*
X359697Y28224D01*
X359679Y28215D01*
X359670Y28206D01*
X359586Y28114D01*
X359503Y28021D01*
X359439Y27919D01*
X359383Y27827D01*
X359291Y27624D01*
X359235Y27439D01*
X359198Y27272D01*
X359189Y27198D01*
X359180Y27143D01*
X359170Y27087D01*
Y27050D01*
Y27032D01*
Y27023D01*
X359180Y26865D01*
X359207Y26727D01*
X359235Y26588D01*
X359281Y26477D01*
X359318Y26375D01*
X359346Y26311D01*
X359374Y26265D01*
X359383Y26246D01*
X359476Y26126D01*
X359586Y26015D01*
X359697Y25922D01*
X359818Y25839D01*
X359919Y25784D01*
X360003Y25738D01*
X360058Y25710D01*
X360067Y25701D01*
X360076D01*
X359882Y25599D01*
X359716Y25497D01*
X359577Y25386D01*
X359466Y25275D01*
X359374Y25173D01*
X359309Y25099D01*
X359272Y25044D01*
X359263Y25035D01*
Y25026D01*
X359180Y24859D01*
X359115Y24693D01*
X359078Y24526D01*
X359041Y24378D01*
X359022Y24258D01*
X359013Y24156D01*
Y24120D01*
Y24092D01*
Y24073D01*
Y24064D01*
X359022Y23888D01*
X359041Y23731D01*
X359078Y23574D01*
X359124Y23435D01*
X359170Y23297D01*
X359226Y23176D01*
X359291Y23066D01*
X359355Y22964D01*
X359420Y22881D01*
X359485Y22797D01*
X359540Y22733D01*
X359586Y22677D01*
X359633Y22631D01*
X359670Y22603D01*
X359688Y22585D01*
X359697Y22576D01*
X359808Y22492D01*
X359929Y22427D01*
X360049Y22363D01*
X360169Y22317D01*
X360409Y22233D01*
X360640Y22178D01*
X360751Y22159D01*
X360844Y22150D01*
X360927Y22141D01*
X361001Y22132D01*
X361066Y22122D01*
X361149D01*
X361325Y22132D01*
X361482Y22150D01*
X361639Y22178D01*
X361787Y22206D01*
X361916Y22252D01*
X362037Y22298D01*
X362157Y22344D01*
X362258Y22400D01*
X362351Y22455D01*
X362425Y22501D01*
X362499Y22548D01*
X362554Y22594D01*
X362601Y22622D01*
X362628Y22649D01*
X362647Y22668D01*
X362656Y22677D01*
X362758Y22788D01*
X362841Y22899D01*
X362924Y23019D01*
X362989Y23140D01*
X363044Y23260D01*
X363091Y23380D01*
X363155Y23611D01*
X363183Y23713D01*
X363201Y23805D01*
X363211Y23898D01*
X363220Y23972D01*
X363229Y24036D01*
Y24083D01*
Y24110D01*
Y24120D01*
X363220Y24314D01*
X363183Y24489D01*
X363146Y24656D01*
X363091Y24794D01*
X363044Y24905D01*
X362998Y24989D01*
X362961Y25044D01*
X362952Y25062D01*
X362841Y25210D01*
X362711Y25340D01*
X362573Y25451D01*
X362443Y25534D01*
X362323Y25608D01*
X362231Y25663D01*
X362194Y25682D01*
X362166Y25691D01*
X362147Y25701D01*
X362138D01*
X362286Y25774D01*
X362416Y25858D01*
X362527Y25941D01*
X362619Y26033D01*
X362693Y26107D01*
X362739Y26172D01*
X362776Y26209D01*
X362785Y26228D01*
X362869Y26366D01*
X362924Y26505D01*
X362970Y26634D01*
X362998Y26755D01*
X363017Y26865D01*
X363026Y26949D01*
Y27004D01*
Y27013D01*
Y27023D01*
X363017Y27152D01*
X363007Y27281D01*
X362943Y27513D01*
X362869Y27707D01*
X362776Y27882D01*
X362674Y28021D01*
X362637Y28077D01*
X362601Y28123D01*
X362564Y28160D01*
X362536Y28187D01*
X362527Y28197D01*
X362517Y28206D01*
X362416Y28289D01*
X362314Y28363D01*
X362194Y28428D01*
X362083Y28483D01*
X361842Y28567D01*
X361611Y28622D01*
X361510Y28641D01*
X361408Y28650D01*
X361325Y28659D01*
X361241Y28668D01*
X361186Y28678D01*
D02*
G37*
G36*
X349250Y28641D02*
X346892D01*
Y22243D01*
X348187D01*
Y24656D01*
X349333D01*
X349472Y24665D01*
X349601D01*
X349721Y24674D01*
X349832Y24683D01*
X349934Y24693D01*
X350017Y24702D01*
X350101D01*
X350165Y24711D01*
X350230Y24720D01*
X350276Y24730D01*
X350313D01*
X350341Y24739D01*
X350359D01*
X350489Y24776D01*
X350609Y24822D01*
X350720Y24868D01*
X350822Y24924D01*
X350905Y24970D01*
X350970Y25007D01*
X351007Y25035D01*
X351025Y25044D01*
X351145Y25136D01*
X351247Y25238D01*
X351349Y25349D01*
X351423Y25442D01*
X351487Y25534D01*
X351534Y25608D01*
X351561Y25654D01*
X351571Y25673D01*
X351645Y25830D01*
X351700Y25996D01*
X351737Y26172D01*
X351765Y26329D01*
X351783Y26459D01*
Y26523D01*
X351792Y26570D01*
Y26616D01*
Y26644D01*
Y26662D01*
Y26671D01*
X351774Y26939D01*
X351737Y27189D01*
X351672Y27392D01*
X351608Y27577D01*
X351571Y27651D01*
X351534Y27716D01*
X351506Y27771D01*
X351469Y27827D01*
X351450Y27864D01*
X351432Y27892D01*
X351413Y27901D01*
Y27910D01*
X351265Y28077D01*
X351118Y28215D01*
X350960Y28326D01*
X350822Y28409D01*
X350692Y28465D01*
X350591Y28511D01*
X350554Y28520D01*
X350526Y28530D01*
X350507Y28539D01*
X350498D01*
X350424Y28557D01*
X350332Y28576D01*
X350221Y28585D01*
X350110Y28594D01*
X349851Y28613D01*
X349592Y28631D01*
X349352D01*
X349250Y28641D01*
D02*
G37*
G36*
X356045D02*
X354677D01*
X352199Y22243D01*
X353568D01*
X354095Y23694D01*
X356665D01*
X357220Y22243D01*
X358616D01*
X356045Y28641D01*
D02*
G37*
%LPD*%
G36*
X361223Y27698D02*
X361334Y27670D01*
X361426Y27642D01*
X361510Y27605D01*
X361574Y27559D01*
X361620Y27531D01*
X361648Y27503D01*
X361657Y27494D01*
X361731Y27411D01*
X361778Y27318D01*
X361815Y27226D01*
X361842Y27134D01*
X361861Y27060D01*
X361870Y26995D01*
Y26958D01*
Y26939D01*
X361861Y26810D01*
X361833Y26690D01*
X361805Y26597D01*
X361768Y26514D01*
X361722Y26440D01*
X361694Y26394D01*
X361667Y26366D01*
X361657Y26357D01*
X361574Y26292D01*
X361482Y26237D01*
X361389Y26200D01*
X361297Y26181D01*
X361214Y26163D01*
X361149Y26154D01*
X361093D01*
X360973Y26163D01*
X360862Y26181D01*
X360770Y26218D01*
X360687Y26255D01*
X360622Y26292D01*
X360576Y26329D01*
X360548Y26348D01*
X360539Y26357D01*
X360474Y26440D01*
X360419Y26533D01*
X360382Y26625D01*
X360363Y26718D01*
X360345Y26801D01*
X360335Y26865D01*
Y26912D01*
Y26930D01*
X360345Y27060D01*
X360363Y27171D01*
X360400Y27263D01*
X360437Y27346D01*
X360474Y27411D01*
X360511Y27457D01*
X360530Y27485D01*
X360539Y27494D01*
X360622Y27568D01*
X360714Y27614D01*
X360807Y27651D01*
X360899Y27679D01*
X360983Y27698D01*
X361047Y27707D01*
X361103D01*
X361223Y27698D01*
D02*
G37*
G36*
X361251Y25173D02*
X361380Y25136D01*
X361491Y25099D01*
X361584Y25044D01*
X361657Y24998D01*
X361713Y24952D01*
X361750Y24915D01*
X361759Y24905D01*
X361842Y24794D01*
X361907Y24674D01*
X361953Y24554D01*
X361990Y24434D01*
X362009Y24332D01*
X362018Y24249D01*
Y24193D01*
Y24184D01*
Y24175D01*
X362009Y23990D01*
X361981Y23833D01*
X361935Y23694D01*
X361889Y23583D01*
X361842Y23491D01*
X361796Y23435D01*
X361768Y23389D01*
X361759Y23380D01*
X361657Y23287D01*
X361556Y23223D01*
X361454Y23176D01*
X361352Y23149D01*
X361260Y23130D01*
X361195Y23112D01*
X361130D01*
X360992Y23121D01*
X360862Y23158D01*
X360751Y23204D01*
X360659Y23250D01*
X360585Y23306D01*
X360530Y23343D01*
X360493Y23380D01*
X360483Y23389D01*
X360400Y23509D01*
X360335Y23639D01*
X360289Y23768D01*
X360261Y23898D01*
X360243Y24018D01*
X360224Y24110D01*
Y24147D01*
Y24175D01*
Y24184D01*
Y24193D01*
X360234Y24323D01*
X360261Y24452D01*
X360289Y24563D01*
X360335Y24665D01*
X360372Y24748D01*
X360400Y24813D01*
X360428Y24850D01*
X360437Y24868D01*
X360530Y24970D01*
X360640Y25053D01*
X360751Y25109D01*
X360862Y25146D01*
X360955Y25164D01*
X361038Y25183D01*
X361112D01*
X361251Y25173D01*
D02*
G37*
G36*
X349241Y27550D02*
X349324D01*
X349407Y27540D01*
X349527D01*
X349620Y27531D01*
X349684Y27522D01*
X349721Y27513D01*
X349731D01*
X349842Y27485D01*
X349943Y27448D01*
X350036Y27402D01*
X350110Y27346D01*
X350165Y27300D01*
X350211Y27263D01*
X350239Y27235D01*
X350248Y27226D01*
X350322Y27134D01*
X350369Y27041D01*
X350406Y26939D01*
X350433Y26847D01*
X350452Y26764D01*
X350461Y26699D01*
Y26662D01*
Y26644D01*
X350452Y26542D01*
X350443Y26449D01*
X350415Y26366D01*
X350387Y26292D01*
X350359Y26228D01*
X350341Y26181D01*
X350322Y26154D01*
X350313Y26144D01*
X350258Y26070D01*
X350184Y26006D01*
X350119Y25950D01*
X350054Y25904D01*
X349999Y25876D01*
X349953Y25848D01*
X349916Y25839D01*
X349906Y25830D01*
X349851Y25811D01*
X349786Y25802D01*
X349638Y25774D01*
X349472Y25756D01*
X349305Y25747D01*
X349139D01*
X349074Y25738D01*
X348187D01*
Y27559D01*
X349148D01*
X349241Y27550D01*
D02*
G37*
G36*
X356249Y24776D02*
X354483D01*
X355352Y27152D01*
X356249Y24776D01*
D02*
G37*
%LPC*%
G36*
X237841Y105327D02*
X237499D01*
X237333Y105309D01*
X237176Y105290D01*
X237028Y105262D01*
X236898Y105234D01*
X236778Y105198D01*
X236667Y105161D01*
X236565Y105124D01*
X236482Y105077D01*
X236408Y105040D01*
X236344Y105003D01*
X236297Y104976D01*
X236251Y104948D01*
X236224Y104929D01*
X236214Y104920D01*
X236205Y104911D01*
X236122Y104837D01*
X236048Y104754D01*
X235983Y104671D01*
X235937Y104578D01*
X235844Y104412D01*
X235789Y104255D01*
X235761Y104116D01*
X235752Y104051D01*
X235743Y104005D01*
X235733Y103959D01*
Y103931D01*
Y103912D01*
Y103903D01*
X235743Y103783D01*
X235761Y103672D01*
X235780Y103561D01*
X235817Y103459D01*
X235909Y103284D01*
X236011Y103136D01*
X236103Y103016D01*
X236196Y102932D01*
X236233Y102895D01*
X236251Y102877D01*
X236270Y102868D01*
X236279Y102858D01*
X236362Y102812D01*
X236473Y102757D01*
X236602Y102701D01*
X236741Y102655D01*
X236889Y102599D01*
X237046Y102553D01*
X237370Y102461D01*
X237527Y102415D01*
X237675Y102378D01*
X237805Y102341D01*
X237925Y102313D01*
X238026Y102294D01*
X238100Y102276D01*
X238146Y102257D01*
X238165D01*
X238276Y102230D01*
X238359Y102202D01*
X238433Y102174D01*
X238489Y102156D01*
X238526Y102128D01*
X238553Y102119D01*
X238572Y102100D01*
X238627Y102026D01*
X238655Y101952D01*
X238664Y101897D01*
Y101878D01*
Y101869D01*
X238655Y101795D01*
X238637Y101730D01*
X238609Y101675D01*
X238581Y101629D01*
X238553Y101592D01*
X238526Y101564D01*
X238507Y101545D01*
X238498Y101536D01*
X238396Y101481D01*
X238285Y101444D01*
X238165Y101407D01*
X238054Y101388D01*
X237952Y101379D01*
X237860Y101370D01*
X237786D01*
X237629Y101379D01*
X237499Y101398D01*
X237379Y101425D01*
X237287Y101462D01*
X237213Y101490D01*
X237157Y101518D01*
X237120Y101536D01*
X237111Y101545D01*
X237028Y101620D01*
X236963Y101712D01*
X236908Y101795D01*
X236861Y101888D01*
X236834Y101971D01*
X236815Y102036D01*
X236797Y102072D01*
Y102091D01*
X235567Y101906D01*
X235650Y101675D01*
X235752Y101462D01*
X235863Y101287D01*
X235983Y101139D01*
X236094Y101018D01*
X236196Y100935D01*
X236224Y100898D01*
X236251Y100880D01*
X236270Y100871D01*
X236279Y100861D01*
X236390Y100797D01*
X236501Y100732D01*
X236751Y100639D01*
X237000Y100575D01*
X237241Y100528D01*
X237351Y100510D01*
X237453Y100501D01*
X237546Y100492D01*
X237629D01*
X237694Y100482D01*
X237786D01*
X237971Y100492D01*
X238146Y100501D01*
X238313Y100528D01*
X238470Y100556D01*
X238609Y100584D01*
X238738Y100630D01*
X238859Y100667D01*
X238960Y100713D01*
X239053Y100750D01*
X239136Y100797D01*
X239200Y100834D01*
X239256Y100861D01*
X239302Y100898D01*
X239330Y100917D01*
X239349Y100926D01*
X239358Y100935D01*
X239450Y101028D01*
X239533Y101120D01*
X239607Y101213D01*
X239672Y101305D01*
X239718Y101398D01*
X239764Y101490D01*
X239829Y101657D01*
X239866Y101814D01*
X239876Y101878D01*
X239885Y101925D01*
X239894Y101971D01*
Y102008D01*
Y102026D01*
Y102036D01*
X239876Y102239D01*
X239829Y102424D01*
X239774Y102581D01*
X239700Y102711D01*
X239626Y102812D01*
X239570Y102886D01*
X239524Y102923D01*
X239506Y102942D01*
X239422Y102997D01*
X239339Y103062D01*
X239237Y103108D01*
X239127Y103163D01*
X238905Y103256D01*
X238673Y103339D01*
X238470Y103404D01*
X238378Y103422D01*
X238295Y103450D01*
X238230Y103469D01*
X238183Y103478D01*
X238146Y103487D01*
X238137D01*
X237962Y103533D01*
X237805Y103570D01*
X237666Y103607D01*
X237546Y103644D01*
X237435Y103672D01*
X237342Y103700D01*
X237268Y103728D01*
X237194Y103746D01*
X237139Y103774D01*
X237092Y103792D01*
X237056Y103801D01*
X237037Y103820D01*
X237000Y103829D01*
X236991Y103839D01*
X236954Y103875D01*
X236926Y103912D01*
X236889Y103986D01*
X236871Y104042D01*
Y104051D01*
Y104060D01*
X236880Y104116D01*
X236889Y104162D01*
X236945Y104245D01*
X236991Y104291D01*
X237000Y104310D01*
X237009D01*
X237102Y104356D01*
X237204Y104393D01*
X237314Y104412D01*
X237435Y104430D01*
X237536Y104439D01*
X237619Y104449D01*
X237703D01*
X237841Y104439D01*
X237962Y104430D01*
X238063Y104402D01*
X238146Y104375D01*
X238211Y104347D01*
X238258Y104328D01*
X238285Y104310D01*
X238295Y104301D01*
X238368Y104245D01*
X238424Y104180D01*
X238479Y104116D01*
X238516Y104042D01*
X238544Y103986D01*
X238563Y103940D01*
X238581Y103903D01*
Y103894D01*
X239737Y104107D01*
X239663Y104319D01*
X239561Y104504D01*
X239459Y104661D01*
X239349Y104782D01*
X239256Y104883D01*
X239173Y104957D01*
X239117Y104994D01*
X239108Y105013D01*
X239099D01*
X239006Y105068D01*
X238905Y105114D01*
X238683Y105198D01*
X238452Y105253D01*
X238221Y105290D01*
X238110Y105299D01*
X238008Y105309D01*
X237915Y105318D01*
X237841Y105327D01*
D02*
G37*
G36*
X263895D02*
X263812D01*
X263627Y105318D01*
X263452Y105299D01*
X263276Y105272D01*
X263128Y105225D01*
X262980Y105179D01*
X262841Y105124D01*
X262721Y105068D01*
X262610Y105003D01*
X262509Y104948D01*
X262425Y104883D01*
X262351Y104828D01*
X262287Y104782D01*
X262241Y104735D01*
X262204Y104707D01*
X262185Y104689D01*
X262176Y104680D01*
X262074Y104550D01*
X261982Y104421D01*
X261898Y104282D01*
X261824Y104134D01*
X261769Y103986D01*
X261723Y103839D01*
X261649Y103552D01*
X261621Y103413D01*
X261603Y103293D01*
X261593Y103182D01*
X261584Y103080D01*
X261575Y103006D01*
Y102942D01*
Y102905D01*
Y102895D01*
X261584Y102692D01*
X261603Y102489D01*
X261630Y102313D01*
X261667Y102137D01*
X261714Y101980D01*
X261769Y101832D01*
X261815Y101703D01*
X261880Y101582D01*
X261936Y101472D01*
X261982Y101379D01*
X262037Y101305D01*
X262083Y101240D01*
X262120Y101185D01*
X262148Y101148D01*
X262167Y101130D01*
X262176Y101120D01*
X262296Y101009D01*
X262416Y100908D01*
X262546Y100824D01*
X262684Y100750D01*
X262814Y100686D01*
X262952Y100639D01*
X263082Y100593D01*
X263211Y100566D01*
X263332Y100538D01*
X263442Y100519D01*
X263544Y100501D01*
X263627Y100492D01*
X263692Y100482D01*
X263794D01*
X263960Y100492D01*
X264108Y100501D01*
X264256Y100519D01*
X264395Y100547D01*
X264524Y100575D01*
X264635Y100612D01*
X264746Y100649D01*
X264839Y100695D01*
X264931Y100732D01*
X265005Y100769D01*
X265070Y100806D01*
X265125Y100834D01*
X265162Y100861D01*
X265190Y100880D01*
X265208Y100898D01*
X265218D01*
X265310Y100982D01*
X265403Y101074D01*
X265560Y101277D01*
X265689Y101481D01*
X265782Y101684D01*
X265856Y101869D01*
X265883Y101952D01*
X265911Y102017D01*
X265930Y102072D01*
X265939Y102119D01*
X265948Y102147D01*
Y102156D01*
X264746Y102359D01*
X264709Y102193D01*
X264654Y102045D01*
X264607Y101925D01*
X264552Y101832D01*
X264496Y101758D01*
X264459Y101712D01*
X264432Y101684D01*
X264422Y101675D01*
X264330Y101610D01*
X264238Y101564D01*
X264145Y101527D01*
X264053Y101509D01*
X263969Y101490D01*
X263905Y101481D01*
X263849D01*
X263683Y101499D01*
X263535Y101536D01*
X263415Y101582D01*
X263304Y101647D01*
X263221Y101712D01*
X263165Y101758D01*
X263119Y101795D01*
X263110Y101814D01*
X263063Y101888D01*
X263017Y101962D01*
X262952Y102137D01*
X262897Y102331D01*
X262869Y102526D01*
X262851Y102711D01*
X262841Y102785D01*
Y102849D01*
X262832Y102905D01*
Y102951D01*
Y102979D01*
Y102988D01*
Y103117D01*
X262841Y103247D01*
X262860Y103358D01*
X262878Y103469D01*
X262897Y103561D01*
X262915Y103644D01*
X262971Y103792D01*
X263017Y103903D01*
X263063Y103977D01*
X263091Y104023D01*
X263100Y104042D01*
X263211Y104153D01*
X263332Y104227D01*
X263452Y104282D01*
X263563Y104328D01*
X263674Y104347D01*
X263757Y104356D01*
X263812Y104366D01*
X263831D01*
X263951Y104356D01*
X264062Y104338D01*
X264154Y104310D01*
X264238Y104273D01*
X264302Y104236D01*
X264349Y104208D01*
X264376Y104190D01*
X264386Y104180D01*
X264459Y104107D01*
X264524Y104023D01*
X264571Y103931D01*
X264617Y103848D01*
X264644Y103764D01*
X264663Y103700D01*
X264672Y103663D01*
Y103644D01*
X265883Y103866D01*
X265791Y104125D01*
X265680Y104347D01*
X265560Y104532D01*
X265440Y104689D01*
X265329Y104809D01*
X265245Y104892D01*
X265208Y104920D01*
X265181Y104939D01*
X265171Y104957D01*
X265162D01*
X264959Y105077D01*
X264737Y105170D01*
X264515Y105234D01*
X264302Y105281D01*
X264201Y105299D01*
X264108Y105309D01*
X264025Y105318D01*
X263951D01*
X263895Y105327D01*
D02*
G37*
G36*
X250970D02*
X250887D01*
X250702Y105318D01*
X250526Y105299D01*
X250351Y105272D01*
X250203Y105225D01*
X250055Y105179D01*
X249916Y105124D01*
X249796Y105068D01*
X249685Y105003D01*
X249583Y104948D01*
X249500Y104883D01*
X249426Y104828D01*
X249361Y104782D01*
X249315Y104735D01*
X249278Y104707D01*
X249260Y104689D01*
X249251Y104680D01*
X249149Y104550D01*
X249056Y104421D01*
X248973Y104282D01*
X248899Y104134D01*
X248844Y103986D01*
X248797Y103839D01*
X248724Y103552D01*
X248696Y103413D01*
X248677Y103293D01*
X248668Y103182D01*
X248659Y103080D01*
X248650Y103006D01*
Y102942D01*
Y102905D01*
Y102895D01*
X248659Y102692D01*
X248677Y102489D01*
X248705Y102313D01*
X248742Y102137D01*
X248788Y101980D01*
X248844Y101832D01*
X248890Y101703D01*
X248955Y101582D01*
X249010Y101472D01*
X249056Y101379D01*
X249112Y101305D01*
X249158Y101240D01*
X249195Y101185D01*
X249223Y101148D01*
X249241Y101130D01*
X249251Y101120D01*
X249371Y101009D01*
X249491Y100908D01*
X249620Y100824D01*
X249759Y100750D01*
X249888Y100686D01*
X250027Y100639D01*
X250157Y100593D01*
X250286Y100566D01*
X250406Y100538D01*
X250517Y100519D01*
X250619Y100501D01*
X250702Y100492D01*
X250767Y100482D01*
X250868D01*
X251035Y100492D01*
X251183Y100501D01*
X251331Y100519D01*
X251469Y100547D01*
X251599Y100575D01*
X251710Y100612D01*
X251821Y100649D01*
X251913Y100695D01*
X252006Y100732D01*
X252080Y100769D01*
X252144Y100806D01*
X252200Y100834D01*
X252237Y100861D01*
X252265Y100880D01*
X252283Y100898D01*
X252292D01*
X252385Y100982D01*
X252477Y101074D01*
X252634Y101277D01*
X252764Y101481D01*
X252856Y101684D01*
X252930Y101869D01*
X252958Y101952D01*
X252986Y102017D01*
X253004Y102072D01*
X253013Y102119D01*
X253023Y102147D01*
Y102156D01*
X251821Y102359D01*
X251784Y102193D01*
X251728Y102045D01*
X251682Y101925D01*
X251627Y101832D01*
X251571Y101758D01*
X251534Y101712D01*
X251506Y101684D01*
X251497Y101675D01*
X251405Y101610D01*
X251312Y101564D01*
X251220Y101527D01*
X251127Y101509D01*
X251044Y101490D01*
X250979Y101481D01*
X250924D01*
X250758Y101499D01*
X250610Y101536D01*
X250489Y101582D01*
X250378Y101647D01*
X250295Y101712D01*
X250240Y101758D01*
X250194Y101795D01*
X250184Y101814D01*
X250138Y101888D01*
X250092Y101962D01*
X250027Y102137D01*
X249972Y102331D01*
X249944Y102526D01*
X249925Y102711D01*
X249916Y102785D01*
Y102849D01*
X249907Y102905D01*
Y102951D01*
Y102979D01*
Y102988D01*
Y103117D01*
X249916Y103247D01*
X249935Y103358D01*
X249953Y103469D01*
X249972Y103561D01*
X249990Y103644D01*
X250046Y103792D01*
X250092Y103903D01*
X250138Y103977D01*
X250166Y104023D01*
X250175Y104042D01*
X250286Y104153D01*
X250406Y104227D01*
X250526Y104282D01*
X250637Y104328D01*
X250748Y104347D01*
X250832Y104356D01*
X250887Y104366D01*
X250905D01*
X251026Y104356D01*
X251137Y104338D01*
X251229Y104310D01*
X251312Y104273D01*
X251377Y104236D01*
X251423Y104208D01*
X251451Y104190D01*
X251460Y104180D01*
X251534Y104107D01*
X251599Y104023D01*
X251645Y103931D01*
X251691Y103848D01*
X251719Y103764D01*
X251738Y103700D01*
X251747Y103663D01*
Y103644D01*
X252958Y103866D01*
X252866Y104125D01*
X252755Y104347D01*
X252634Y104532D01*
X252514Y104689D01*
X252403Y104809D01*
X252320Y104892D01*
X252283Y104920D01*
X252255Y104939D01*
X252246Y104957D01*
X252237D01*
X252033Y105077D01*
X251812Y105170D01*
X251590Y105234D01*
X251377Y105281D01*
X251275Y105299D01*
X251183Y105309D01*
X251100Y105318D01*
X251026D01*
X250970Y105327D01*
D02*
G37*
G36*
X229761Y106982D02*
X228531D01*
Y105845D01*
X229761D01*
Y106982D01*
D02*
G37*
G36*
X277579Y105327D02*
X277496D01*
X277348Y105318D01*
X277209Y105299D01*
X277080Y105272D01*
X276969Y105234D01*
X276876Y105198D01*
X276802Y105170D01*
X276756Y105151D01*
X276738Y105142D01*
X276608Y105068D01*
X276488Y104976D01*
X276377Y104883D01*
X276275Y104791D01*
X276192Y104707D01*
X276137Y104643D01*
X276100Y104597D01*
X276081Y104578D01*
X275998Y104707D01*
X275906Y104828D01*
X275813Y104920D01*
X275730Y105003D01*
X275656Y105068D01*
X275591Y105105D01*
X275554Y105133D01*
X275536Y105142D01*
X275406Y105207D01*
X275277Y105253D01*
X275147Y105281D01*
X275027Y105309D01*
X274925Y105318D01*
X274842Y105327D01*
X274768D01*
X274611Y105318D01*
X274463Y105299D01*
X274325Y105262D01*
X274186Y105216D01*
X273946Y105096D01*
X273835Y105022D01*
X273733Y104957D01*
X273640Y104892D01*
X273557Y104818D01*
X273493Y104763D01*
X273437Y104707D01*
X273391Y104652D01*
X273354Y104615D01*
X273335Y104597D01*
X273326Y104587D01*
Y105225D01*
X272198D01*
Y100584D01*
X273428D01*
Y102831D01*
Y103062D01*
X273446Y103265D01*
X273456Y103422D01*
X273474Y103561D01*
X273493Y103653D01*
X273502Y103728D01*
X273520Y103774D01*
Y103783D01*
X273566Y103885D01*
X273613Y103977D01*
X273668Y104051D01*
X273724Y104116D01*
X273770Y104162D01*
X273807Y104199D01*
X273835Y104218D01*
X273844Y104227D01*
X273936Y104282D01*
X274020Y104319D01*
X274103Y104347D01*
X274186Y104366D01*
X274251Y104375D01*
X274306Y104384D01*
X274436D01*
X274510Y104366D01*
X274574Y104356D01*
X274630Y104338D01*
X274667Y104319D01*
X274694Y104301D01*
X274713Y104291D01*
X274722Y104282D01*
X274768Y104245D01*
X274815Y104199D01*
X274879Y104097D01*
X274898Y104060D01*
X274916Y104023D01*
X274925Y103996D01*
Y103986D01*
X274935Y103949D01*
X274953Y103894D01*
X274972Y103764D01*
X274981Y103626D01*
X274990Y103478D01*
X275000Y103339D01*
Y103228D01*
Y103182D01*
Y103145D01*
Y103126D01*
Y103117D01*
Y100584D01*
X276229D01*
Y102803D01*
Y103034D01*
X276248Y103228D01*
X276257Y103395D01*
X276275Y103533D01*
X276294Y103635D01*
X276303Y103709D01*
X276322Y103746D01*
Y103764D01*
X276368Y103875D01*
X276414Y103968D01*
X276470Y104042D01*
X276525Y104107D01*
X276571Y104162D01*
X276608Y104199D01*
X276636Y104218D01*
X276645Y104227D01*
X276728Y104282D01*
X276821Y104319D01*
X276904Y104347D01*
X276978Y104366D01*
X277043Y104375D01*
X277089Y104384D01*
X277135D01*
X277255Y104375D01*
X277366Y104347D01*
X277459Y104301D01*
X277533Y104255D01*
X277588Y104199D01*
X277625Y104162D01*
X277653Y104125D01*
X277662Y104116D01*
X277681Y104070D01*
X277708Y104023D01*
X277736Y103894D01*
X277764Y103746D01*
X277773Y103598D01*
X277782Y103459D01*
X277792Y103339D01*
Y103293D01*
Y103256D01*
Y103237D01*
Y103228D01*
Y100584D01*
X279021D01*
Y103543D01*
X279012Y103774D01*
X279003Y103977D01*
X278984Y104144D01*
X278957Y104273D01*
X278929Y104375D01*
X278910Y104449D01*
X278901Y104495D01*
X278892Y104504D01*
X278818Y104652D01*
X278735Y104772D01*
X278642Y104874D01*
X278559Y104966D01*
X278476Y105031D01*
X278411Y105077D01*
X278374Y105105D01*
X278356Y105114D01*
X278217Y105188D01*
X278069Y105234D01*
X277930Y105272D01*
X277792Y105299D01*
X277672Y105318D01*
X277579Y105327D01*
D02*
G37*
G36*
X224750Y106982D02*
X223520D01*
Y100584D01*
X224750D01*
Y102063D01*
X225304Y102664D01*
X226479Y100584D01*
X227801D01*
X226099Y103524D01*
X227690Y105225D01*
X226183D01*
X224750Y103589D01*
Y106982D01*
D02*
G37*
G36*
X269027Y105327D02*
X268925D01*
X268675Y105318D01*
X268444Y105281D01*
X268232Y105234D01*
X268047Y105179D01*
X267973Y105142D01*
X267899Y105114D01*
X267834Y105096D01*
X267788Y105068D01*
X267742Y105050D01*
X267714Y105031D01*
X267696Y105022D01*
X267686D01*
X267492Y104892D01*
X267326Y104754D01*
X267178Y104606D01*
X267057Y104467D01*
X266965Y104338D01*
X266891Y104236D01*
X266863Y104199D01*
X266854Y104171D01*
X266836Y104153D01*
Y104144D01*
X266734Y103931D01*
X266669Y103718D01*
X266614Y103524D01*
X266577Y103348D01*
X266558Y103191D01*
X266549Y103126D01*
Y103071D01*
X266540Y103034D01*
Y102997D01*
Y102979D01*
Y102969D01*
X266549Y102683D01*
X266586Y102415D01*
X266632Y102184D01*
X266660Y102082D01*
X266688Y101989D01*
X266715Y101906D01*
X266743Y101832D01*
X266771Y101767D01*
X266789Y101712D01*
X266808Y101666D01*
X266826Y101638D01*
X266836Y101620D01*
Y101610D01*
X266965Y101416D01*
X267104Y101250D01*
X267252Y101102D01*
X267390Y100982D01*
X267520Y100889D01*
X267621Y100824D01*
X267659Y100797D01*
X267686Y100778D01*
X267705Y100769D01*
X267714D01*
X267936Y100676D01*
X268148Y100603D01*
X268352Y100556D01*
X268546Y100519D01*
X268703Y100501D01*
X268768Y100492D01*
X268823D01*
X268870Y100482D01*
X268934D01*
X269128Y100492D01*
X269304Y100510D01*
X269480Y100547D01*
X269637Y100593D01*
X269794Y100639D01*
X269933Y100695D01*
X270062Y100760D01*
X270182Y100824D01*
X270284Y100889D01*
X270377Y100954D01*
X270460Y101009D01*
X270525Y101055D01*
X270580Y101102D01*
X270617Y101139D01*
X270636Y101157D01*
X270645Y101166D01*
X270765Y101305D01*
X270867Y101444D01*
X270959Y101582D01*
X271042Y101730D01*
X271107Y101878D01*
X271163Y102026D01*
X271209Y102165D01*
X271246Y102304D01*
X271273Y102424D01*
X271292Y102544D01*
X271311Y102646D01*
X271320Y102738D01*
X271329Y102812D01*
Y102868D01*
Y102905D01*
Y102914D01*
X271320Y103108D01*
X271301Y103293D01*
X271264Y103459D01*
X271227Y103626D01*
X271172Y103774D01*
X271116Y103922D01*
X271052Y104051D01*
X270996Y104171D01*
X270931Y104273D01*
X270867Y104375D01*
X270811Y104449D01*
X270756Y104523D01*
X270719Y104569D01*
X270682Y104615D01*
X270663Y104634D01*
X270654Y104643D01*
X270525Y104763D01*
X270386Y104865D01*
X270247Y104957D01*
X270099Y105040D01*
X269951Y105105D01*
X269813Y105161D01*
X269674Y105207D01*
X269535Y105244D01*
X269415Y105272D01*
X269295Y105290D01*
X269193Y105309D01*
X269101Y105318D01*
X269027Y105327D01*
D02*
G37*
G36*
X245811D02*
X245709D01*
X245543Y105318D01*
X245386Y105299D01*
X245229Y105262D01*
X245090Y105225D01*
X244951Y105179D01*
X244831Y105124D01*
X244711Y105059D01*
X244609Y105003D01*
X244517Y104939D01*
X244433Y104874D01*
X244360Y104818D01*
X244304Y104772D01*
X244258Y104735D01*
X244221Y104698D01*
X244202Y104680D01*
X244193Y104671D01*
X244091Y104541D01*
X243999Y104402D01*
X243916Y104264D01*
X243842Y104116D01*
X243786Y103959D01*
X243740Y103811D01*
X243666Y103524D01*
X243638Y103385D01*
X243620Y103265D01*
X243611Y103154D01*
X243601Y103062D01*
X243592Y102979D01*
Y102914D01*
Y102877D01*
Y102868D01*
X243601Y102692D01*
X243611Y102516D01*
X243638Y102359D01*
X243666Y102211D01*
X243694Y102063D01*
X243740Y101934D01*
X243777Y101814D01*
X243823Y101703D01*
X243860Y101601D01*
X243906Y101518D01*
X243944Y101444D01*
X243971Y101379D01*
X244008Y101333D01*
X244027Y101296D01*
X244036Y101277D01*
X244045Y101268D01*
X244165Y101130D01*
X244286Y101009D01*
X244424Y100908D01*
X244572Y100815D01*
X244720Y100741D01*
X244868Y100676D01*
X245016Y100621D01*
X245164Y100584D01*
X245293Y100547D01*
X245423Y100528D01*
X245543Y100510D01*
X245645Y100492D01*
X245728D01*
X245783Y100482D01*
X245839D01*
X246107Y100501D01*
X246357Y100538D01*
X246569Y100593D01*
X246754Y100658D01*
X246837Y100695D01*
X246902Y100723D01*
X246967Y100750D01*
X247013Y100778D01*
X247050Y100806D01*
X247087Y100815D01*
X247096Y100834D01*
X247106D01*
X247281Y100982D01*
X247438Y101139D01*
X247568Y101314D01*
X247670Y101481D01*
X247753Y101629D01*
X247780Y101693D01*
X247808Y101749D01*
X247827Y101795D01*
X247845Y101832D01*
X247854Y101851D01*
Y101860D01*
X246634Y102063D01*
X246588Y101943D01*
X246542Y101832D01*
X246495Y101749D01*
X246440Y101675D01*
X246403Y101620D01*
X246366Y101582D01*
X246338Y101564D01*
X246329Y101555D01*
X246255Y101499D01*
X246172Y101462D01*
X246089Y101435D01*
X246014Y101416D01*
X245950Y101407D01*
X245894Y101398D01*
X245848D01*
X245700Y101407D01*
X245562Y101444D01*
X245432Y101490D01*
X245330Y101545D01*
X245247Y101601D01*
X245192Y101647D01*
X245145Y101684D01*
X245136Y101693D01*
X245044Y101814D01*
X244979Y101952D01*
X244924Y102100D01*
X244887Y102230D01*
X244868Y102359D01*
X244859Y102452D01*
X244850Y102489D01*
Y102516D01*
Y102535D01*
Y102544D01*
X247919D01*
Y102803D01*
X247901Y103034D01*
X247873Y103256D01*
X247836Y103459D01*
X247790Y103653D01*
X247743Y103820D01*
X247688Y103977D01*
X247633Y104116D01*
X247577Y104236D01*
X247522Y104347D01*
X247475Y104430D01*
X247429Y104504D01*
X247392Y104560D01*
X247364Y104606D01*
X247346Y104624D01*
X247337Y104634D01*
X247226Y104754D01*
X247096Y104865D01*
X246967Y104957D01*
X246837Y105031D01*
X246699Y105105D01*
X246560Y105161D01*
X246431Y105207D01*
X246301Y105244D01*
X246181Y105272D01*
X246070Y105290D01*
X245968Y105309D01*
X245885Y105318D01*
X245811Y105327D01*
D02*
G37*
G36*
X260586Y101814D02*
X259356D01*
Y100584D01*
X260586D01*
Y101814D01*
D02*
G37*
G36*
X255112Y106982D02*
X253883D01*
Y100584D01*
X255112D01*
Y102905D01*
X255121Y103108D01*
X255131Y103284D01*
X255149Y103441D01*
X255168Y103561D01*
X255186Y103663D01*
X255205Y103728D01*
X255223Y103774D01*
Y103783D01*
X255269Y103885D01*
X255325Y103977D01*
X255380Y104051D01*
X255445Y104116D01*
X255491Y104162D01*
X255537Y104199D01*
X255565Y104218D01*
X255574Y104227D01*
X255667Y104282D01*
X255759Y104319D01*
X255852Y104347D01*
X255935Y104366D01*
X256009Y104375D01*
X256064Y104384D01*
X256120D01*
X256212Y104375D01*
X256305Y104366D01*
X256379Y104347D01*
X256444Y104328D01*
X256490Y104301D01*
X256536Y104282D01*
X256555Y104273D01*
X256564Y104264D01*
X256628Y104218D01*
X256675Y104162D01*
X256758Y104060D01*
X256776Y104014D01*
X256795Y103986D01*
X256813Y103959D01*
Y103949D01*
X256823Y103903D01*
X256841Y103857D01*
X256860Y103728D01*
X256869Y103570D01*
X256878Y103413D01*
X256887Y103265D01*
Y103201D01*
Y103145D01*
Y103090D01*
Y103053D01*
Y103034D01*
Y103025D01*
Y100584D01*
X258117D01*
Y103302D01*
Y103524D01*
X258108Y103709D01*
X258099Y103866D01*
X258089Y103996D01*
X258071Y104088D01*
X258062Y104162D01*
X258052Y104208D01*
Y104218D01*
X258025Y104328D01*
X257988Y104430D01*
X257951Y104523D01*
X257904Y104606D01*
X257867Y104671D01*
X257840Y104717D01*
X257821Y104754D01*
X257812Y104763D01*
X257738Y104846D01*
X257655Y104929D01*
X257572Y104994D01*
X257488Y105050D01*
X257414Y105096D01*
X257350Y105133D01*
X257313Y105151D01*
X257294Y105161D01*
X257165Y105216D01*
X257026Y105253D01*
X256906Y105290D01*
X256786Y105309D01*
X256684Y105318D01*
X256601Y105327D01*
X256527D01*
X256379Y105318D01*
X256231Y105299D01*
X256092Y105262D01*
X255963Y105216D01*
X255722Y105105D01*
X255611Y105040D01*
X255510Y104976D01*
X255427Y104902D01*
X255343Y104837D01*
X255279Y104782D01*
X255214Y104726D01*
X255177Y104680D01*
X255140Y104643D01*
X255121Y104624D01*
X255112Y104615D01*
Y106982D01*
D02*
G37*
G36*
X229761Y105225D02*
X228531D01*
Y100584D01*
X229761D01*
Y105225D01*
D02*
G37*
G36*
X242261Y106871D02*
X241031Y106150D01*
Y105225D01*
X240467D01*
Y104245D01*
X241031D01*
Y102220D01*
Y102100D01*
Y101999D01*
Y101897D01*
X241040Y101814D01*
Y101666D01*
X241050Y101545D01*
X241059Y101453D01*
Y101398D01*
X241068Y101361D01*
Y101351D01*
X241087Y101250D01*
X241114Y101157D01*
X241142Y101074D01*
X241170Y101009D01*
X241198Y100954D01*
X241216Y100917D01*
X241225Y100889D01*
X241235Y100880D01*
X241290Y100815D01*
X241355Y100760D01*
X241484Y100667D01*
X241540Y100639D01*
X241586Y100612D01*
X241623Y100603D01*
X241632Y100593D01*
X241734Y100556D01*
X241835Y100528D01*
X241937Y100510D01*
X242030Y100501D01*
X242113Y100492D01*
X242178Y100482D01*
X242233D01*
X242427Y100492D01*
X242612Y100510D01*
X242779Y100538D01*
X242917Y100575D01*
X243037Y100603D01*
X243130Y100630D01*
X243185Y100649D01*
X243195Y100658D01*
X243204D01*
X243093Y101610D01*
X242982Y101573D01*
X242880Y101545D01*
X242797Y101527D01*
X242723Y101518D01*
X242668Y101509D01*
X242631Y101499D01*
X242594D01*
X242511Y101509D01*
X242446Y101527D01*
X242409Y101545D01*
X242390Y101555D01*
X242335Y101610D01*
X242307Y101657D01*
X242289Y101693D01*
X242279Y101712D01*
Y101730D01*
X242270Y101767D01*
Y101851D01*
Y101962D01*
X242261Y102072D01*
Y102184D01*
Y102276D01*
Y102313D01*
Y102341D01*
Y102359D01*
Y102368D01*
Y104245D01*
X243102D01*
Y105225D01*
X242261D01*
Y106871D01*
D02*
G37*
G36*
X232886Y105327D02*
X232784D01*
X232618Y105318D01*
X232460Y105299D01*
X232303Y105262D01*
X232165Y105225D01*
X232026Y105179D01*
X231906Y105124D01*
X231786Y105059D01*
X231684Y105003D01*
X231591Y104939D01*
X231508Y104874D01*
X231434Y104818D01*
X231379Y104772D01*
X231332Y104735D01*
X231296Y104698D01*
X231277Y104680D01*
X231268Y104671D01*
X231166Y104541D01*
X231074Y104402D01*
X230990Y104264D01*
X230917Y104116D01*
X230861Y103959D01*
X230815Y103811D01*
X230741Y103524D01*
X230713Y103385D01*
X230695Y103265D01*
X230685Y103154D01*
X230676Y103062D01*
X230667Y102979D01*
Y102914D01*
Y102877D01*
Y102868D01*
X230676Y102692D01*
X230685Y102516D01*
X230713Y102359D01*
X230741Y102211D01*
X230769Y102063D01*
X230815Y101934D01*
X230852Y101814D01*
X230898Y101703D01*
X230935Y101601D01*
X230981Y101518D01*
X231018Y101444D01*
X231046Y101379D01*
X231083Y101333D01*
X231101Y101296D01*
X231111Y101277D01*
X231120Y101268D01*
X231240Y101130D01*
X231360Y101009D01*
X231499Y100908D01*
X231647Y100815D01*
X231795Y100741D01*
X231943Y100676D01*
X232091Y100621D01*
X232239Y100584D01*
X232368Y100547D01*
X232498Y100528D01*
X232618Y100510D01*
X232719Y100492D01*
X232803D01*
X232858Y100482D01*
X232913D01*
X233182Y100501D01*
X233431Y100538D01*
X233644Y100593D01*
X233829Y100658D01*
X233912Y100695D01*
X233977Y100723D01*
X234042Y100750D01*
X234088Y100778D01*
X234125Y100806D01*
X234162Y100815D01*
X234171Y100834D01*
X234180D01*
X234356Y100982D01*
X234513Y101139D01*
X234643Y101314D01*
X234744Y101481D01*
X234827Y101629D01*
X234855Y101693D01*
X234883Y101749D01*
X234901Y101795D01*
X234920Y101832D01*
X234929Y101851D01*
Y101860D01*
X233709Y102063D01*
X233662Y101943D01*
X233616Y101832D01*
X233570Y101749D01*
X233514Y101675D01*
X233477Y101620D01*
X233440Y101582D01*
X233413Y101564D01*
X233403Y101555D01*
X233330Y101499D01*
X233246Y101462D01*
X233163Y101435D01*
X233089Y101416D01*
X233025Y101407D01*
X232969Y101398D01*
X232923D01*
X232775Y101407D01*
X232636Y101444D01*
X232507Y101490D01*
X232405Y101545D01*
X232322Y101601D01*
X232266Y101647D01*
X232220Y101684D01*
X232211Y101693D01*
X232118Y101814D01*
X232054Y101952D01*
X231998Y102100D01*
X231961Y102230D01*
X231943Y102359D01*
X231933Y102452D01*
X231924Y102489D01*
Y102516D01*
Y102535D01*
Y102544D01*
X234994D01*
Y102803D01*
X234975Y103034D01*
X234948Y103256D01*
X234911Y103459D01*
X234864Y103653D01*
X234818Y103820D01*
X234763Y103977D01*
X234707Y104116D01*
X234652Y104236D01*
X234596Y104347D01*
X234550Y104430D01*
X234504Y104504D01*
X234467Y104560D01*
X234439Y104606D01*
X234421Y104624D01*
X234411Y104634D01*
X234300Y104754D01*
X234171Y104865D01*
X234042Y104957D01*
X233912Y105031D01*
X233773Y105105D01*
X233635Y105161D01*
X233505Y105207D01*
X233376Y105244D01*
X233256Y105272D01*
X233145Y105290D01*
X233043Y105309D01*
X232960Y105318D01*
X232886Y105327D01*
D02*
G37*
%LPD*%
G36*
X269110Y104310D02*
X269267Y104273D01*
X269397Y104208D01*
X269517Y104144D01*
X269609Y104079D01*
X269683Y104014D01*
X269720Y103977D01*
X269739Y103959D01*
X269850Y103811D01*
X269933Y103635D01*
X269988Y103459D01*
X270035Y103293D01*
X270053Y103145D01*
X270062Y103071D01*
Y103016D01*
X270072Y102969D01*
Y102932D01*
Y102914D01*
Y102905D01*
X270053Y102664D01*
X270016Y102442D01*
X269970Y102267D01*
X269905Y102109D01*
X269841Y101999D01*
X269794Y101906D01*
X269757Y101860D01*
X269739Y101841D01*
X269609Y101721D01*
X269480Y101629D01*
X269341Y101573D01*
X269212Y101527D01*
X269101Y101499D01*
X269018Y101490D01*
X268981Y101481D01*
X268934D01*
X268759Y101499D01*
X268601Y101536D01*
X268463Y101592D01*
X268352Y101666D01*
X268250Y101730D01*
X268176Y101786D01*
X268139Y101823D01*
X268121Y101841D01*
X268010Y101989D01*
X267936Y102165D01*
X267880Y102341D01*
X267834Y102516D01*
X267816Y102664D01*
X267806Y102729D01*
Y102794D01*
X267797Y102840D01*
Y102877D01*
Y102895D01*
Y102905D01*
X267816Y103145D01*
X267853Y103358D01*
X267899Y103543D01*
X267964Y103691D01*
X268019Y103801D01*
X268074Y103894D01*
X268111Y103940D01*
X268121Y103959D01*
X268250Y104079D01*
X268389Y104171D01*
X268528Y104236D01*
X268657Y104282D01*
X268768Y104310D01*
X268851Y104319D01*
X268888Y104328D01*
X268934D01*
X269110Y104310D01*
D02*
G37*
G36*
X245922Y104375D02*
X246042Y104338D01*
X246153Y104291D01*
X246246Y104245D01*
X246320Y104190D01*
X246375Y104144D01*
X246412Y104107D01*
X246421Y104097D01*
X246505Y103986D01*
X246579Y103857D01*
X246625Y103718D01*
X246662Y103589D01*
X246680Y103478D01*
X246689Y103376D01*
X246699Y103339D01*
Y103321D01*
Y103302D01*
Y103293D01*
X244868D01*
X244877Y103469D01*
X244905Y103626D01*
X244942Y103764D01*
X244998Y103875D01*
X245044Y103968D01*
X245090Y104033D01*
X245118Y104079D01*
X245127Y104088D01*
X245229Y104190D01*
X245340Y104264D01*
X245451Y104310D01*
X245552Y104347D01*
X245645Y104366D01*
X245719Y104384D01*
X245783D01*
X245922Y104375D01*
D02*
G37*
G36*
X232997D02*
X233117Y104338D01*
X233228Y104291D01*
X233320Y104245D01*
X233394Y104190D01*
X233450Y104144D01*
X233487Y104107D01*
X233496Y104097D01*
X233579Y103986D01*
X233653Y103857D01*
X233699Y103718D01*
X233736Y103589D01*
X233755Y103478D01*
X233764Y103376D01*
X233773Y103339D01*
Y103321D01*
Y103302D01*
Y103293D01*
X231943D01*
X231952Y103469D01*
X231980Y103626D01*
X232017Y103764D01*
X232072Y103875D01*
X232118Y103968D01*
X232165Y104033D01*
X232192Y104079D01*
X232202Y104088D01*
X232303Y104190D01*
X232414Y104264D01*
X232525Y104310D01*
X232627Y104347D01*
X232719Y104366D01*
X232793Y104384D01*
X232858D01*
X232997Y104375D01*
D02*
G37*
%LPC*%
G36*
X262176Y120989D02*
X262083D01*
X261917Y120980D01*
X261760Y120961D01*
X261603Y120924D01*
X261464Y120887D01*
X261334Y120832D01*
X261214Y120776D01*
X261113Y120721D01*
X261011Y120656D01*
X260928Y120591D01*
X260844Y120536D01*
X260780Y120480D01*
X260734Y120425D01*
X260687Y120388D01*
X260660Y120351D01*
X260641Y120332D01*
X260632Y120323D01*
X260521Y120166D01*
X260428Y119981D01*
X260345Y119787D01*
X260271Y119584D01*
X260216Y119371D01*
X260160Y119149D01*
X260123Y118936D01*
X260086Y118724D01*
X260068Y118520D01*
X260049Y118336D01*
X260031Y118160D01*
X260022Y118012D01*
X260012Y117892D01*
Y117799D01*
Y117762D01*
Y117734D01*
Y117725D01*
Y117716D01*
X260022Y117383D01*
X260040Y117078D01*
X260068Y116791D01*
X260105Y116533D01*
X260142Y116301D01*
X260188Y116089D01*
X260243Y115904D01*
X260299Y115737D01*
X260345Y115599D01*
X260401Y115469D01*
X260447Y115368D01*
X260493Y115284D01*
X260521Y115229D01*
X260549Y115183D01*
X260567Y115155D01*
X260576Y115146D01*
X260687Y115016D01*
X260807Y114915D01*
X260928Y114813D01*
X261057Y114739D01*
X261177Y114665D01*
X261307Y114609D01*
X261427Y114563D01*
X261547Y114526D01*
X261658Y114489D01*
X261760Y114471D01*
X261852Y114452D01*
X261926Y114443D01*
X261991D01*
X262046Y114434D01*
X262083D01*
X262250Y114443D01*
X262407Y114461D01*
X262564Y114499D01*
X262703Y114536D01*
X262832Y114582D01*
X262952Y114637D01*
X263054Y114702D01*
X263156Y114767D01*
X263239Y114822D01*
X263322Y114887D01*
X263387Y114942D01*
X263442Y114988D01*
X263479Y115026D01*
X263507Y115063D01*
X263526Y115081D01*
X263535Y115090D01*
X263646Y115247D01*
X263738Y115432D01*
X263831Y115626D01*
X263895Y115839D01*
X263960Y116052D01*
X264007Y116264D01*
X264053Y116486D01*
X264090Y116699D01*
X264108Y116902D01*
X264127Y117087D01*
X264145Y117263D01*
X264154Y117411D01*
X264164Y117531D01*
Y117624D01*
Y117661D01*
Y117688D01*
Y117697D01*
Y117707D01*
X264154Y118040D01*
X264136Y118345D01*
X264108Y118622D01*
X264062Y118881D01*
X264016Y119121D01*
X263969Y119334D01*
X263905Y119528D01*
X263849Y119695D01*
X263794Y119852D01*
X263738Y119972D01*
X263683Y120083D01*
X263637Y120175D01*
X263590Y120240D01*
X263563Y120286D01*
X263544Y120314D01*
X263535Y120323D01*
X263433Y120443D01*
X263322Y120545D01*
X263202Y120628D01*
X263082Y120712D01*
X262962Y120776D01*
X262841Y120822D01*
X262731Y120869D01*
X262610Y120906D01*
X262499Y120934D01*
X262407Y120952D01*
X262314Y120970D01*
X262241Y120980D01*
X262176Y120989D01*
D02*
G37*
G36*
X234596Y120952D02*
X229520D01*
Y119870D01*
X231416D01*
Y114554D01*
X232710D01*
Y119870D01*
X234596D01*
Y120952D01*
D02*
G37*
G36*
X226405D02*
X223520D01*
Y114554D01*
X224814D01*
Y117226D01*
X225230D01*
X225360Y117217D01*
X225471Y117207D01*
X225563Y117189D01*
X225637Y117180D01*
X225683Y117161D01*
X225711Y117152D01*
X225721D01*
X225794Y117115D01*
X225868Y117078D01*
X225933Y117032D01*
X225998Y116995D01*
X226044Y116949D01*
X226081Y116912D01*
X226099Y116893D01*
X226109Y116884D01*
X226146Y116838D01*
X226192Y116791D01*
X226294Y116653D01*
X226405Y116505D01*
X226525Y116338D01*
X226626Y116191D01*
X226673Y116117D01*
X226710Y116061D01*
X226747Y116015D01*
X226775Y115978D01*
X226784Y115950D01*
X226793Y115941D01*
X227717Y114554D01*
X229271D01*
X228485Y115802D01*
X228402Y115932D01*
X228319Y116061D01*
X228244Y116172D01*
X228171Y116274D01*
X228106Y116366D01*
X228050Y116459D01*
X227939Y116597D01*
X227856Y116708D01*
X227801Y116782D01*
X227754Y116828D01*
X227745Y116838D01*
X227644Y116949D01*
X227523Y117050D01*
X227412Y117134D01*
X227302Y117217D01*
X227209Y117282D01*
X227135Y117328D01*
X227080Y117365D01*
X227070Y117374D01*
X227061D01*
X227218Y117402D01*
X227357Y117439D01*
X227486Y117476D01*
X227616Y117522D01*
X227727Y117568D01*
X227828Y117614D01*
X227930Y117661D01*
X228013Y117716D01*
X228087Y117762D01*
X228152Y117809D01*
X228207Y117855D01*
X228244Y117892D01*
X228281Y117919D01*
X228309Y117947D01*
X228319Y117956D01*
X228328Y117966D01*
X228402Y118058D01*
X228466Y118151D01*
X228577Y118354D01*
X228651Y118548D01*
X228697Y118742D01*
X228734Y118909D01*
X228744Y118973D01*
Y119038D01*
X228753Y119084D01*
Y119131D01*
Y119149D01*
Y119158D01*
X228744Y119362D01*
X228707Y119556D01*
X228661Y119722D01*
X228614Y119870D01*
X228559Y119990D01*
X228513Y120083D01*
X228494Y120111D01*
X228476Y120138D01*
X228466Y120148D01*
Y120157D01*
X228355Y120314D01*
X228235Y120443D01*
X228115Y120545D01*
X227995Y120638D01*
X227884Y120693D01*
X227801Y120739D01*
X227745Y120767D01*
X227736Y120776D01*
X227727D01*
X227634Y120804D01*
X227533Y120832D01*
X227302Y120878D01*
X227052Y120906D01*
X226811Y120934D01*
X226691D01*
X226590Y120943D01*
X226488D01*
X226405Y120952D01*
D02*
G37*
G36*
X251553Y115784D02*
X250323D01*
Y114554D01*
X251553D01*
Y115784D01*
D02*
G37*
G36*
X249565Y119195D02*
X248307D01*
X247420Y116819D01*
X247364Y116680D01*
X247327Y116551D01*
X247309Y116505D01*
X247300Y116468D01*
X247290Y116440D01*
Y116431D01*
X247281Y116385D01*
X247263Y116329D01*
X247216Y116191D01*
X247198Y116135D01*
X247180Y116080D01*
X247170Y116042D01*
X247161Y116033D01*
X246911Y116819D01*
X246033Y119195D01*
X244748D01*
X246616Y114554D01*
X247725D01*
X249565Y119195D01*
D02*
G37*
G36*
X259014Y115784D02*
X257784D01*
Y114554D01*
X259014D01*
Y115784D01*
D02*
G37*
G36*
X255685Y120989D02*
X254687D01*
X254594Y120776D01*
X254474Y120582D01*
X254345Y120397D01*
X254215Y120249D01*
X254104Y120129D01*
X254003Y120037D01*
X253966Y120000D01*
X253938Y119972D01*
X253920Y119963D01*
X253910Y119953D01*
X253707Y119805D01*
X253513Y119676D01*
X253337Y119574D01*
X253180Y119500D01*
X253050Y119445D01*
X252958Y119399D01*
X252921Y119389D01*
X252893Y119380D01*
X252884Y119371D01*
X252875D01*
Y118261D01*
X253208Y118391D01*
X253503Y118530D01*
X253642Y118604D01*
X253772Y118687D01*
X253892Y118761D01*
X254003Y118835D01*
X254104Y118909D01*
X254197Y118973D01*
X254271Y119029D01*
X254336Y119084D01*
X254391Y119131D01*
X254428Y119158D01*
X254447Y119177D01*
X254456Y119186D01*
Y114554D01*
X255685D01*
Y120989D01*
D02*
G37*
G36*
X244646Y117494D02*
X242233D01*
Y116264D01*
X244646D01*
Y117494D01*
D02*
G37*
G36*
X238489Y121072D02*
X238378D01*
X238045Y121063D01*
X237749Y121026D01*
X237619Y120998D01*
X237490Y120970D01*
X237370Y120943D01*
X237268Y120915D01*
X237176Y120878D01*
X237083Y120850D01*
X237019Y120822D01*
X236954Y120804D01*
X236908Y120776D01*
X236871Y120767D01*
X236852Y120749D01*
X236843D01*
X236556Y120582D01*
X236436Y120480D01*
X236316Y120388D01*
X236205Y120286D01*
X236103Y120185D01*
X236011Y120083D01*
X235928Y119990D01*
X235863Y119898D01*
X235798Y119815D01*
X235743Y119741D01*
X235697Y119676D01*
X235669Y119621D01*
X235641Y119584D01*
X235632Y119556D01*
X235623Y119547D01*
X235548Y119399D01*
X235484Y119251D01*
X235382Y118946D01*
X235308Y118641D01*
X235262Y118372D01*
X235243Y118243D01*
X235225Y118132D01*
X235216Y118030D01*
Y117938D01*
X235206Y117873D01*
Y117818D01*
Y117781D01*
Y117772D01*
X235225Y117429D01*
X235262Y117115D01*
X235327Y116828D01*
X235354Y116690D01*
X235391Y116569D01*
X235428Y116459D01*
X235456Y116357D01*
X235493Y116274D01*
X235521Y116200D01*
X235539Y116144D01*
X235558Y116098D01*
X235576Y116070D01*
Y116061D01*
X235733Y115784D01*
X235909Y115543D01*
X236094Y115331D01*
X236279Y115164D01*
X236362Y115090D01*
X236445Y115026D01*
X236510Y114970D01*
X236575Y114933D01*
X236621Y114896D01*
X236667Y114868D01*
X236686Y114859D01*
X236695Y114850D01*
X236843Y114776D01*
X236982Y114711D01*
X237287Y114609D01*
X237583Y114536D01*
X237851Y114489D01*
X237980Y114471D01*
X238091Y114452D01*
X238193Y114443D01*
X238285D01*
X238350Y114434D01*
X238452D01*
X238748Y114443D01*
X239025Y114480D01*
X239293Y114526D01*
X239524Y114582D01*
X239626Y114609D01*
X239718Y114637D01*
X239802Y114665D01*
X239876Y114683D01*
X239931Y114702D01*
X239968Y114720D01*
X239996Y114730D01*
X240005D01*
X240282Y114841D01*
X240513Y114961D01*
X240717Y115081D01*
X240893Y115183D01*
X241022Y115275D01*
X241068Y115312D01*
X241114Y115349D01*
X241142Y115377D01*
X241170Y115395D01*
X241188Y115414D01*
Y117984D01*
X238405D01*
Y116902D01*
X239885D01*
Y116080D01*
X239774Y115996D01*
X239654Y115922D01*
X239533Y115858D01*
X239422Y115802D01*
X239330Y115756D01*
X239247Y115719D01*
X239200Y115701D01*
X239191Y115691D01*
X239182D01*
X239034Y115636D01*
X238886Y115599D01*
X238748Y115571D01*
X238627Y115553D01*
X238516Y115543D01*
X238442Y115534D01*
X238368D01*
X238221Y115543D01*
X238073Y115562D01*
X237943Y115590D01*
X237814Y115626D01*
X237583Y115719D01*
X237490Y115765D01*
X237398Y115821D01*
X237314Y115876D01*
X237241Y115922D01*
X237185Y115978D01*
X237129Y116015D01*
X237092Y116052D01*
X237065Y116080D01*
X237046Y116098D01*
X237037Y116107D01*
X236954Y116218D01*
X236871Y116348D01*
X236806Y116477D01*
X236751Y116616D01*
X236658Y116902D01*
X236602Y117180D01*
X236584Y117309D01*
X236565Y117439D01*
X236556Y117540D01*
X236547Y117642D01*
X236538Y117716D01*
Y117781D01*
Y117818D01*
Y117827D01*
X236547Y118021D01*
X236556Y118197D01*
X236584Y118372D01*
X236612Y118530D01*
X236649Y118668D01*
X236695Y118798D01*
X236741Y118918D01*
X236787Y119029D01*
X236824Y119121D01*
X236871Y119205D01*
X236917Y119269D01*
X236954Y119325D01*
X236982Y119371D01*
X237009Y119399D01*
X237019Y119417D01*
X237028Y119426D01*
X237129Y119519D01*
X237231Y119611D01*
X237342Y119676D01*
X237453Y119741D01*
X237564Y119796D01*
X237675Y119843D01*
X237888Y119907D01*
X237989Y119926D01*
X238082Y119944D01*
X238165Y119953D01*
X238239Y119963D01*
X238295Y119972D01*
X238378D01*
X238581Y119963D01*
X238757Y119926D01*
X238914Y119889D01*
X239053Y119833D01*
X239154Y119787D01*
X239237Y119741D01*
X239284Y119704D01*
X239302Y119695D01*
X239432Y119584D01*
X239543Y119463D01*
X239635Y119343D01*
X239700Y119223D01*
X239755Y119112D01*
X239792Y119029D01*
X239811Y118973D01*
X239820Y118964D01*
Y118955D01*
X241105Y119195D01*
X241068Y119353D01*
X241013Y119510D01*
X240957Y119648D01*
X240883Y119778D01*
X240819Y119907D01*
X240745Y120018D01*
X240671Y120120D01*
X240597Y120212D01*
X240523Y120295D01*
X240458Y120370D01*
X240403Y120434D01*
X240347Y120480D01*
X240301Y120517D01*
X240264Y120554D01*
X240245Y120564D01*
X240236Y120573D01*
X240107Y120665D01*
X239968Y120739D01*
X239820Y120804D01*
X239663Y120859D01*
X239358Y120952D01*
X239062Y121007D01*
X238923Y121035D01*
X238794Y121044D01*
X238673Y121054D01*
X238572Y121063D01*
X238489Y121072D01*
D02*
G37*
%LPD*%
G36*
X262167Y119963D02*
X262241Y119953D01*
X262305Y119926D01*
X262361Y119898D01*
X262407Y119870D01*
X262444Y119852D01*
X262463Y119833D01*
X262472Y119824D01*
X262527Y119759D01*
X262583Y119676D01*
X262629Y119584D01*
X262675Y119491D01*
X262703Y119399D01*
X262731Y119325D01*
X262740Y119278D01*
X262749Y119269D01*
Y119260D01*
X262768Y119177D01*
X262786Y119075D01*
X262805Y118955D01*
X262823Y118835D01*
X262841Y118585D01*
X262851Y118326D01*
X262860Y118206D01*
Y118086D01*
X262869Y117984D01*
Y117892D01*
Y117818D01*
Y117753D01*
Y117716D01*
Y117707D01*
Y117503D01*
X262860Y117309D01*
Y117134D01*
X262851Y116976D01*
X262841Y116828D01*
X262832Y116699D01*
X262814Y116579D01*
X262805Y116477D01*
X262795Y116385D01*
X262777Y116311D01*
X262768Y116246D01*
X262758Y116191D01*
X262749Y116153D01*
Y116117D01*
X262740Y116107D01*
Y116098D01*
X262703Y115969D01*
X262657Y115867D01*
X262610Y115774D01*
X262573Y115710D01*
X262536Y115654D01*
X262499Y115617D01*
X262481Y115599D01*
X262472Y115590D01*
X262407Y115543D01*
X262342Y115506D01*
X262278Y115488D01*
X262213Y115469D01*
X262167Y115460D01*
X262120Y115451D01*
X262083D01*
X262000Y115460D01*
X261926Y115469D01*
X261861Y115497D01*
X261806Y115525D01*
X261760Y115543D01*
X261723Y115571D01*
X261704Y115580D01*
X261695Y115590D01*
X261640Y115654D01*
X261584Y115737D01*
X261538Y115830D01*
X261492Y115922D01*
X261464Y116006D01*
X261436Y116080D01*
X261427Y116126D01*
X261418Y116144D01*
X261399Y116237D01*
X261381Y116338D01*
X261362Y116449D01*
X261353Y116569D01*
X261334Y116828D01*
X261325Y117087D01*
X261316Y117207D01*
Y117328D01*
X261307Y117429D01*
Y117522D01*
Y117596D01*
Y117661D01*
Y117697D01*
Y117707D01*
Y117910D01*
X261316Y118104D01*
Y118271D01*
X261325Y118437D01*
X261334Y118576D01*
X261344Y118715D01*
X261353Y118826D01*
X261371Y118936D01*
X261381Y119029D01*
X261390Y119103D01*
X261399Y119168D01*
X261409Y119223D01*
X261418Y119260D01*
Y119297D01*
X261427Y119306D01*
Y119316D01*
X261464Y119445D01*
X261510Y119556D01*
X261547Y119639D01*
X261593Y119713D01*
X261630Y119759D01*
X261658Y119796D01*
X261677Y119815D01*
X261686Y119824D01*
X261751Y119870D01*
X261824Y119907D01*
X261889Y119935D01*
X261954Y119953D01*
X262000Y119963D01*
X262046Y119972D01*
X262083D01*
X262167Y119963D01*
D02*
G37*
G36*
X226377Y119861D02*
X226580D01*
X226663Y119852D01*
X226719D01*
X226747Y119843D01*
X226756D01*
X226867Y119815D01*
X226969Y119778D01*
X227052Y119741D01*
X227117Y119695D01*
X227172Y119648D01*
X227218Y119621D01*
X227237Y119593D01*
X227246Y119584D01*
X227302Y119510D01*
X227348Y119417D01*
X227375Y119334D01*
X227403Y119251D01*
X227412Y119177D01*
X227422Y119121D01*
Y119084D01*
Y119066D01*
X227412Y118964D01*
X227403Y118872D01*
X227375Y118788D01*
X227357Y118715D01*
X227329Y118659D01*
X227302Y118622D01*
X227292Y118594D01*
X227283Y118585D01*
X227227Y118520D01*
X227172Y118465D01*
X227052Y118382D01*
X227006Y118354D01*
X226959Y118336D01*
X226932Y118317D01*
X226922D01*
X226876Y118308D01*
X226802Y118289D01*
X226728Y118280D01*
X226645Y118271D01*
X226451Y118261D01*
X226257Y118252D01*
X226072Y118243D01*
X224814D01*
Y119870D01*
X226294D01*
X226377Y119861D01*
D02*
G37*
%LPC*%
G36*
X143824Y269403D02*
X143713D01*
X143473Y269394D01*
X143233Y269366D01*
X143020Y269320D01*
X142807Y269265D01*
X142622Y269200D01*
X142437Y269126D01*
X142280Y269043D01*
X142132Y268960D01*
X141994Y268876D01*
X141883Y268793D01*
X141781Y268719D01*
X141698Y268655D01*
X141633Y268599D01*
X141587Y268553D01*
X141559Y268525D01*
X141550Y268516D01*
X141402Y268340D01*
X141282Y268155D01*
X141171Y267961D01*
X141078Y267758D01*
X140995Y267545D01*
X140931Y267342D01*
X140875Y267138D01*
X140829Y266944D01*
X140792Y266750D01*
X140773Y266584D01*
X140755Y266426D01*
X140736Y266297D01*
Y266186D01*
X140727Y266103D01*
Y266047D01*
Y266038D01*
Y266029D01*
X140736Y265751D01*
X140764Y265493D01*
X140801Y265243D01*
X140857Y265021D01*
X140912Y264809D01*
X140986Y264605D01*
X141060Y264429D01*
X141134Y264272D01*
X141208Y264124D01*
X141282Y263995D01*
X141356Y263893D01*
X141411Y263801D01*
X141467Y263736D01*
X141504Y263680D01*
X141531Y263653D01*
X141541Y263643D01*
X141698Y263486D01*
X141864Y263357D01*
X142040Y263237D01*
X142216Y263144D01*
X142391Y263061D01*
X142567Y262987D01*
X142733Y262932D01*
X142891Y262885D01*
X143048Y262848D01*
X143186Y262821D01*
X143316Y262802D01*
X143418Y262793D01*
X143510Y262784D01*
X143575Y262774D01*
X143630D01*
X143824Y262784D01*
X144000Y262793D01*
X144176Y262821D01*
X144333Y262858D01*
X144481Y262895D01*
X144620Y262932D01*
X144749Y262978D01*
X144869Y263033D01*
X144971Y263079D01*
X145063Y263126D01*
X145147Y263163D01*
X145211Y263200D01*
X145267Y263237D01*
X145304Y263264D01*
X145322Y263274D01*
X145331Y263283D01*
X145452Y263385D01*
X145562Y263496D01*
X145766Y263745D01*
X145932Y264004D01*
X146062Y264254D01*
X146117Y264374D01*
X146164Y264485D01*
X146201Y264587D01*
X146237Y264670D01*
X146265Y264744D01*
X146284Y264799D01*
X146293Y264836D01*
Y264845D01*
X145035Y265234D01*
X144962Y264984D01*
X144878Y264771D01*
X144795Y264596D01*
X144703Y264448D01*
X144629Y264337D01*
X144564Y264263D01*
X144518Y264217D01*
X144499Y264198D01*
X144351Y264087D01*
X144203Y264013D01*
X144056Y263958D01*
X143926Y263912D01*
X143806Y263893D01*
X143704Y263884D01*
X143667Y263875D01*
X143621D01*
X143491Y263884D01*
X143371Y263893D01*
X143149Y263958D01*
X142955Y264032D01*
X142798Y264133D01*
X142669Y264226D01*
X142576Y264300D01*
X142539Y264337D01*
X142512Y264365D01*
X142502Y264374D01*
X142493Y264383D01*
X142419Y264485D01*
X142354Y264605D01*
X142290Y264734D01*
X142243Y264873D01*
X142169Y265160D01*
X142114Y265446D01*
X142095Y265585D01*
X142086Y265705D01*
X142068Y265826D01*
Y265927D01*
X142058Y266001D01*
Y266066D01*
Y266112D01*
Y266121D01*
X142068Y266334D01*
X142077Y266528D01*
X142095Y266704D01*
X142123Y266870D01*
X142160Y267018D01*
X142197Y267157D01*
X142234Y267277D01*
X142280Y267388D01*
X142317Y267480D01*
X142354Y267564D01*
X142391Y267628D01*
X142428Y267684D01*
X142456Y267730D01*
X142474Y267758D01*
X142493Y267776D01*
Y267785D01*
X142576Y267878D01*
X142669Y267961D01*
X142761Y268026D01*
X142863Y268081D01*
X143057Y268174D01*
X143242Y268239D01*
X143399Y268276D01*
X143473Y268285D01*
X143528Y268294D01*
X143584Y268303D01*
X143649D01*
X143834Y268294D01*
X144000Y268257D01*
X144148Y268211D01*
X144277Y268155D01*
X144379Y268100D01*
X144453Y268054D01*
X144499Y268017D01*
X144518Y268007D01*
X144638Y267896D01*
X144749Y267767D01*
X144832Y267638D01*
X144897Y267508D01*
X144943Y267397D01*
X144971Y267314D01*
X144989Y267277D01*
Y267249D01*
X144999Y267240D01*
Y267231D01*
X146274Y267536D01*
X146182Y267804D01*
X146080Y268035D01*
X145969Y268239D01*
X145868Y268405D01*
X145766Y268534D01*
X145729Y268590D01*
X145692Y268636D01*
X145664Y268664D01*
X145637Y268692D01*
X145627Y268710D01*
X145618D01*
X145479Y268830D01*
X145322Y268941D01*
X145174Y269034D01*
X145017Y269108D01*
X144851Y269182D01*
X144693Y269237D01*
X144536Y269283D01*
X144388Y269320D01*
X144250Y269348D01*
X144120Y269366D01*
X144009Y269385D01*
X143908Y269394D01*
X143824Y269403D01*
D02*
G37*
G36*
X134391Y269288D02*
X129648D01*
Y262890D01*
X134512D01*
Y263972D01*
X130943D01*
Y265710D01*
X134151D01*
Y266792D01*
X130943D01*
Y268206D01*
X134391D01*
Y269288D01*
D02*
G37*
G36*
X154958Y269366D02*
X154875D01*
X154681Y269357D01*
X154506Y269339D01*
X154339Y269302D01*
X154200Y269265D01*
X154089Y269228D01*
X153997Y269191D01*
X153941Y269172D01*
X153932Y269163D01*
X153923D01*
X153775Y269080D01*
X153636Y268988D01*
X153525Y268895D01*
X153433Y268812D01*
X153359Y268729D01*
X153303Y268664D01*
X153266Y268627D01*
X153257Y268608D01*
X153174Y268470D01*
X153100Y268322D01*
X153045Y268165D01*
X152989Y268017D01*
X152952Y267878D01*
X152924Y267776D01*
X152915Y267730D01*
Y267702D01*
X152906Y267684D01*
Y267675D01*
X154034Y267490D01*
X154062Y267638D01*
X154099Y267767D01*
X154136Y267878D01*
X154182Y267961D01*
X154228Y268035D01*
X154265Y268091D01*
X154293Y268118D01*
X154302Y268128D01*
X154385Y268202D01*
X154478Y268257D01*
X154570Y268294D01*
X154653Y268322D01*
X154727Y268340D01*
X154783Y268349D01*
X154838D01*
X154949Y268340D01*
X155060Y268322D01*
X155143Y268285D01*
X155217Y268257D01*
X155282Y268220D01*
X155319Y268183D01*
X155347Y268165D01*
X155356Y268155D01*
X155421Y268081D01*
X155467Y267989D01*
X155504Y267906D01*
X155522Y267822D01*
X155541Y267749D01*
X155550Y267693D01*
Y267656D01*
Y267638D01*
X155541Y267499D01*
X155513Y267379D01*
X155467Y267277D01*
X155421Y267194D01*
X155365Y267120D01*
X155328Y267074D01*
X155291Y267037D01*
X155282Y267027D01*
X155171Y266953D01*
X155051Y266898D01*
X154922Y266861D01*
X154801Y266833D01*
X154690Y266824D01*
X154598Y266815D01*
X154515D01*
X154385Y265826D01*
X154506Y265853D01*
X154607Y265881D01*
X154709Y265899D01*
X154792Y265909D01*
X154857Y265918D01*
X154949D01*
X155079Y265909D01*
X155190Y265872D01*
X155291Y265835D01*
X155384Y265779D01*
X155449Y265733D01*
X155504Y265687D01*
X155541Y265650D01*
X155550Y265641D01*
X155633Y265530D01*
X155698Y265409D01*
X155744Y265289D01*
X155781Y265169D01*
X155800Y265058D01*
X155809Y264975D01*
Y264919D01*
Y264910D01*
Y264901D01*
X155800Y264725D01*
X155772Y264568D01*
X155726Y264429D01*
X155680Y264318D01*
X155624Y264235D01*
X155587Y264170D01*
X155550Y264124D01*
X155541Y264115D01*
X155439Y264023D01*
X155328Y263949D01*
X155227Y263902D01*
X155125Y263865D01*
X155033Y263847D01*
X154968Y263838D01*
X154922Y263828D01*
X154903D01*
X154774Y263838D01*
X154663Y263865D01*
X154561Y263902D01*
X154468Y263949D01*
X154404Y263986D01*
X154348Y264023D01*
X154311Y264050D01*
X154302Y264060D01*
X154219Y264161D01*
X154145Y264272D01*
X154099Y264392D01*
X154052Y264503D01*
X154025Y264605D01*
X154006Y264688D01*
X153997Y264744D01*
Y264753D01*
Y264762D01*
X152814Y264614D01*
X152832Y264466D01*
X152869Y264328D01*
X152952Y264069D01*
X153054Y263847D01*
X153119Y263755D01*
X153174Y263662D01*
X153230Y263579D01*
X153285Y263514D01*
X153331Y263449D01*
X153378Y263403D01*
X153414Y263366D01*
X153442Y263338D01*
X153461Y263320D01*
X153470Y263311D01*
X153581Y263228D01*
X153701Y263144D01*
X153812Y263079D01*
X153941Y263024D01*
X154182Y262932D01*
X154404Y262876D01*
X154515Y262858D01*
X154607Y262839D01*
X154690Y262830D01*
X154764Y262821D01*
X154829Y262811D01*
X154912D01*
X155079Y262821D01*
X155245Y262839D01*
X155393Y262867D01*
X155541Y262904D01*
X155670Y262950D01*
X155800Y262996D01*
X155920Y263052D01*
X156022Y263107D01*
X156114Y263163D01*
X156207Y263218D01*
X156271Y263264D01*
X156336Y263311D01*
X156382Y263348D01*
X156419Y263375D01*
X156438Y263394D01*
X156447Y263403D01*
X156558Y263514D01*
X156650Y263634D01*
X156734Y263755D01*
X156808Y263875D01*
X156863Y264004D01*
X156919Y264124D01*
X156993Y264346D01*
X157011Y264448D01*
X157029Y264550D01*
X157048Y264633D01*
X157057Y264707D01*
X157066Y264762D01*
Y264809D01*
Y264836D01*
Y264845D01*
X157048Y265058D01*
X157011Y265243D01*
X156965Y265419D01*
X156900Y265557D01*
X156835Y265678D01*
X156789Y265761D01*
X156752Y265816D01*
X156734Y265835D01*
X156604Y265973D01*
X156456Y266094D01*
X156308Y266186D01*
X156170Y266260D01*
X156049Y266315D01*
X155948Y266343D01*
X155911Y266362D01*
X155883D01*
X155865Y266371D01*
X155855D01*
X156022Y266473D01*
X156160Y266574D01*
X156281Y266685D01*
X156392Y266796D01*
X156484Y266907D01*
X156558Y267018D01*
X156614Y267129D01*
X156669Y267231D01*
X156706Y267332D01*
X156734Y267425D01*
X156752Y267508D01*
X156761Y267582D01*
X156771Y267638D01*
X156780Y267684D01*
Y267712D01*
Y267721D01*
X156771Y267832D01*
X156761Y267934D01*
X156706Y268137D01*
X156641Y268322D01*
X156558Y268479D01*
X156475Y268608D01*
X156401Y268701D01*
X156373Y268738D01*
X156345Y268766D01*
X156336Y268775D01*
X156327Y268784D01*
X156225Y268886D01*
X156105Y268978D01*
X155994Y269052D01*
X155874Y269117D01*
X155744Y269182D01*
X155624Y269228D01*
X155393Y269293D01*
X155291Y269320D01*
X155190Y269339D01*
X155106Y269348D01*
X155023Y269357D01*
X154958Y269366D01*
D02*
G37*
G36*
X350554Y206561D02*
X350443D01*
X350202Y206551D01*
X349962Y206524D01*
X349749Y206478D01*
X349537Y206422D01*
X349352Y206357D01*
X349167Y206283D01*
X349010Y206200D01*
X348862Y206117D01*
X348723Y206034D01*
X348612Y205951D01*
X348510Y205877D01*
X348427Y205812D01*
X348362Y205756D01*
X348316Y205710D01*
X348288Y205682D01*
X348279Y205673D01*
X348131Y205497D01*
X348011Y205313D01*
X347900Y205119D01*
X347808Y204915D01*
X347724Y204702D01*
X347660Y204499D01*
X347604Y204296D01*
X347558Y204101D01*
X347521Y203907D01*
X347503Y203741D01*
X347484Y203584D01*
X347466Y203454D01*
Y203343D01*
X347456Y203260D01*
Y203205D01*
Y203195D01*
Y203186D01*
X347466Y202909D01*
X347493Y202650D01*
X347530Y202400D01*
X347586Y202178D01*
X347641Y201966D01*
X347715Y201762D01*
X347789Y201587D01*
X347863Y201430D01*
X347937Y201282D01*
X348011Y201152D01*
X348085Y201050D01*
X348140Y200958D01*
X348196Y200893D01*
X348233Y200838D01*
X348261Y200810D01*
X348270Y200801D01*
X348427Y200644D01*
X348593Y200514D01*
X348769Y200394D01*
X348945Y200301D01*
X349120Y200218D01*
X349296Y200144D01*
X349463Y200089D01*
X349620Y200043D01*
X349777Y200006D01*
X349916Y199978D01*
X350045Y199959D01*
X350147Y199950D01*
X350239Y199941D01*
X350304Y199932D01*
X350359D01*
X350554Y199941D01*
X350729Y199950D01*
X350905Y199978D01*
X351062Y200015D01*
X351210Y200052D01*
X351349Y200089D01*
X351478Y200135D01*
X351598Y200191D01*
X351700Y200237D01*
X351792Y200283D01*
X351876Y200320D01*
X351940Y200357D01*
X351996Y200394D01*
X352033Y200422D01*
X352051Y200431D01*
X352061Y200440D01*
X352181Y200542D01*
X352292Y200653D01*
X352495Y200903D01*
X352662Y201161D01*
X352791Y201411D01*
X352846Y201531D01*
X352893Y201642D01*
X352930Y201744D01*
X352967Y201827D01*
X352994Y201901D01*
X353013Y201957D01*
X353022Y201993D01*
Y202003D01*
X351765Y202391D01*
X351691Y202141D01*
X351608Y201929D01*
X351524Y201753D01*
X351432Y201605D01*
X351358Y201494D01*
X351293Y201420D01*
X351247Y201374D01*
X351228Y201355D01*
X351081Y201245D01*
X350933Y201171D01*
X350785Y201115D01*
X350655Y201069D01*
X350535Y201050D01*
X350433Y201041D01*
X350396Y201032D01*
X350350D01*
X350221Y201041D01*
X350101Y201050D01*
X349879Y201115D01*
X349684Y201189D01*
X349527Y201291D01*
X349398Y201383D01*
X349305Y201457D01*
X349268Y201494D01*
X349241Y201522D01*
X349231Y201531D01*
X349222Y201540D01*
X349148Y201642D01*
X349084Y201762D01*
X349019Y201892D01*
X348973Y202030D01*
X348899Y202317D01*
X348843Y202604D01*
X348825Y202742D01*
X348815Y202862D01*
X348797Y202983D01*
Y203084D01*
X348788Y203158D01*
Y203223D01*
Y203269D01*
Y203279D01*
X348797Y203491D01*
X348806Y203685D01*
X348825Y203861D01*
X348852Y204028D01*
X348889Y204175D01*
X348926Y204314D01*
X348963Y204434D01*
X349010Y204545D01*
X349047Y204638D01*
X349084Y204721D01*
X349120Y204786D01*
X349157Y204841D01*
X349185Y204887D01*
X349204Y204915D01*
X349222Y204933D01*
Y204943D01*
X349305Y205035D01*
X349398Y205119D01*
X349490Y205183D01*
X349592Y205239D01*
X349786Y205331D01*
X349971Y205396D01*
X350128Y205433D01*
X350202Y205442D01*
X350258Y205451D01*
X350313Y205460D01*
X350378D01*
X350563Y205451D01*
X350729Y205414D01*
X350877Y205368D01*
X351007Y205313D01*
X351108Y205257D01*
X351182Y205211D01*
X351228Y205174D01*
X351247Y205165D01*
X351367Y205054D01*
X351478Y204924D01*
X351561Y204795D01*
X351626Y204665D01*
X351672Y204555D01*
X351700Y204471D01*
X351718Y204434D01*
Y204407D01*
X351728Y204397D01*
Y204388D01*
X353004Y204693D01*
X352911Y204961D01*
X352809Y205192D01*
X352699Y205396D01*
X352597Y205562D01*
X352495Y205692D01*
X352458Y205747D01*
X352421Y205793D01*
X352393Y205821D01*
X352366Y205849D01*
X352356Y205867D01*
X352347D01*
X352209Y205987D01*
X352051Y206098D01*
X351903Y206191D01*
X351746Y206265D01*
X351580Y206339D01*
X351423Y206394D01*
X351265Y206441D01*
X351118Y206478D01*
X350979Y206505D01*
X350849Y206524D01*
X350738Y206542D01*
X350637Y206551D01*
X350554Y206561D01*
D02*
G37*
G36*
X356998Y206478D02*
X355999D01*
X355907Y206265D01*
X355787Y206071D01*
X355657Y205886D01*
X355528Y205738D01*
X355417Y205618D01*
X355315Y205525D01*
X355278Y205488D01*
X355250Y205460D01*
X355232Y205451D01*
X355223Y205442D01*
X355019Y205294D01*
X354825Y205165D01*
X354649Y205063D01*
X354492Y204989D01*
X354363Y204933D01*
X354270Y204887D01*
X354233Y204878D01*
X354206Y204869D01*
X354196Y204860D01*
X354187D01*
Y203750D01*
X354520Y203880D01*
X354816Y204018D01*
X354954Y204092D01*
X355084Y204175D01*
X355204Y204249D01*
X355315Y204323D01*
X355417Y204397D01*
X355509Y204462D01*
X355583Y204517D01*
X355648Y204573D01*
X355703Y204619D01*
X355740Y204647D01*
X355759Y204665D01*
X355768Y204675D01*
Y200043D01*
X356998D01*
Y206478D01*
D02*
G37*
G36*
X362434Y206468D02*
X361399D01*
X358625Y202391D01*
Y201328D01*
X361251D01*
Y200043D01*
X362434D01*
Y201328D01*
X363229D01*
Y202400D01*
X362434D01*
Y206468D01*
D02*
G37*
G36*
X344082Y206441D02*
X341724D01*
Y200043D01*
X343018D01*
Y202456D01*
X344165D01*
X344304Y202465D01*
X344433D01*
X344553Y202474D01*
X344664Y202484D01*
X344766Y202493D01*
X344849Y202502D01*
X344932D01*
X344997Y202511D01*
X345062Y202520D01*
X345108Y202530D01*
X345145D01*
X345173Y202539D01*
X345191D01*
X345321Y202576D01*
X345441Y202622D01*
X345552Y202668D01*
X345653Y202724D01*
X345737Y202770D01*
X345801Y202807D01*
X345838Y202835D01*
X345857Y202844D01*
X345977Y202936D01*
X346079Y203038D01*
X346180Y203149D01*
X346254Y203242D01*
X346319Y203334D01*
X346365Y203408D01*
X346393Y203454D01*
X346402Y203473D01*
X346476Y203630D01*
X346532Y203796D01*
X346569Y203972D01*
X346596Y204129D01*
X346615Y204259D01*
Y204323D01*
X346624Y204370D01*
Y204416D01*
Y204443D01*
Y204462D01*
Y204471D01*
X346606Y204739D01*
X346569Y204989D01*
X346504Y205192D01*
X346439Y205377D01*
X346402Y205451D01*
X346365Y205516D01*
X346338Y205571D01*
X346301Y205627D01*
X346282Y205664D01*
X346264Y205692D01*
X346245Y205701D01*
Y205710D01*
X346097Y205877D01*
X345949Y206015D01*
X345792Y206126D01*
X345653Y206209D01*
X345524Y206265D01*
X345422Y206311D01*
X345385Y206320D01*
X345358Y206330D01*
X345339Y206339D01*
X345330D01*
X345256Y206357D01*
X345163Y206376D01*
X345052Y206385D01*
X344941Y206394D01*
X344683Y206413D01*
X344424Y206431D01*
X344183D01*
X344082Y206441D01*
D02*
G37*
%LPD*%
G36*
X361251Y202400D02*
X359762D01*
X361251Y204601D01*
Y202400D01*
D02*
G37*
G36*
X344072Y205350D02*
X344156D01*
X344239Y205340D01*
X344359D01*
X344451Y205331D01*
X344516Y205322D01*
X344553Y205313D01*
X344562D01*
X344673Y205285D01*
X344775Y205248D01*
X344868Y205202D01*
X344941Y205146D01*
X344997Y205100D01*
X345043Y205063D01*
X345071Y205035D01*
X345080Y205026D01*
X345154Y204933D01*
X345200Y204841D01*
X345237Y204739D01*
X345265Y204647D01*
X345284Y204564D01*
X345293Y204499D01*
Y204462D01*
Y204443D01*
X345284Y204342D01*
X345274Y204249D01*
X345247Y204166D01*
X345219Y204092D01*
X345191Y204028D01*
X345173Y203981D01*
X345154Y203953D01*
X345145Y203944D01*
X345089Y203870D01*
X345015Y203806D01*
X344951Y203750D01*
X344886Y203704D01*
X344831Y203676D01*
X344784Y203648D01*
X344747Y203639D01*
X344738Y203630D01*
X344683Y203611D01*
X344618Y203602D01*
X344470Y203574D01*
X344304Y203556D01*
X344137Y203547D01*
X343971D01*
X343906Y203538D01*
X343018D01*
Y205359D01*
X343980D01*
X344072Y205350D01*
D02*
G37*
%LPC*%
G36*
X361047Y54078D02*
X361001D01*
X360835Y54068D01*
X360687Y54050D01*
X360539Y54022D01*
X360400Y53985D01*
X360271Y53939D01*
X360150Y53883D01*
X360030Y53837D01*
X359938Y53782D01*
X359845Y53717D01*
X359762Y53671D01*
X359697Y53615D01*
X359633Y53569D01*
X359586Y53532D01*
X359559Y53504D01*
X359540Y53486D01*
X359531Y53477D01*
X359429Y53356D01*
X359346Y53236D01*
X359263Y53107D01*
X359198Y52977D01*
X359143Y52848D01*
X359096Y52709D01*
X359032Y52460D01*
X359004Y52349D01*
X358985Y52238D01*
X358976Y52145D01*
X358967Y52062D01*
X358958Y51988D01*
Y51942D01*
Y51905D01*
Y51896D01*
X358967Y51729D01*
X358985Y51563D01*
X359004Y51406D01*
X359041Y51267D01*
X359087Y51128D01*
X359133Y51008D01*
X359180Y50888D01*
X359235Y50786D01*
X359281Y50694D01*
X359328Y50610D01*
X359374Y50546D01*
X359420Y50481D01*
X359457Y50444D01*
X359476Y50407D01*
X359494Y50389D01*
X359503Y50379D01*
X359605Y50278D01*
X359716Y50185D01*
X359827Y50111D01*
X359938Y50047D01*
X360049Y49991D01*
X360150Y49935D01*
X360354Y49871D01*
X360530Y49825D01*
X360603Y49815D01*
X360668Y49806D01*
X360724Y49797D01*
X360798D01*
X360927Y49806D01*
X361047Y49825D01*
X361158Y49843D01*
X361269Y49880D01*
X361473Y49963D01*
X361639Y50065D01*
X361768Y50167D01*
X361824Y50213D01*
X361870Y50250D01*
X361907Y50287D01*
X361935Y50315D01*
X361944Y50324D01*
X361953Y50333D01*
X361935Y50139D01*
X361916Y49954D01*
X361898Y49788D01*
X361870Y49640D01*
X361842Y49510D01*
X361815Y49390D01*
X361787Y49288D01*
X361759Y49196D01*
X361722Y49113D01*
X361704Y49048D01*
X361676Y48993D01*
X361657Y48955D01*
X361639Y48918D01*
X361620Y48900D01*
X361611Y48882D01*
X361510Y48771D01*
X361399Y48687D01*
X361297Y48623D01*
X361195Y48586D01*
X361103Y48558D01*
X361038Y48549D01*
X360992Y48540D01*
X360973D01*
X360872Y48549D01*
X360770Y48567D01*
X360696Y48595D01*
X360622Y48623D01*
X360566Y48650D01*
X360530Y48678D01*
X360502Y48697D01*
X360493Y48706D01*
X360428Y48780D01*
X360382Y48863D01*
X360345Y48955D01*
X360317Y49048D01*
X360289Y49122D01*
X360280Y49187D01*
X360271Y49233D01*
Y49251D01*
X359087Y49113D01*
X359115Y48965D01*
X359152Y48835D01*
X359189Y48706D01*
X359235Y48595D01*
X359281Y48484D01*
X359328Y48382D01*
X359383Y48299D01*
X359429Y48216D01*
X359485Y48151D01*
X359522Y48086D01*
X359568Y48040D01*
X359605Y47994D01*
X359633Y47966D01*
X359660Y47938D01*
X359670Y47929D01*
X359679Y47920D01*
X359771Y47846D01*
X359864Y47791D01*
X360067Y47689D01*
X360261Y47624D01*
X360456Y47569D01*
X360631Y47541D01*
X360705Y47532D01*
X360770D01*
X360816Y47522D01*
X360890D01*
X361084Y47532D01*
X361260Y47559D01*
X361426Y47596D01*
X361593Y47643D01*
X361741Y47707D01*
X361879Y47772D01*
X362009Y47837D01*
X362120Y47911D01*
X362221Y47985D01*
X362314Y48049D01*
X362388Y48123D01*
X362453Y48179D01*
X362508Y48225D01*
X362545Y48262D01*
X362564Y48290D01*
X362573Y48299D01*
X362693Y48456D01*
X362785Y48632D01*
X362878Y48826D01*
X362952Y49020D01*
X363017Y49233D01*
X363072Y49446D01*
X363109Y49649D01*
X363146Y49862D01*
X363174Y50056D01*
X363192Y50231D01*
X363211Y50398D01*
X363220Y50546D01*
X363229Y50666D01*
Y50758D01*
Y50786D01*
Y50814D01*
Y50823D01*
Y50832D01*
X363220Y51147D01*
X363201Y51433D01*
X363174Y51701D01*
X363128Y51951D01*
X363081Y52173D01*
X363035Y52376D01*
X362970Y52561D01*
X362915Y52728D01*
X362859Y52866D01*
X362804Y52987D01*
X362748Y53088D01*
X362702Y53172D01*
X362656Y53236D01*
X362628Y53282D01*
X362610Y53310D01*
X362601Y53319D01*
X362480Y53449D01*
X362351Y53569D01*
X362221Y53671D01*
X362092Y53754D01*
X361953Y53828D01*
X361824Y53893D01*
X361694Y53939D01*
X361565Y53985D01*
X361454Y54013D01*
X361343Y54041D01*
X361251Y54059D01*
X361167Y54068D01*
X361093D01*
X361047Y54078D01*
D02*
G37*
G36*
X356064Y54041D02*
X354696D01*
X352218Y47643D01*
X353586D01*
X354113Y49094D01*
X356683D01*
X357238Y47643D01*
X358634D01*
X356064Y54041D01*
D02*
G37*
G36*
X349268D02*
X346911D01*
Y47643D01*
X348205D01*
Y50056D01*
X349352D01*
X349490Y50065D01*
X349620D01*
X349740Y50074D01*
X349851Y50083D01*
X349953Y50093D01*
X350036Y50102D01*
X350119D01*
X350184Y50111D01*
X350248Y50120D01*
X350295Y50130D01*
X350332D01*
X350359Y50139D01*
X350378D01*
X350507Y50176D01*
X350628Y50222D01*
X350738Y50268D01*
X350840Y50324D01*
X350923Y50370D01*
X350988Y50407D01*
X351025Y50435D01*
X351044Y50444D01*
X351164Y50536D01*
X351265Y50638D01*
X351367Y50749D01*
X351441Y50842D01*
X351506Y50934D01*
X351552Y51008D01*
X351580Y51054D01*
X351589Y51073D01*
X351663Y51230D01*
X351718Y51396D01*
X351755Y51572D01*
X351783Y51729D01*
X351802Y51859D01*
Y51923D01*
X351811Y51970D01*
Y52016D01*
Y52043D01*
Y52062D01*
Y52071D01*
X351792Y52339D01*
X351755Y52589D01*
X351691Y52792D01*
X351626Y52977D01*
X351589Y53051D01*
X351552Y53116D01*
X351524Y53172D01*
X351487Y53227D01*
X351469Y53264D01*
X351450Y53292D01*
X351432Y53301D01*
Y53310D01*
X351284Y53477D01*
X351136Y53615D01*
X350979Y53726D01*
X350840Y53809D01*
X350711Y53865D01*
X350609Y53911D01*
X350572Y53920D01*
X350544Y53930D01*
X350526Y53939D01*
X350517D01*
X350443Y53957D01*
X350350Y53976D01*
X350239Y53985D01*
X350128Y53994D01*
X349869Y54013D01*
X349610Y54031D01*
X349370D01*
X349268Y54041D01*
D02*
G37*
%LPD*%
G36*
X361075Y53042D02*
X361195Y53005D01*
X361306Y52959D01*
X361399Y52894D01*
X361473Y52829D01*
X361528Y52783D01*
X361565Y52746D01*
X361574Y52728D01*
X361667Y52589D01*
X361731Y52441D01*
X361787Y52284D01*
X361815Y52136D01*
X361833Y51997D01*
X361852Y51896D01*
Y51849D01*
Y51822D01*
Y51803D01*
Y51794D01*
X361842Y51600D01*
X361815Y51433D01*
X361768Y51295D01*
X361731Y51174D01*
X361685Y51091D01*
X361639Y51027D01*
X361611Y50980D01*
X361602Y50971D01*
X361510Y50879D01*
X361408Y50814D01*
X361306Y50758D01*
X361214Y50731D01*
X361130Y50712D01*
X361066Y50703D01*
X361029Y50694D01*
X361010D01*
X360881Y50703D01*
X360761Y50740D01*
X360659Y50786D01*
X360566Y50842D01*
X360493Y50888D01*
X360446Y50934D01*
X360409Y50971D01*
X360400Y50980D01*
X360317Y51101D01*
X360261Y51248D01*
X360215Y51396D01*
X360187Y51554D01*
X360169Y51683D01*
X360160Y51794D01*
Y51840D01*
Y51868D01*
Y51886D01*
Y51896D01*
X360169Y52108D01*
X360197Y52293D01*
X360234Y52450D01*
X360271Y52571D01*
X360308Y52663D01*
X360345Y52728D01*
X360372Y52774D01*
X360382Y52783D01*
X360474Y52876D01*
X360566Y52940D01*
X360659Y52996D01*
X360751Y53024D01*
X360825Y53042D01*
X360890Y53060D01*
X360946D01*
X361075Y53042D01*
D02*
G37*
G36*
X356267Y50176D02*
X354501D01*
X355370Y52552D01*
X356267Y50176D01*
D02*
G37*
G36*
X349259Y52950D02*
X349342D01*
X349426Y52940D01*
X349546D01*
X349638Y52931D01*
X349703Y52922D01*
X349740Y52913D01*
X349749D01*
X349860Y52885D01*
X349962Y52848D01*
X350054Y52802D01*
X350128Y52746D01*
X350184Y52700D01*
X350230Y52663D01*
X350258Y52635D01*
X350267Y52626D01*
X350341Y52533D01*
X350387Y52441D01*
X350424Y52339D01*
X350452Y52247D01*
X350470Y52164D01*
X350480Y52099D01*
Y52062D01*
Y52043D01*
X350470Y51942D01*
X350461Y51849D01*
X350433Y51766D01*
X350406Y51692D01*
X350378Y51627D01*
X350359Y51581D01*
X350341Y51554D01*
X350332Y51544D01*
X350276Y51470D01*
X350202Y51406D01*
X350137Y51350D01*
X350073Y51304D01*
X350017Y51276D01*
X349971Y51248D01*
X349934Y51239D01*
X349925Y51230D01*
X349869Y51211D01*
X349805Y51202D01*
X349657Y51174D01*
X349490Y51156D01*
X349324Y51147D01*
X349157D01*
X349093Y51137D01*
X348205D01*
Y52959D01*
X349167D01*
X349259Y52950D01*
D02*
G37*
%LPC*%
G36*
X59360Y79357D02*
X56115D01*
X55486Y76020D01*
X56475Y75881D01*
X56558Y75964D01*
X56642Y76038D01*
X56725Y76103D01*
X56808Y76158D01*
X56965Y76242D01*
X57113Y76297D01*
X57243Y76325D01*
X57335Y76343D01*
X57372Y76353D01*
X57428D01*
X57575Y76343D01*
X57714Y76306D01*
X57834Y76260D01*
X57936Y76205D01*
X58010Y76140D01*
X58075Y76094D01*
X58112Y76057D01*
X58121Y76047D01*
X58213Y75927D01*
X58278Y75789D01*
X58324Y75641D01*
X58352Y75493D01*
X58380Y75363D01*
X58389Y75262D01*
Y75215D01*
Y75188D01*
Y75169D01*
Y75160D01*
X58380Y74938D01*
X58352Y74744D01*
X58306Y74587D01*
X58260Y74457D01*
X58204Y74346D01*
X58167Y74272D01*
X58130Y74235D01*
X58121Y74217D01*
X58019Y74115D01*
X57908Y74032D01*
X57797Y73976D01*
X57696Y73939D01*
X57603Y73921D01*
X57529Y73912D01*
X57483Y73903D01*
X57464D01*
X57344Y73912D01*
X57224Y73939D01*
X57122Y73976D01*
X57039Y74023D01*
X56965Y74069D01*
X56910Y74106D01*
X56873Y74134D01*
X56863Y74143D01*
X56780Y74245D01*
X56706Y74346D01*
X56651Y74457D01*
X56614Y74559D01*
X56586Y74651D01*
X56568Y74735D01*
X56558Y74781D01*
Y74799D01*
X55338Y74670D01*
X55366Y74522D01*
X55393Y74383D01*
X55486Y74134D01*
X55588Y73912D01*
X55643Y73819D01*
X55708Y73727D01*
X55763Y73653D01*
X55809Y73588D01*
X55865Y73533D01*
X55902Y73477D01*
X55939Y73440D01*
X55967Y73412D01*
X55985Y73403D01*
X55994Y73394D01*
X56105Y73311D01*
X56216Y73237D01*
X56336Y73172D01*
X56457Y73126D01*
X56706Y73033D01*
X56928Y72978D01*
X57039Y72959D01*
X57132Y72950D01*
X57224Y72941D01*
X57298Y72932D01*
X57363Y72922D01*
X57446D01*
X57649Y72932D01*
X57843Y72959D01*
X58019Y72996D01*
X58186Y73052D01*
X58343Y73117D01*
X58481Y73191D01*
X58611Y73264D01*
X58731Y73348D01*
X58833Y73422D01*
X58925Y73496D01*
X59008Y73570D01*
X59073Y73634D01*
X59119Y73690D01*
X59156Y73727D01*
X59175Y73755D01*
X59184Y73764D01*
X59267Y73884D01*
X59341Y74004D01*
X59397Y74124D01*
X59452Y74254D01*
X59535Y74494D01*
X59591Y74716D01*
X59609Y74809D01*
X59619Y74901D01*
X59637Y74984D01*
Y75058D01*
X59646Y75114D01*
Y75151D01*
Y75178D01*
Y75188D01*
X59637Y75363D01*
X59619Y75530D01*
X59591Y75687D01*
X59554Y75835D01*
X59517Y75964D01*
X59461Y76094D01*
X59415Y76214D01*
X59360Y76316D01*
X59304Y76408D01*
X59258Y76491D01*
X59203Y76565D01*
X59166Y76621D01*
X59129Y76667D01*
X59101Y76704D01*
X59082Y76722D01*
X59073Y76732D01*
X58962Y76833D01*
X58851Y76926D01*
X58731Y77009D01*
X58611Y77083D01*
X58500Y77138D01*
X58380Y77185D01*
X58167Y77259D01*
X58065Y77286D01*
X57973Y77305D01*
X57890Y77314D01*
X57825Y77323D01*
X57770Y77333D01*
X57686D01*
X57529Y77323D01*
X57372Y77296D01*
X57233Y77268D01*
X57104Y77231D01*
X57002Y77185D01*
X56919Y77157D01*
X56863Y77129D01*
X56854Y77120D01*
X56845D01*
X57039Y78211D01*
X59360D01*
Y79357D01*
D02*
G37*
G36*
X52333Y79441D02*
X50965D01*
X48487Y73043D01*
X49855D01*
X50382Y74494D01*
X52953D01*
X53507Y73043D01*
X54903D01*
X52333Y79441D01*
D02*
G37*
G36*
X45538D02*
X43180D01*
Y73043D01*
X44474D01*
Y75456D01*
X45621D01*
X45760Y75465D01*
X45889D01*
X46009Y75474D01*
X46120Y75483D01*
X46222Y75493D01*
X46305Y75502D01*
X46388D01*
X46453Y75511D01*
X46518Y75520D01*
X46564Y75530D01*
X46601D01*
X46629Y75539D01*
X46647D01*
X46776Y75576D01*
X46897Y75622D01*
X47008Y75668D01*
X47109Y75724D01*
X47193Y75770D01*
X47257Y75807D01*
X47294Y75835D01*
X47313Y75844D01*
X47433Y75936D01*
X47535Y76038D01*
X47636Y76149D01*
X47710Y76242D01*
X47775Y76334D01*
X47821Y76408D01*
X47849Y76454D01*
X47858Y76473D01*
X47932Y76630D01*
X47988Y76796D01*
X48025Y76972D01*
X48052Y77129D01*
X48071Y77259D01*
Y77323D01*
X48080Y77370D01*
Y77416D01*
Y77443D01*
Y77462D01*
Y77471D01*
X48062Y77739D01*
X48025Y77989D01*
X47960Y78192D01*
X47895Y78377D01*
X47858Y78451D01*
X47821Y78516D01*
X47794Y78572D01*
X47757Y78627D01*
X47738Y78664D01*
X47720Y78692D01*
X47701Y78701D01*
Y78710D01*
X47553Y78877D01*
X47405Y79015D01*
X47248Y79126D01*
X47109Y79209D01*
X46980Y79265D01*
X46878Y79311D01*
X46841Y79320D01*
X46814Y79330D01*
X46795Y79339D01*
X46786D01*
X46712Y79357D01*
X46619Y79376D01*
X46508Y79385D01*
X46398Y79394D01*
X46139Y79413D01*
X45880Y79431D01*
X45639D01*
X45538Y79441D01*
D02*
G37*
%LPD*%
G36*
X52537Y75576D02*
X50771D01*
X51640Y77952D01*
X52537Y75576D01*
D02*
G37*
G36*
X45528Y78350D02*
X45612D01*
X45695Y78340D01*
X45815D01*
X45908Y78331D01*
X45972Y78322D01*
X46009Y78313D01*
X46018D01*
X46129Y78285D01*
X46231Y78248D01*
X46323Y78202D01*
X46398Y78146D01*
X46453Y78100D01*
X46499Y78063D01*
X46527Y78035D01*
X46536Y78026D01*
X46610Y77934D01*
X46656Y77841D01*
X46693Y77739D01*
X46721Y77647D01*
X46740Y77564D01*
X46749Y77499D01*
Y77462D01*
Y77443D01*
X46740Y77342D01*
X46730Y77249D01*
X46703Y77166D01*
X46675Y77092D01*
X46647Y77028D01*
X46629Y76981D01*
X46610Y76954D01*
X46601Y76944D01*
X46545Y76870D01*
X46471Y76806D01*
X46407Y76750D01*
X46342Y76704D01*
X46287Y76676D01*
X46240Y76648D01*
X46203Y76639D01*
X46194Y76630D01*
X46139Y76611D01*
X46074Y76602D01*
X45926Y76574D01*
X45760Y76556D01*
X45593Y76547D01*
X45427D01*
X45362Y76537D01*
X44474D01*
Y78359D01*
X45436D01*
X45528Y78350D01*
D02*
G37*
%LPC*%
G36*
X52333Y155641D02*
X50965D01*
X48487Y149243D01*
X49855D01*
X50382Y150694D01*
X52953D01*
X53507Y149243D01*
X54903D01*
X52333Y155641D01*
D02*
G37*
G36*
X45538D02*
X43180D01*
Y149243D01*
X44474D01*
Y151656D01*
X45621D01*
X45760Y151665D01*
X45889D01*
X46009Y151674D01*
X46120Y151684D01*
X46222Y151693D01*
X46305Y151702D01*
X46388D01*
X46453Y151711D01*
X46518Y151720D01*
X46564Y151730D01*
X46601D01*
X46629Y151739D01*
X46647D01*
X46776Y151776D01*
X46897Y151822D01*
X47008Y151868D01*
X47109Y151924D01*
X47193Y151970D01*
X47257Y152007D01*
X47294Y152035D01*
X47313Y152044D01*
X47433Y152136D01*
X47535Y152238D01*
X47636Y152349D01*
X47710Y152442D01*
X47775Y152534D01*
X47821Y152608D01*
X47849Y152654D01*
X47858Y152673D01*
X47932Y152830D01*
X47988Y152996D01*
X48025Y153172D01*
X48052Y153329D01*
X48071Y153459D01*
Y153523D01*
X48080Y153570D01*
Y153616D01*
Y153644D01*
Y153662D01*
Y153671D01*
X48062Y153939D01*
X48025Y154189D01*
X47960Y154392D01*
X47895Y154577D01*
X47858Y154651D01*
X47821Y154716D01*
X47794Y154771D01*
X47757Y154827D01*
X47738Y154864D01*
X47720Y154892D01*
X47701Y154901D01*
Y154910D01*
X47553Y155077D01*
X47405Y155215D01*
X47248Y155326D01*
X47109Y155409D01*
X46980Y155465D01*
X46878Y155511D01*
X46841Y155520D01*
X46814Y155530D01*
X46795Y155539D01*
X46786D01*
X46712Y155557D01*
X46619Y155576D01*
X46508Y155585D01*
X46398Y155594D01*
X46139Y155613D01*
X45880Y155631D01*
X45639D01*
X45538Y155641D01*
D02*
G37*
G36*
X57520Y155678D02*
X57428D01*
X57270Y155668D01*
X57122Y155659D01*
X56836Y155613D01*
X56595Y155539D01*
X56484Y155502D01*
X56383Y155456D01*
X56290Y155419D01*
X56216Y155372D01*
X56142Y155336D01*
X56087Y155308D01*
X56041Y155271D01*
X56013Y155252D01*
X55994Y155243D01*
X55985Y155234D01*
X55883Y155141D01*
X55791Y155049D01*
X55708Y154938D01*
X55634Y154818D01*
X55523Y154577D01*
X55430Y154346D01*
X55403Y154226D01*
X55375Y154124D01*
X55347Y154032D01*
X55338Y153949D01*
X55319Y153875D01*
Y153828D01*
X55310Y153792D01*
Y153782D01*
X56531Y153662D01*
X56549Y153847D01*
X56586Y154004D01*
X56623Y154143D01*
X56669Y154244D01*
X56706Y154328D01*
X56743Y154383D01*
X56771Y154420D01*
X56780Y154429D01*
X56873Y154503D01*
X56974Y154559D01*
X57076Y154605D01*
X57178Y154633D01*
X57261Y154651D01*
X57335Y154661D01*
X57400D01*
X57538Y154651D01*
X57659Y154624D01*
X57760Y154587D01*
X57853Y154550D01*
X57917Y154513D01*
X57973Y154476D01*
X58001Y154448D01*
X58010Y154439D01*
X58084Y154346D01*
X58139Y154244D01*
X58176Y154143D01*
X58204Y154041D01*
X58223Y153949D01*
X58232Y153865D01*
Y153819D01*
Y153810D01*
Y153801D01*
X58223Y153662D01*
X58195Y153533D01*
X58149Y153403D01*
X58102Y153292D01*
X58056Y153190D01*
X58010Y153117D01*
X57982Y153070D01*
X57973Y153052D01*
X57936Y152996D01*
X57881Y152932D01*
X57807Y152848D01*
X57733Y152774D01*
X57566Y152599D01*
X57400Y152423D01*
X57233Y152257D01*
X57159Y152183D01*
X57085Y152127D01*
X57030Y152072D01*
X56993Y152035D01*
X56965Y152007D01*
X56956Y151998D01*
X56771Y151822D01*
X56605Y151656D01*
X56447Y151499D01*
X56309Y151360D01*
X56179Y151221D01*
X56068Y151092D01*
X55967Y150981D01*
X55883Y150870D01*
X55809Y150777D01*
X55745Y150694D01*
X55689Y150630D01*
X55652Y150565D01*
X55615Y150528D01*
X55597Y150491D01*
X55578Y150472D01*
Y150463D01*
X55458Y150250D01*
X55366Y150028D01*
X55292Y149825D01*
X55236Y149640D01*
X55199Y149474D01*
X55190Y149409D01*
X55181Y149354D01*
X55171Y149307D01*
X55162Y149270D01*
Y149252D01*
Y149243D01*
X59461D01*
Y150380D01*
X57021D01*
X57095Y150500D01*
X57178Y150602D01*
X57215Y150648D01*
X57243Y150685D01*
X57261Y150703D01*
X57270Y150713D01*
X57307Y150750D01*
X57344Y150796D01*
X57455Y150898D01*
X57575Y151018D01*
X57696Y151138D01*
X57816Y151249D01*
X57917Y151341D01*
X57955Y151378D01*
X57982Y151406D01*
X58001Y151415D01*
X58010Y151425D01*
X58213Y151619D01*
X58380Y151776D01*
X58519Y151924D01*
X58629Y152035D01*
X58713Y152127D01*
X58768Y152192D01*
X58805Y152238D01*
X58814Y152247D01*
X58934Y152405D01*
X59036Y152553D01*
X59119Y152691D01*
X59184Y152811D01*
X59240Y152913D01*
X59277Y152996D01*
X59295Y153043D01*
X59304Y153061D01*
X59360Y153209D01*
X59397Y153357D01*
X59425Y153496D01*
X59443Y153625D01*
X59452Y153727D01*
X59461Y153810D01*
Y153865D01*
Y153884D01*
X59452Y154023D01*
X59434Y154161D01*
X59415Y154291D01*
X59378Y154411D01*
X59286Y154624D01*
X59193Y154809D01*
X59138Y154892D01*
X59092Y154956D01*
X59045Y155021D01*
X58999Y155067D01*
X58962Y155104D01*
X58944Y155141D01*
X58925Y155151D01*
X58916Y155160D01*
X58814Y155252D01*
X58694Y155336D01*
X58583Y155400D01*
X58454Y155456D01*
X58213Y155548D01*
X57973Y155613D01*
X57862Y155631D01*
X57760Y155650D01*
X57668Y155659D01*
X57585Y155668D01*
X57520Y155678D01*
D02*
G37*
%LPD*%
G36*
X52537Y151776D02*
X50771D01*
X51640Y154152D01*
X52537Y151776D01*
D02*
G37*
G36*
X45528Y154550D02*
X45612D01*
X45695Y154540D01*
X45815D01*
X45908Y154531D01*
X45972Y154522D01*
X46009Y154513D01*
X46018D01*
X46129Y154485D01*
X46231Y154448D01*
X46323Y154402D01*
X46398Y154346D01*
X46453Y154300D01*
X46499Y154263D01*
X46527Y154235D01*
X46536Y154226D01*
X46610Y154134D01*
X46656Y154041D01*
X46693Y153939D01*
X46721Y153847D01*
X46740Y153764D01*
X46749Y153699D01*
Y153662D01*
Y153644D01*
X46740Y153542D01*
X46730Y153449D01*
X46703Y153366D01*
X46675Y153292D01*
X46647Y153228D01*
X46629Y153181D01*
X46610Y153153D01*
X46601Y153144D01*
X46545Y153070D01*
X46471Y153006D01*
X46407Y152950D01*
X46342Y152904D01*
X46287Y152876D01*
X46240Y152848D01*
X46203Y152839D01*
X46194Y152830D01*
X46139Y152811D01*
X46074Y152802D01*
X45926Y152774D01*
X45760Y152756D01*
X45593Y152747D01*
X45427D01*
X45362Y152738D01*
X44474D01*
Y154559D01*
X45436D01*
X45528Y154550D01*
D02*
G37*
%LPC*%
G36*
X45538Y104841D02*
X43180D01*
Y98443D01*
X44474D01*
Y100856D01*
X45621D01*
X45760Y100865D01*
X45889D01*
X46009Y100874D01*
X46120Y100884D01*
X46222Y100893D01*
X46305Y100902D01*
X46388D01*
X46453Y100911D01*
X46518Y100920D01*
X46564Y100930D01*
X46601D01*
X46629Y100939D01*
X46647D01*
X46776Y100976D01*
X46897Y101022D01*
X47008Y101068D01*
X47109Y101124D01*
X47193Y101170D01*
X47257Y101207D01*
X47294Y101235D01*
X47313Y101244D01*
X47433Y101336D01*
X47535Y101438D01*
X47636Y101549D01*
X47710Y101642D01*
X47775Y101734D01*
X47821Y101808D01*
X47849Y101854D01*
X47858Y101873D01*
X47932Y102030D01*
X47988Y102196D01*
X48025Y102372D01*
X48052Y102529D01*
X48071Y102659D01*
Y102723D01*
X48080Y102770D01*
Y102816D01*
Y102844D01*
Y102862D01*
Y102871D01*
X48062Y103139D01*
X48025Y103389D01*
X47960Y103592D01*
X47895Y103777D01*
X47858Y103851D01*
X47821Y103916D01*
X47794Y103972D01*
X47757Y104027D01*
X47738Y104064D01*
X47720Y104092D01*
X47701Y104101D01*
Y104110D01*
X47553Y104277D01*
X47405Y104415D01*
X47248Y104526D01*
X47109Y104609D01*
X46980Y104665D01*
X46878Y104711D01*
X46841Y104720D01*
X46814Y104730D01*
X46795Y104739D01*
X46786D01*
X46712Y104757D01*
X46619Y104776D01*
X46508Y104785D01*
X46398Y104794D01*
X46139Y104813D01*
X45880Y104831D01*
X45639D01*
X45538Y104841D01*
D02*
G37*
G36*
X58916Y104868D02*
X57881D01*
X55107Y100791D01*
Y99728D01*
X57733D01*
Y98443D01*
X58916D01*
Y99728D01*
X59711D01*
Y100800D01*
X58916D01*
Y104868D01*
D02*
G37*
G36*
X52333Y104841D02*
X50965D01*
X48487Y98443D01*
X49855D01*
X50382Y99894D01*
X52953D01*
X53507Y98443D01*
X54903D01*
X52333Y104841D01*
D02*
G37*
%LPD*%
G36*
X45528Y103750D02*
X45612D01*
X45695Y103740D01*
X45815D01*
X45908Y103731D01*
X45972Y103722D01*
X46009Y103713D01*
X46018D01*
X46129Y103685D01*
X46231Y103648D01*
X46323Y103602D01*
X46398Y103546D01*
X46453Y103500D01*
X46499Y103463D01*
X46527Y103435D01*
X46536Y103426D01*
X46610Y103334D01*
X46656Y103241D01*
X46693Y103139D01*
X46721Y103047D01*
X46740Y102964D01*
X46749Y102899D01*
Y102862D01*
Y102844D01*
X46740Y102742D01*
X46730Y102649D01*
X46703Y102566D01*
X46675Y102492D01*
X46647Y102428D01*
X46629Y102381D01*
X46610Y102353D01*
X46601Y102344D01*
X46545Y102270D01*
X46471Y102206D01*
X46407Y102150D01*
X46342Y102104D01*
X46287Y102076D01*
X46240Y102048D01*
X46203Y102039D01*
X46194Y102030D01*
X46139Y102011D01*
X46074Y102002D01*
X45926Y101974D01*
X45760Y101956D01*
X45593Y101947D01*
X45427D01*
X45362Y101938D01*
X44474D01*
Y103759D01*
X45436D01*
X45528Y103750D01*
D02*
G37*
G36*
X57733Y100800D02*
X56244D01*
X57733Y103001D01*
Y100800D01*
D02*
G37*
G36*
X52537Y100976D02*
X50771D01*
X51640Y103352D01*
X52537Y100976D01*
D02*
G37*
%LPC*%
G36*
X52333Y130241D02*
X50965D01*
X48487Y123843D01*
X49855D01*
X50382Y125294D01*
X52953D01*
X53507Y123843D01*
X54903D01*
X52333Y130241D01*
D02*
G37*
G36*
X57418Y130278D02*
X57335D01*
X57141Y130268D01*
X56965Y130250D01*
X56799Y130213D01*
X56660Y130176D01*
X56549Y130139D01*
X56457Y130102D01*
X56401Y130083D01*
X56392Y130074D01*
X56383D01*
X56235Y129991D01*
X56096Y129899D01*
X55985Y129806D01*
X55893Y129723D01*
X55819Y129640D01*
X55763Y129575D01*
X55726Y129538D01*
X55717Y129519D01*
X55634Y129381D01*
X55560Y129233D01*
X55504Y129076D01*
X55449Y128928D01*
X55412Y128789D01*
X55384Y128687D01*
X55375Y128641D01*
Y128613D01*
X55366Y128595D01*
Y128586D01*
X56494Y128401D01*
X56521Y128549D01*
X56558Y128678D01*
X56595Y128789D01*
X56642Y128872D01*
X56688Y128946D01*
X56725Y129002D01*
X56753Y129029D01*
X56762Y129039D01*
X56845Y129113D01*
X56937Y129168D01*
X57030Y129205D01*
X57113Y129233D01*
X57187Y129251D01*
X57243Y129261D01*
X57298D01*
X57409Y129251D01*
X57520Y129233D01*
X57603Y129196D01*
X57677Y129168D01*
X57742Y129131D01*
X57779Y129094D01*
X57807Y129076D01*
X57816Y129066D01*
X57881Y128992D01*
X57927Y128900D01*
X57964Y128817D01*
X57982Y128734D01*
X58001Y128660D01*
X58010Y128604D01*
Y128567D01*
Y128549D01*
X58001Y128410D01*
X57973Y128290D01*
X57927Y128188D01*
X57881Y128105D01*
X57825Y128031D01*
X57788Y127985D01*
X57751Y127948D01*
X57742Y127938D01*
X57631Y127865D01*
X57511Y127809D01*
X57381Y127772D01*
X57261Y127744D01*
X57150Y127735D01*
X57058Y127726D01*
X56974D01*
X56845Y126736D01*
X56965Y126764D01*
X57067Y126792D01*
X57169Y126811D01*
X57252Y126820D01*
X57316Y126829D01*
X57409D01*
X57538Y126820D01*
X57649Y126783D01*
X57751Y126746D01*
X57843Y126690D01*
X57908Y126644D01*
X57964Y126598D01*
X58001Y126561D01*
X58010Y126552D01*
X58093Y126441D01*
X58158Y126320D01*
X58204Y126200D01*
X58241Y126080D01*
X58260Y125969D01*
X58269Y125886D01*
Y125830D01*
Y125821D01*
Y125812D01*
X58260Y125636D01*
X58232Y125479D01*
X58186Y125340D01*
X58139Y125230D01*
X58084Y125146D01*
X58047Y125082D01*
X58010Y125035D01*
X58001Y125026D01*
X57899Y124934D01*
X57788Y124860D01*
X57686Y124813D01*
X57585Y124776D01*
X57492Y124758D01*
X57428Y124749D01*
X57381Y124740D01*
X57363D01*
X57233Y124749D01*
X57122Y124776D01*
X57021Y124813D01*
X56928Y124860D01*
X56863Y124897D01*
X56808Y124934D01*
X56771Y124961D01*
X56762Y124971D01*
X56679Y125072D01*
X56605Y125183D01*
X56558Y125303D01*
X56512Y125414D01*
X56484Y125516D01*
X56466Y125599D01*
X56457Y125655D01*
Y125664D01*
Y125673D01*
X55273Y125525D01*
X55292Y125377D01*
X55329Y125239D01*
X55412Y124980D01*
X55514Y124758D01*
X55578Y124665D01*
X55634Y124573D01*
X55689Y124490D01*
X55745Y124425D01*
X55791Y124360D01*
X55837Y124314D01*
X55874Y124277D01*
X55902Y124249D01*
X55920Y124231D01*
X55930Y124222D01*
X56041Y124138D01*
X56161Y124055D01*
X56272Y123991D01*
X56401Y123935D01*
X56642Y123843D01*
X56863Y123787D01*
X56974Y123769D01*
X57067Y123750D01*
X57150Y123741D01*
X57224Y123732D01*
X57289Y123722D01*
X57372D01*
X57538Y123732D01*
X57705Y123750D01*
X57853Y123778D01*
X58001Y123815D01*
X58130Y123861D01*
X58260Y123907D01*
X58380Y123963D01*
X58481Y124018D01*
X58574Y124074D01*
X58666Y124129D01*
X58731Y124176D01*
X58796Y124222D01*
X58842Y124259D01*
X58879Y124286D01*
X58898Y124305D01*
X58907Y124314D01*
X59018Y124425D01*
X59110Y124545D01*
X59193Y124665D01*
X59267Y124786D01*
X59323Y124915D01*
X59378Y125035D01*
X59452Y125257D01*
X59471Y125359D01*
X59489Y125461D01*
X59508Y125544D01*
X59517Y125618D01*
X59526Y125673D01*
Y125719D01*
Y125747D01*
Y125757D01*
X59508Y125969D01*
X59471Y126154D01*
X59425Y126330D01*
X59360Y126468D01*
X59295Y126589D01*
X59249Y126672D01*
X59212Y126727D01*
X59193Y126746D01*
X59064Y126884D01*
X58916Y127005D01*
X58768Y127097D01*
X58629Y127171D01*
X58509Y127226D01*
X58408Y127254D01*
X58370Y127273D01*
X58343D01*
X58324Y127282D01*
X58315D01*
X58481Y127384D01*
X58620Y127485D01*
X58740Y127596D01*
X58851Y127707D01*
X58944Y127818D01*
X59018Y127929D01*
X59073Y128040D01*
X59129Y128142D01*
X59166Y128244D01*
X59193Y128336D01*
X59212Y128419D01*
X59221Y128493D01*
X59230Y128549D01*
X59240Y128595D01*
Y128623D01*
Y128632D01*
X59230Y128743D01*
X59221Y128844D01*
X59166Y129048D01*
X59101Y129233D01*
X59018Y129390D01*
X58934Y129519D01*
X58861Y129612D01*
X58833Y129649D01*
X58805Y129677D01*
X58796Y129686D01*
X58787Y129695D01*
X58685Y129797D01*
X58565Y129889D01*
X58454Y129963D01*
X58334Y130028D01*
X58204Y130093D01*
X58084Y130139D01*
X57853Y130204D01*
X57751Y130231D01*
X57649Y130250D01*
X57566Y130259D01*
X57483Y130268D01*
X57418Y130278D01*
D02*
G37*
G36*
X45538Y130241D02*
X43180D01*
Y123843D01*
X44474D01*
Y126256D01*
X45621D01*
X45760Y126265D01*
X45889D01*
X46009Y126274D01*
X46120Y126284D01*
X46222Y126293D01*
X46305Y126302D01*
X46388D01*
X46453Y126311D01*
X46518Y126320D01*
X46564Y126330D01*
X46601D01*
X46629Y126339D01*
X46647D01*
X46776Y126376D01*
X46897Y126422D01*
X47008Y126468D01*
X47109Y126524D01*
X47193Y126570D01*
X47257Y126607D01*
X47294Y126635D01*
X47313Y126644D01*
X47433Y126736D01*
X47535Y126838D01*
X47636Y126949D01*
X47710Y127042D01*
X47775Y127134D01*
X47821Y127208D01*
X47849Y127254D01*
X47858Y127273D01*
X47932Y127430D01*
X47988Y127596D01*
X48025Y127772D01*
X48052Y127929D01*
X48071Y128059D01*
Y128123D01*
X48080Y128170D01*
Y128216D01*
Y128244D01*
Y128262D01*
Y128271D01*
X48062Y128539D01*
X48025Y128789D01*
X47960Y128992D01*
X47895Y129177D01*
X47858Y129251D01*
X47821Y129316D01*
X47794Y129372D01*
X47757Y129427D01*
X47738Y129464D01*
X47720Y129492D01*
X47701Y129501D01*
Y129510D01*
X47553Y129677D01*
X47405Y129815D01*
X47248Y129926D01*
X47109Y130009D01*
X46980Y130065D01*
X46878Y130111D01*
X46841Y130120D01*
X46814Y130130D01*
X46795Y130139D01*
X46786D01*
X46712Y130157D01*
X46619Y130176D01*
X46508Y130185D01*
X46398Y130194D01*
X46139Y130213D01*
X45880Y130231D01*
X45639D01*
X45538Y130241D01*
D02*
G37*
%LPD*%
G36*
X52537Y126376D02*
X50771D01*
X51640Y128752D01*
X52537Y126376D01*
D02*
G37*
G36*
X45528Y129150D02*
X45612D01*
X45695Y129140D01*
X45815D01*
X45908Y129131D01*
X45972Y129122D01*
X46009Y129113D01*
X46018D01*
X46129Y129085D01*
X46231Y129048D01*
X46323Y129002D01*
X46398Y128946D01*
X46453Y128900D01*
X46499Y128863D01*
X46527Y128835D01*
X46536Y128826D01*
X46610Y128734D01*
X46656Y128641D01*
X46693Y128539D01*
X46721Y128447D01*
X46740Y128364D01*
X46749Y128299D01*
Y128262D01*
Y128244D01*
X46740Y128142D01*
X46730Y128049D01*
X46703Y127966D01*
X46675Y127892D01*
X46647Y127828D01*
X46629Y127781D01*
X46610Y127753D01*
X46601Y127744D01*
X46545Y127670D01*
X46471Y127606D01*
X46407Y127550D01*
X46342Y127504D01*
X46287Y127476D01*
X46240Y127448D01*
X46203Y127439D01*
X46194Y127430D01*
X46139Y127411D01*
X46074Y127402D01*
X45926Y127374D01*
X45760Y127356D01*
X45593Y127347D01*
X45427D01*
X45362Y127338D01*
X44474D01*
Y129159D01*
X45436D01*
X45528Y129150D01*
D02*
G37*
%LPC*%
G36*
X57733Y54078D02*
X57659D01*
X57464Y54068D01*
X57289Y54041D01*
X57113Y54004D01*
X56956Y53957D01*
X56808Y53893D01*
X56660Y53828D01*
X56540Y53754D01*
X56420Y53689D01*
X56318Y53615D01*
X56226Y53541D01*
X56152Y53477D01*
X56087Y53412D01*
X56031Y53366D01*
X55994Y53329D01*
X55976Y53301D01*
X55967Y53292D01*
X55856Y53134D01*
X55754Y52959D01*
X55671Y52765D01*
X55597Y52571D01*
X55532Y52358D01*
X55477Y52145D01*
X55430Y51933D01*
X55403Y51729D01*
X55375Y51535D01*
X55356Y51350D01*
X55338Y51184D01*
X55329Y51036D01*
X55319Y50916D01*
Y50823D01*
Y50795D01*
Y50768D01*
Y50758D01*
Y50749D01*
X55329Y50435D01*
X55347Y50148D01*
X55375Y49880D01*
X55421Y49640D01*
X55467Y49408D01*
X55514Y49205D01*
X55569Y49029D01*
X55634Y48863D01*
X55689Y48724D01*
X55745Y48604D01*
X55791Y48502D01*
X55847Y48419D01*
X55883Y48355D01*
X55911Y48308D01*
X55930Y48281D01*
X55939Y48271D01*
X56059Y48142D01*
X56189Y48022D01*
X56318Y47920D01*
X56457Y47837D01*
X56586Y47763D01*
X56725Y47707D01*
X56854Y47652D01*
X56974Y47615D01*
X57095Y47587D01*
X57196Y47559D01*
X57298Y47550D01*
X57381Y47532D01*
X57446D01*
X57492Y47522D01*
X57538D01*
X57705Y47532D01*
X57862Y47550D01*
X58010Y47578D01*
X58149Y47615D01*
X58287Y47661D01*
X58408Y47707D01*
X58519Y47763D01*
X58620Y47818D01*
X58713Y47874D01*
X58787Y47929D01*
X58861Y47976D01*
X58916Y48022D01*
X58962Y48059D01*
X58990Y48086D01*
X59008Y48105D01*
X59018Y48114D01*
X59119Y48225D01*
X59212Y48355D01*
X59286Y48484D01*
X59351Y48613D01*
X59415Y48743D01*
X59461Y48872D01*
X59526Y49131D01*
X59554Y49242D01*
X59572Y49353D01*
X59582Y49446D01*
X59591Y49529D01*
X59600Y49603D01*
Y49649D01*
Y49686D01*
Y49695D01*
X59591Y49871D01*
X59572Y50028D01*
X59545Y50185D01*
X59517Y50324D01*
X59471Y50462D01*
X59425Y50583D01*
X59378Y50703D01*
X59323Y50805D01*
X59267Y50897D01*
X59221Y50980D01*
X59175Y51045D01*
X59129Y51110D01*
X59101Y51156D01*
X59073Y51184D01*
X59055Y51202D01*
X59045Y51211D01*
X58944Y51313D01*
X58833Y51406D01*
X58722Y51489D01*
X58611Y51554D01*
X58500Y51609D01*
X58389Y51655D01*
X58186Y51729D01*
X58093Y51757D01*
X58001Y51775D01*
X57927Y51785D01*
X57862Y51794D01*
X57807Y51803D01*
X57733D01*
X57603Y51794D01*
X57483Y51775D01*
X57372Y51757D01*
X57261Y51720D01*
X57067Y51627D01*
X56901Y51535D01*
X56771Y51433D01*
X56716Y51387D01*
X56669Y51341D01*
X56632Y51304D01*
X56605Y51285D01*
X56595Y51267D01*
X56586Y51258D01*
X56605Y51452D01*
X56623Y51637D01*
X56642Y51803D01*
X56669Y51951D01*
X56697Y52080D01*
X56725Y52201D01*
X56753Y52302D01*
X56789Y52395D01*
X56817Y52478D01*
X56836Y52543D01*
X56863Y52598D01*
X56882Y52635D01*
X56901Y52672D01*
X56919Y52691D01*
X56928Y52709D01*
X57030Y52829D01*
X57141Y52913D01*
X57252Y52977D01*
X57354Y53014D01*
X57446Y53042D01*
X57520Y53051D01*
X57566Y53060D01*
X57585D01*
X57686Y53051D01*
X57788Y53033D01*
X57871Y53005D01*
X57936Y52977D01*
X57991Y52940D01*
X58028Y52913D01*
X58056Y52894D01*
X58065Y52885D01*
X58130Y52811D01*
X58176Y52728D01*
X58223Y52635D01*
X58250Y52552D01*
X58269Y52469D01*
X58287Y52404D01*
X58297Y52367D01*
Y52349D01*
X59480Y52478D01*
X59415Y52755D01*
X59323Y52987D01*
X59221Y53190D01*
X59119Y53366D01*
X59018Y53495D01*
X58981Y53541D01*
X58934Y53587D01*
X58907Y53615D01*
X58879Y53643D01*
X58870Y53661D01*
X58861D01*
X58768Y53735D01*
X58676Y53800D01*
X58472Y53902D01*
X58269Y53976D01*
X58084Y54022D01*
X57917Y54059D01*
X57843Y54068D01*
X57779D01*
X57733Y54078D01*
D02*
G37*
G36*
X52333Y54041D02*
X50965D01*
X48487Y47643D01*
X49855D01*
X50382Y49094D01*
X52953D01*
X53507Y47643D01*
X54903D01*
X52333Y54041D01*
D02*
G37*
G36*
X45538D02*
X43180D01*
Y47643D01*
X44474D01*
Y50056D01*
X45621D01*
X45760Y50065D01*
X45889D01*
X46009Y50074D01*
X46120Y50083D01*
X46222Y50093D01*
X46305Y50102D01*
X46388D01*
X46453Y50111D01*
X46518Y50120D01*
X46564Y50130D01*
X46601D01*
X46629Y50139D01*
X46647D01*
X46776Y50176D01*
X46897Y50222D01*
X47008Y50268D01*
X47109Y50324D01*
X47193Y50370D01*
X47257Y50407D01*
X47294Y50435D01*
X47313Y50444D01*
X47433Y50536D01*
X47535Y50638D01*
X47636Y50749D01*
X47710Y50842D01*
X47775Y50934D01*
X47821Y51008D01*
X47849Y51054D01*
X47858Y51073D01*
X47932Y51230D01*
X47988Y51396D01*
X48025Y51572D01*
X48052Y51729D01*
X48071Y51859D01*
Y51923D01*
X48080Y51970D01*
Y52016D01*
Y52043D01*
Y52062D01*
Y52071D01*
X48062Y52339D01*
X48025Y52589D01*
X47960Y52792D01*
X47895Y52977D01*
X47858Y53051D01*
X47821Y53116D01*
X47794Y53172D01*
X47757Y53227D01*
X47738Y53264D01*
X47720Y53292D01*
X47701Y53301D01*
Y53310D01*
X47553Y53477D01*
X47405Y53615D01*
X47248Y53726D01*
X47109Y53809D01*
X46980Y53865D01*
X46878Y53911D01*
X46841Y53920D01*
X46814Y53930D01*
X46795Y53939D01*
X46786D01*
X46712Y53957D01*
X46619Y53976D01*
X46508Y53985D01*
X46398Y53994D01*
X46139Y54013D01*
X45880Y54031D01*
X45639D01*
X45538Y54041D01*
D02*
G37*
%LPD*%
G36*
X57668Y50888D02*
X57788Y50851D01*
X57890Y50805D01*
X57982Y50749D01*
X58056Y50694D01*
X58102Y50647D01*
X58139Y50610D01*
X58149Y50601D01*
X58232Y50481D01*
X58297Y50333D01*
X58334Y50176D01*
X58370Y50028D01*
X58389Y49889D01*
X58398Y49778D01*
Y49741D01*
Y49704D01*
Y49686D01*
Y49677D01*
X58389Y49464D01*
X58361Y49279D01*
X58324Y49131D01*
X58287Y49011D01*
X58241Y48918D01*
X58204Y48854D01*
X58176Y48808D01*
X58167Y48798D01*
X58075Y48715D01*
X57982Y48650D01*
X57881Y48604D01*
X57797Y48576D01*
X57714Y48558D01*
X57649Y48540D01*
X57594D01*
X57464Y48558D01*
X57344Y48595D01*
X57243Y48641D01*
X57150Y48706D01*
X57076Y48761D01*
X57011Y48817D01*
X56974Y48854D01*
X56965Y48863D01*
X56873Y48993D01*
X56808Y49140D01*
X56762Y49298D01*
X56734Y49446D01*
X56716Y49584D01*
X56697Y49686D01*
Y49732D01*
Y49760D01*
Y49778D01*
Y49788D01*
X56706Y49982D01*
X56734Y50148D01*
X56771Y50287D01*
X56817Y50407D01*
X56863Y50490D01*
X56901Y50555D01*
X56928Y50601D01*
X56937Y50610D01*
X57030Y50703D01*
X57132Y50777D01*
X57233Y50823D01*
X57326Y50860D01*
X57409Y50879D01*
X57483Y50897D01*
X57538D01*
X57668Y50888D01*
D02*
G37*
G36*
X52537Y50176D02*
X50771D01*
X51640Y52552D01*
X52537Y50176D01*
D02*
G37*
G36*
X45528Y52950D02*
X45612D01*
X45695Y52940D01*
X45815D01*
X45908Y52931D01*
X45972Y52922D01*
X46009Y52913D01*
X46018D01*
X46129Y52885D01*
X46231Y52848D01*
X46323Y52802D01*
X46398Y52746D01*
X46453Y52700D01*
X46499Y52663D01*
X46527Y52635D01*
X46536Y52626D01*
X46610Y52533D01*
X46656Y52441D01*
X46693Y52339D01*
X46721Y52247D01*
X46740Y52164D01*
X46749Y52099D01*
Y52062D01*
Y52043D01*
X46740Y51942D01*
X46730Y51849D01*
X46703Y51766D01*
X46675Y51692D01*
X46647Y51627D01*
X46629Y51581D01*
X46610Y51554D01*
X46601Y51544D01*
X46545Y51470D01*
X46471Y51406D01*
X46407Y51350D01*
X46342Y51304D01*
X46287Y51276D01*
X46240Y51248D01*
X46203Y51239D01*
X46194Y51230D01*
X46139Y51211D01*
X46074Y51202D01*
X45926Y51174D01*
X45760Y51156D01*
X45593Y51147D01*
X45427D01*
X45362Y51137D01*
X44474D01*
Y52959D01*
X45436D01*
X45528Y52950D01*
D02*
G37*
%LPC*%
G36*
X52333Y28641D02*
X50965D01*
X48487Y22243D01*
X49855D01*
X50382Y23694D01*
X52953D01*
X53507Y22243D01*
X54903D01*
X52333Y28641D01*
D02*
G37*
G36*
X45538D02*
X43180D01*
Y22243D01*
X44474D01*
Y24656D01*
X45621D01*
X45760Y24665D01*
X45889D01*
X46009Y24674D01*
X46120Y24683D01*
X46222Y24693D01*
X46305Y24702D01*
X46388D01*
X46453Y24711D01*
X46518Y24720D01*
X46564Y24730D01*
X46601D01*
X46629Y24739D01*
X46647D01*
X46776Y24776D01*
X46897Y24822D01*
X47008Y24868D01*
X47109Y24924D01*
X47193Y24970D01*
X47257Y25007D01*
X47294Y25035D01*
X47313Y25044D01*
X47433Y25136D01*
X47535Y25238D01*
X47636Y25349D01*
X47710Y25442D01*
X47775Y25534D01*
X47821Y25608D01*
X47849Y25654D01*
X47858Y25673D01*
X47932Y25830D01*
X47988Y25996D01*
X48025Y26172D01*
X48052Y26329D01*
X48071Y26459D01*
Y26523D01*
X48080Y26570D01*
Y26616D01*
Y26644D01*
Y26662D01*
Y26671D01*
X48062Y26939D01*
X48025Y27189D01*
X47960Y27392D01*
X47895Y27577D01*
X47858Y27651D01*
X47821Y27716D01*
X47794Y27771D01*
X47757Y27827D01*
X47738Y27864D01*
X47720Y27892D01*
X47701Y27901D01*
Y27910D01*
X47553Y28077D01*
X47405Y28215D01*
X47248Y28326D01*
X47109Y28409D01*
X46980Y28465D01*
X46878Y28511D01*
X46841Y28520D01*
X46814Y28530D01*
X46795Y28539D01*
X46786D01*
X46712Y28557D01*
X46619Y28576D01*
X46508Y28585D01*
X46398Y28594D01*
X46139Y28613D01*
X45880Y28631D01*
X45639D01*
X45538Y28641D01*
D02*
G37*
G36*
X59517Y28557D02*
X55319D01*
Y27420D01*
X58102D01*
X57797Y27004D01*
X57529Y26570D01*
X57400Y26366D01*
X57289Y26154D01*
X57187Y25959D01*
X57095Y25774D01*
X57011Y25599D01*
X56937Y25442D01*
X56873Y25294D01*
X56817Y25173D01*
X56780Y25081D01*
X56753Y25007D01*
X56734Y24961D01*
X56725Y24942D01*
X56632Y24683D01*
X56549Y24434D01*
X56484Y24184D01*
X56420Y23944D01*
X56374Y23703D01*
X56327Y23482D01*
X56290Y23269D01*
X56262Y23075D01*
X56235Y22899D01*
X56216Y22733D01*
X56198Y22594D01*
X56189Y22474D01*
Y22372D01*
X56179Y22298D01*
Y22261D01*
Y22243D01*
X57363D01*
X57372Y22566D01*
X57400Y22899D01*
X57446Y23223D01*
X57464Y23371D01*
X57492Y23519D01*
X57520Y23648D01*
X57548Y23777D01*
X57566Y23879D01*
X57585Y23972D01*
X57603Y24055D01*
X57622Y24110D01*
X57631Y24147D01*
Y24156D01*
X57751Y24554D01*
X57881Y24933D01*
X57945Y25109D01*
X58019Y25275D01*
X58084Y25432D01*
X58149Y25580D01*
X58213Y25710D01*
X58269Y25830D01*
X58324Y25941D01*
X58361Y26024D01*
X58398Y26098D01*
X58426Y26144D01*
X58444Y26181D01*
X58454Y26191D01*
X58555Y26366D01*
X58657Y26533D01*
X58750Y26681D01*
X58842Y26828D01*
X58934Y26958D01*
X59027Y27078D01*
X59110Y27189D01*
X59184Y27291D01*
X59258Y27383D01*
X59323Y27457D01*
X59378Y27522D01*
X59425Y27577D01*
X59461Y27614D01*
X59489Y27642D01*
X59508Y27661D01*
X59517Y27670D01*
Y28557D01*
D02*
G37*
%LPD*%
G36*
X52537Y24776D02*
X50771D01*
X51640Y27152D01*
X52537Y24776D01*
D02*
G37*
G36*
X45528Y27550D02*
X45612D01*
X45695Y27540D01*
X45815D01*
X45908Y27531D01*
X45972Y27522D01*
X46009Y27513D01*
X46018D01*
X46129Y27485D01*
X46231Y27448D01*
X46323Y27402D01*
X46398Y27346D01*
X46453Y27300D01*
X46499Y27263D01*
X46527Y27235D01*
X46536Y27226D01*
X46610Y27134D01*
X46656Y27041D01*
X46693Y26939D01*
X46721Y26847D01*
X46740Y26764D01*
X46749Y26699D01*
Y26662D01*
Y26644D01*
X46740Y26542D01*
X46730Y26449D01*
X46703Y26366D01*
X46675Y26292D01*
X46647Y26228D01*
X46629Y26181D01*
X46610Y26154D01*
X46601Y26144D01*
X46545Y26070D01*
X46471Y26006D01*
X46407Y25950D01*
X46342Y25904D01*
X46287Y25876D01*
X46240Y25848D01*
X46203Y25839D01*
X46194Y25830D01*
X46139Y25811D01*
X46074Y25802D01*
X45926Y25774D01*
X45760Y25756D01*
X45593Y25747D01*
X45427D01*
X45362Y25738D01*
X44474D01*
Y27559D01*
X45436D01*
X45528Y27550D01*
D02*
G37*
%LPC*%
G36*
X233607Y93132D02*
X233496D01*
X233256Y93123D01*
X233015Y93095D01*
X232803Y93049D01*
X232590Y92993D01*
X232405Y92929D01*
X232220Y92855D01*
X232063Y92772D01*
X231915Y92688D01*
X231776Y92605D01*
X231665Y92522D01*
X231564Y92448D01*
X231481Y92383D01*
X231416Y92328D01*
X231369Y92282D01*
X231342Y92254D01*
X231332Y92245D01*
X231185Y92069D01*
X231064Y91884D01*
X230954Y91690D01*
X230861Y91486D01*
X230778Y91274D01*
X230713Y91070D01*
X230658Y90867D01*
X230611Y90673D01*
X230574Y90479D01*
X230556Y90312D01*
X230537Y90155D01*
X230519Y90026D01*
Y89915D01*
X230510Y89831D01*
Y89776D01*
Y89767D01*
Y89757D01*
X230519Y89480D01*
X230547Y89221D01*
X230584Y88972D01*
X230639Y88750D01*
X230695Y88537D01*
X230769Y88334D01*
X230842Y88158D01*
X230917Y88001D01*
X230990Y87853D01*
X231064Y87724D01*
X231138Y87622D01*
X231194Y87529D01*
X231249Y87465D01*
X231286Y87409D01*
X231314Y87381D01*
X231323Y87372D01*
X231481Y87215D01*
X231647Y87086D01*
X231822Y86965D01*
X231998Y86873D01*
X232174Y86790D01*
X232349Y86716D01*
X232516Y86660D01*
X232673Y86614D01*
X232830Y86577D01*
X232969Y86549D01*
X233098Y86531D01*
X233200Y86522D01*
X233293Y86512D01*
X233357Y86503D01*
X233413D01*
X233607Y86512D01*
X233783Y86522D01*
X233958Y86549D01*
X234116Y86586D01*
X234263Y86623D01*
X234402Y86660D01*
X234531Y86706D01*
X234652Y86762D01*
X234753Y86808D01*
X234846Y86854D01*
X234929Y86891D01*
X234994Y86928D01*
X235049Y86965D01*
X235086Y86993D01*
X235105Y87002D01*
X235114Y87012D01*
X235234Y87113D01*
X235345Y87224D01*
X235548Y87474D01*
X235715Y87733D01*
X235844Y87982D01*
X235900Y88103D01*
X235946Y88214D01*
X235983Y88315D01*
X236020Y88398D01*
X236048Y88472D01*
X236066Y88528D01*
X236075Y88565D01*
Y88574D01*
X234818Y88962D01*
X234744Y88713D01*
X234661Y88500D01*
X234578Y88324D01*
X234485Y88176D01*
X234411Y88066D01*
X234347Y87992D01*
X234300Y87945D01*
X234282Y87927D01*
X234134Y87816D01*
X233986Y87742D01*
X233838Y87687D01*
X233709Y87640D01*
X233589Y87622D01*
X233487Y87612D01*
X233450Y87603D01*
X233403D01*
X233274Y87612D01*
X233154Y87622D01*
X232932Y87687D01*
X232738Y87760D01*
X232581Y87862D01*
X232451Y87955D01*
X232359Y88029D01*
X232322Y88066D01*
X232294Y88093D01*
X232285Y88103D01*
X232276Y88112D01*
X232202Y88214D01*
X232137Y88334D01*
X232072Y88463D01*
X232026Y88602D01*
X231952Y88888D01*
X231896Y89175D01*
X231878Y89314D01*
X231869Y89434D01*
X231850Y89554D01*
Y89656D01*
X231841Y89730D01*
Y89795D01*
Y89841D01*
Y89850D01*
X231850Y90063D01*
X231859Y90257D01*
X231878Y90432D01*
X231906Y90599D01*
X231943Y90747D01*
X231980Y90885D01*
X232017Y91006D01*
X232063Y91117D01*
X232100Y91209D01*
X232137Y91292D01*
X232174Y91357D01*
X232211Y91412D01*
X232239Y91459D01*
X232257Y91486D01*
X232276Y91505D01*
Y91514D01*
X232359Y91607D01*
X232451Y91690D01*
X232544Y91755D01*
X232645Y91810D01*
X232840Y91903D01*
X233025Y91967D01*
X233182Y92004D01*
X233256Y92013D01*
X233311Y92023D01*
X233367Y92032D01*
X233431D01*
X233616Y92023D01*
X233783Y91986D01*
X233930Y91939D01*
X234060Y91884D01*
X234162Y91828D01*
X234236Y91782D01*
X234282Y91745D01*
X234300Y91736D01*
X234421Y91625D01*
X234531Y91496D01*
X234615Y91366D01*
X234679Y91237D01*
X234726Y91126D01*
X234753Y91043D01*
X234772Y91006D01*
Y90978D01*
X234781Y90969D01*
Y90959D01*
X236057Y91264D01*
X235965Y91533D01*
X235863Y91764D01*
X235752Y91967D01*
X235650Y92134D01*
X235548Y92263D01*
X235511Y92318D01*
X235475Y92365D01*
X235447Y92393D01*
X235419Y92420D01*
X235410Y92439D01*
X235401D01*
X235262Y92559D01*
X235105Y92670D01*
X234957Y92762D01*
X234800Y92836D01*
X234633Y92910D01*
X234476Y92966D01*
X234319Y93012D01*
X234171Y93049D01*
X234032Y93077D01*
X233903Y93095D01*
X233792Y93114D01*
X233690Y93123D01*
X233607Y93132D01*
D02*
G37*
G36*
X226691D02*
X226626D01*
X226368Y93123D01*
X226118Y93095D01*
X225887Y93049D01*
X225665Y92993D01*
X225462Y92929D01*
X225277Y92855D01*
X225110Y92772D01*
X224953Y92698D01*
X224814Y92614D01*
X224694Y92531D01*
X224592Y92457D01*
X224509Y92393D01*
X224435Y92337D01*
X224389Y92291D01*
X224361Y92263D01*
X224352Y92254D01*
X224204Y92087D01*
X224075Y91903D01*
X223964Y91708D01*
X223871Y91505D01*
X223788Y91301D01*
X223723Y91098D01*
X223668Y90904D01*
X223622Y90710D01*
X223594Y90525D01*
X223566Y90358D01*
X223548Y90201D01*
X223529Y90072D01*
Y89961D01*
X223520Y89887D01*
Y89831D01*
Y89813D01*
X223529Y89526D01*
X223557Y89258D01*
X223594Y88999D01*
X223649Y88759D01*
X223714Y88546D01*
X223788Y88343D01*
X223862Y88158D01*
X223936Y87992D01*
X224010Y87853D01*
X224093Y87724D01*
X224158Y87612D01*
X224223Y87520D01*
X224278Y87455D01*
X224315Y87400D01*
X224343Y87372D01*
X224352Y87363D01*
X224519Y87206D01*
X224694Y87076D01*
X224879Y86956D01*
X225064Y86864D01*
X225258Y86780D01*
X225452Y86706D01*
X225637Y86651D01*
X225822Y86605D01*
X225989Y86568D01*
X226155Y86540D01*
X226294Y86522D01*
X226423Y86512D01*
X226525Y86503D01*
X226599Y86494D01*
X226663D01*
X226941Y86503D01*
X227200Y86540D01*
X227440Y86577D01*
X227644Y86632D01*
X227736Y86651D01*
X227810Y86679D01*
X227884Y86697D01*
X227939Y86725D01*
X227986Y86734D01*
X228023Y86753D01*
X228041Y86762D01*
X228050D01*
X228189Y86670D01*
X228319Y86586D01*
X228429Y86512D01*
X228522Y86457D01*
X228605Y86401D01*
X228679Y86355D01*
X228734Y86318D01*
X228781Y86290D01*
X228818Y86263D01*
X228855Y86244D01*
X228892Y86216D01*
X228910Y86207D01*
X229114Y86105D01*
X229215Y86059D01*
X229298Y86022D01*
X229373Y85995D01*
X229437Y85976D01*
X229474Y85958D01*
X229483D01*
X229964Y86882D01*
X229761Y86965D01*
X229567Y87049D01*
X229391Y87141D01*
X229234Y87224D01*
X229104Y87298D01*
X229012Y87363D01*
X228975Y87381D01*
X228947Y87400D01*
X228938Y87418D01*
X228929D01*
X229058Y87585D01*
X229178Y87751D01*
X229271Y87918D01*
X229345Y88056D01*
X229409Y88176D01*
X229446Y88269D01*
X229465Y88306D01*
X229474Y88334D01*
X229483Y88343D01*
Y88352D01*
X229567Y88593D01*
X229622Y88842D01*
X229668Y89092D01*
X229696Y89323D01*
X229705Y89425D01*
X229715Y89517D01*
Y89600D01*
X229724Y89674D01*
Y89730D01*
Y89776D01*
Y89804D01*
Y89813D01*
X229715Y90100D01*
X229687Y90368D01*
X229650Y90627D01*
X229594Y90858D01*
X229530Y91080D01*
X229456Y91274D01*
X229382Y91459D01*
X229308Y91625D01*
X229224Y91773D01*
X229151Y91893D01*
X229077Y92004D01*
X229012Y92097D01*
X228956Y92161D01*
X228919Y92217D01*
X228892Y92245D01*
X228882Y92254D01*
X228716Y92411D01*
X228550Y92540D01*
X228365Y92661D01*
X228180Y92762D01*
X227995Y92845D01*
X227801Y92920D01*
X227616Y92975D01*
X227440Y93021D01*
X227274Y93058D01*
X227126Y93086D01*
X226978Y93104D01*
X226867Y93123D01*
X226765D01*
X226691Y93132D01*
D02*
G37*
%LPD*%
G36*
X226765Y92023D02*
X226904Y92004D01*
X227033Y91976D01*
X227153Y91949D01*
X227375Y91856D01*
X227468Y91810D01*
X227560Y91755D01*
X227634Y91699D01*
X227708Y91653D01*
X227764Y91607D01*
X227810Y91560D01*
X227856Y91533D01*
X227884Y91505D01*
X227893Y91486D01*
X227902Y91477D01*
X227986Y91366D01*
X228069Y91246D01*
X228134Y91117D01*
X228189Y90987D01*
X228272Y90710D01*
X228328Y90442D01*
X228355Y90312D01*
X228365Y90192D01*
X228374Y90090D01*
X228383Y89998D01*
X228392Y89924D01*
Y89859D01*
Y89822D01*
Y89813D01*
X228383Y89619D01*
X228374Y89434D01*
X228355Y89268D01*
X228328Y89129D01*
X228300Y89009D01*
X228281Y88925D01*
X228272Y88870D01*
X228263Y88861D01*
Y88851D01*
X228207Y88703D01*
X228152Y88565D01*
X228087Y88445D01*
X228023Y88343D01*
X227967Y88260D01*
X227921Y88195D01*
X227893Y88149D01*
X227884Y88139D01*
X227671Y88297D01*
X227449Y88435D01*
X227246Y88546D01*
X227061Y88639D01*
X226904Y88713D01*
X226839Y88741D01*
X226784Y88768D01*
X226737Y88787D01*
X226700Y88796D01*
X226682Y88805D01*
X226673D01*
X226312Y88056D01*
X226460Y88001D01*
X226608Y87927D01*
X226737Y87862D01*
X226858Y87797D01*
X226959Y87742D01*
X227043Y87696D01*
X227089Y87659D01*
X227107Y87649D01*
X226922Y87603D01*
X226830Y87585D01*
X226747Y87576D01*
X226682D01*
X226626Y87566D01*
X226580D01*
X226442Y87576D01*
X226312Y87594D01*
X226192Y87622D01*
X226072Y87649D01*
X225859Y87742D01*
X225683Y87844D01*
X225600Y87899D01*
X225536Y87945D01*
X225480Y87992D01*
X225434Y88038D01*
X225388Y88066D01*
X225360Y88093D01*
X225351Y88112D01*
X225341Y88121D01*
X225258Y88232D01*
X225184Y88352D01*
X225110Y88491D01*
X225055Y88620D01*
X224972Y88907D01*
X224916Y89175D01*
X224888Y89305D01*
X224879Y89425D01*
X224870Y89536D01*
X224861Y89628D01*
X224851Y89702D01*
Y89767D01*
Y89804D01*
Y89813D01*
X224861Y90016D01*
X224870Y90201D01*
X224898Y90377D01*
X224925Y90543D01*
X224962Y90691D01*
X225009Y90830D01*
X225055Y90950D01*
X225101Y91061D01*
X225138Y91163D01*
X225184Y91246D01*
X225230Y91311D01*
X225267Y91376D01*
X225295Y91422D01*
X225323Y91449D01*
X225332Y91468D01*
X225341Y91477D01*
X225434Y91579D01*
X225536Y91662D01*
X225637Y91736D01*
X225748Y91801D01*
X225859Y91856D01*
X225961Y91893D01*
X226164Y91967D01*
X226340Y92004D01*
X226423Y92013D01*
X226488Y92023D01*
X226543Y92032D01*
X226617D01*
X226765Y92023D01*
D02*
G37*
%LPC*%
G36*
X58454Y181078D02*
X57455D01*
X57363Y180865D01*
X57243Y180671D01*
X57113Y180486D01*
X56984Y180338D01*
X56873Y180218D01*
X56771Y180125D01*
X56734Y180088D01*
X56706Y180061D01*
X56688Y180051D01*
X56679Y180042D01*
X56475Y179894D01*
X56281Y179765D01*
X56105Y179663D01*
X55948Y179589D01*
X55819Y179534D01*
X55726Y179487D01*
X55689Y179478D01*
X55662Y179469D01*
X55652Y179460D01*
X55643D01*
Y178350D01*
X55976Y178480D01*
X56272Y178618D01*
X56410Y178692D01*
X56540Y178775D01*
X56660Y178849D01*
X56771Y178923D01*
X56873Y178997D01*
X56965Y179062D01*
X57039Y179118D01*
X57104Y179173D01*
X57159Y179219D01*
X57196Y179247D01*
X57215Y179265D01*
X57224Y179275D01*
Y174643D01*
X58454D01*
Y181078D01*
D02*
G37*
G36*
X52333Y181041D02*
X50965D01*
X48487Y174643D01*
X49855D01*
X50382Y176094D01*
X52953D01*
X53507Y174643D01*
X54903D01*
X52333Y181041D01*
D02*
G37*
G36*
X45538D02*
X43180D01*
Y174643D01*
X44474D01*
Y177056D01*
X45621D01*
X45760Y177065D01*
X45889D01*
X46009Y177074D01*
X46120Y177083D01*
X46222Y177093D01*
X46305Y177102D01*
X46388D01*
X46453Y177111D01*
X46518Y177120D01*
X46564Y177130D01*
X46601D01*
X46629Y177139D01*
X46647D01*
X46776Y177176D01*
X46897Y177222D01*
X47008Y177268D01*
X47109Y177324D01*
X47193Y177370D01*
X47257Y177407D01*
X47294Y177435D01*
X47313Y177444D01*
X47433Y177537D01*
X47535Y177638D01*
X47636Y177749D01*
X47710Y177842D01*
X47775Y177934D01*
X47821Y178008D01*
X47849Y178054D01*
X47858Y178073D01*
X47932Y178230D01*
X47988Y178396D01*
X48025Y178572D01*
X48052Y178729D01*
X48071Y178859D01*
Y178923D01*
X48080Y178970D01*
Y179016D01*
Y179044D01*
Y179062D01*
Y179071D01*
X48062Y179339D01*
X48025Y179589D01*
X47960Y179792D01*
X47895Y179977D01*
X47858Y180051D01*
X47821Y180116D01*
X47794Y180172D01*
X47757Y180227D01*
X47738Y180264D01*
X47720Y180292D01*
X47701Y180301D01*
Y180310D01*
X47553Y180477D01*
X47405Y180615D01*
X47248Y180726D01*
X47109Y180809D01*
X46980Y180865D01*
X46878Y180911D01*
X46841Y180920D01*
X46814Y180930D01*
X46795Y180939D01*
X46786D01*
X46712Y180957D01*
X46619Y180976D01*
X46508Y180985D01*
X46398Y180994D01*
X46139Y181013D01*
X45880Y181031D01*
X45639D01*
X45538Y181041D01*
D02*
G37*
%LPD*%
G36*
X52537Y177176D02*
X50771D01*
X51640Y179552D01*
X52537Y177176D01*
D02*
G37*
G36*
X45528Y179950D02*
X45612D01*
X45695Y179940D01*
X45815D01*
X45908Y179931D01*
X45972Y179922D01*
X46009Y179913D01*
X46018D01*
X46129Y179885D01*
X46231Y179848D01*
X46323Y179802D01*
X46398Y179746D01*
X46453Y179700D01*
X46499Y179663D01*
X46527Y179635D01*
X46536Y179626D01*
X46610Y179534D01*
X46656Y179441D01*
X46693Y179339D01*
X46721Y179247D01*
X46740Y179164D01*
X46749Y179099D01*
Y179062D01*
Y179044D01*
X46740Y178942D01*
X46730Y178849D01*
X46703Y178766D01*
X46675Y178692D01*
X46647Y178627D01*
X46629Y178581D01*
X46610Y178554D01*
X46601Y178544D01*
X46545Y178470D01*
X46471Y178406D01*
X46407Y178350D01*
X46342Y178304D01*
X46287Y178276D01*
X46240Y178248D01*
X46203Y178239D01*
X46194Y178230D01*
X46139Y178211D01*
X46074Y178202D01*
X45926Y178174D01*
X45760Y178156D01*
X45593Y178147D01*
X45427D01*
X45362Y178137D01*
X44474D01*
Y179959D01*
X45436D01*
X45528Y179950D01*
D02*
G37*
%LPC*%
G36*
X57483Y206478D02*
X57390D01*
X57224Y206468D01*
X57067Y206450D01*
X56910Y206413D01*
X56771Y206376D01*
X56642Y206320D01*
X56521Y206265D01*
X56420Y206209D01*
X56318Y206145D01*
X56235Y206080D01*
X56152Y206024D01*
X56087Y205969D01*
X56041Y205914D01*
X55994Y205877D01*
X55967Y205840D01*
X55948Y205821D01*
X55939Y205812D01*
X55828Y205655D01*
X55736Y205470D01*
X55652Y205276D01*
X55578Y205072D01*
X55523Y204860D01*
X55467Y204638D01*
X55430Y204425D01*
X55393Y204212D01*
X55375Y204009D01*
X55356Y203824D01*
X55338Y203648D01*
X55329Y203500D01*
X55319Y203380D01*
Y203288D01*
Y203251D01*
Y203223D01*
Y203214D01*
Y203205D01*
X55329Y202872D01*
X55347Y202567D01*
X55375Y202280D01*
X55412Y202021D01*
X55449Y201790D01*
X55495Y201577D01*
X55551Y201392D01*
X55606Y201226D01*
X55652Y201087D01*
X55708Y200958D01*
X55754Y200856D01*
X55800Y200773D01*
X55828Y200718D01*
X55856Y200671D01*
X55874Y200644D01*
X55883Y200634D01*
X55994Y200505D01*
X56115Y200403D01*
X56235Y200301D01*
X56364Y200228D01*
X56484Y200154D01*
X56614Y200098D01*
X56734Y200052D01*
X56854Y200015D01*
X56965Y199978D01*
X57067Y199959D01*
X57159Y199941D01*
X57233Y199932D01*
X57298D01*
X57354Y199922D01*
X57390D01*
X57557Y199932D01*
X57714Y199950D01*
X57871Y199987D01*
X58010Y200024D01*
X58139Y200070D01*
X58260Y200126D01*
X58361Y200191D01*
X58463Y200255D01*
X58546Y200311D01*
X58629Y200375D01*
X58694Y200431D01*
X58750Y200477D01*
X58787Y200514D01*
X58814Y200551D01*
X58833Y200570D01*
X58842Y200579D01*
X58953Y200736D01*
X59045Y200921D01*
X59138Y201115D01*
X59203Y201328D01*
X59267Y201540D01*
X59314Y201753D01*
X59360Y201975D01*
X59397Y202188D01*
X59415Y202391D01*
X59434Y202576D01*
X59452Y202752D01*
X59461Y202899D01*
X59471Y203020D01*
Y203112D01*
Y203149D01*
Y203177D01*
Y203186D01*
Y203195D01*
X59461Y203528D01*
X59443Y203833D01*
X59415Y204111D01*
X59369Y204370D01*
X59323Y204610D01*
X59277Y204823D01*
X59212Y205017D01*
X59156Y205183D01*
X59101Y205340D01*
X59045Y205460D01*
X58990Y205571D01*
X58944Y205664D01*
X58898Y205729D01*
X58870Y205775D01*
X58851Y205803D01*
X58842Y205812D01*
X58740Y205932D01*
X58629Y206034D01*
X58509Y206117D01*
X58389Y206200D01*
X58269Y206265D01*
X58149Y206311D01*
X58038Y206357D01*
X57917Y206394D01*
X57807Y206422D01*
X57714Y206441D01*
X57622Y206459D01*
X57548Y206468D01*
X57483Y206478D01*
D02*
G37*
G36*
X52333Y206441D02*
X50965D01*
X48487Y200043D01*
X49855D01*
X50382Y201494D01*
X52953D01*
X53507Y200043D01*
X54903D01*
X52333Y206441D01*
D02*
G37*
G36*
X45538D02*
X43180D01*
Y200043D01*
X44474D01*
Y202456D01*
X45621D01*
X45760Y202465D01*
X45889D01*
X46009Y202474D01*
X46120Y202484D01*
X46222Y202493D01*
X46305Y202502D01*
X46388D01*
X46453Y202511D01*
X46518Y202520D01*
X46564Y202530D01*
X46601D01*
X46629Y202539D01*
X46647D01*
X46776Y202576D01*
X46897Y202622D01*
X47008Y202668D01*
X47109Y202724D01*
X47193Y202770D01*
X47257Y202807D01*
X47294Y202835D01*
X47313Y202844D01*
X47433Y202936D01*
X47535Y203038D01*
X47636Y203149D01*
X47710Y203242D01*
X47775Y203334D01*
X47821Y203408D01*
X47849Y203454D01*
X47858Y203473D01*
X47932Y203630D01*
X47988Y203796D01*
X48025Y203972D01*
X48052Y204129D01*
X48071Y204259D01*
Y204323D01*
X48080Y204370D01*
Y204416D01*
Y204443D01*
Y204462D01*
Y204471D01*
X48062Y204739D01*
X48025Y204989D01*
X47960Y205192D01*
X47895Y205377D01*
X47858Y205451D01*
X47821Y205516D01*
X47794Y205571D01*
X47757Y205627D01*
X47738Y205664D01*
X47720Y205692D01*
X47701Y205701D01*
Y205710D01*
X47553Y205877D01*
X47405Y206015D01*
X47248Y206126D01*
X47109Y206209D01*
X46980Y206265D01*
X46878Y206311D01*
X46841Y206320D01*
X46814Y206330D01*
X46795Y206339D01*
X46786D01*
X46712Y206357D01*
X46619Y206376D01*
X46508Y206385D01*
X46398Y206394D01*
X46139Y206413D01*
X45880Y206431D01*
X45639D01*
X45538Y206441D01*
D02*
G37*
%LPD*%
G36*
X57474Y205451D02*
X57548Y205442D01*
X57612Y205414D01*
X57668Y205387D01*
X57714Y205359D01*
X57751Y205340D01*
X57770Y205322D01*
X57779Y205313D01*
X57834Y205248D01*
X57890Y205165D01*
X57936Y205072D01*
X57982Y204980D01*
X58010Y204887D01*
X58038Y204813D01*
X58047Y204767D01*
X58056Y204758D01*
Y204749D01*
X58075Y204665D01*
X58093Y204564D01*
X58112Y204443D01*
X58130Y204323D01*
X58149Y204074D01*
X58158Y203815D01*
X58167Y203695D01*
Y203574D01*
X58176Y203473D01*
Y203380D01*
Y203306D01*
Y203242D01*
Y203205D01*
Y203195D01*
Y202992D01*
X58167Y202798D01*
Y202622D01*
X58158Y202465D01*
X58149Y202317D01*
X58139Y202188D01*
X58121Y202067D01*
X58112Y201966D01*
X58102Y201873D01*
X58084Y201799D01*
X58075Y201735D01*
X58065Y201679D01*
X58056Y201642D01*
Y201605D01*
X58047Y201596D01*
Y201587D01*
X58010Y201457D01*
X57964Y201355D01*
X57917Y201263D01*
X57881Y201198D01*
X57843Y201143D01*
X57807Y201106D01*
X57788Y201087D01*
X57779Y201078D01*
X57714Y201032D01*
X57649Y200995D01*
X57585Y200976D01*
X57520Y200958D01*
X57474Y200949D01*
X57428Y200940D01*
X57390D01*
X57307Y200949D01*
X57233Y200958D01*
X57169Y200986D01*
X57113Y201013D01*
X57067Y201032D01*
X57030Y201060D01*
X57011Y201069D01*
X57002Y201078D01*
X56947Y201143D01*
X56891Y201226D01*
X56845Y201318D01*
X56799Y201411D01*
X56771Y201494D01*
X56743Y201568D01*
X56734Y201614D01*
X56725Y201633D01*
X56706Y201725D01*
X56688Y201827D01*
X56669Y201938D01*
X56660Y202058D01*
X56642Y202317D01*
X56632Y202576D01*
X56623Y202696D01*
Y202816D01*
X56614Y202918D01*
Y203011D01*
Y203084D01*
Y203149D01*
Y203186D01*
Y203195D01*
Y203399D01*
X56623Y203593D01*
Y203759D01*
X56632Y203926D01*
X56642Y204065D01*
X56651Y204203D01*
X56660Y204314D01*
X56679Y204425D01*
X56688Y204517D01*
X56697Y204592D01*
X56706Y204656D01*
X56716Y204712D01*
X56725Y204749D01*
Y204786D01*
X56734Y204795D01*
Y204804D01*
X56771Y204933D01*
X56817Y205044D01*
X56854Y205128D01*
X56901Y205202D01*
X56937Y205248D01*
X56965Y205285D01*
X56984Y205303D01*
X56993Y205313D01*
X57058Y205359D01*
X57132Y205396D01*
X57196Y205424D01*
X57261Y205442D01*
X57307Y205451D01*
X57354Y205460D01*
X57390D01*
X57474Y205451D01*
D02*
G37*
G36*
X52537Y202576D02*
X50771D01*
X51640Y204952D01*
X52537Y202576D01*
D02*
G37*
G36*
X45528Y205350D02*
X45612D01*
X45695Y205340D01*
X45815D01*
X45908Y205331D01*
X45972Y205322D01*
X46009Y205313D01*
X46018D01*
X46129Y205285D01*
X46231Y205248D01*
X46323Y205202D01*
X46398Y205146D01*
X46453Y205100D01*
X46499Y205063D01*
X46527Y205035D01*
X46536Y205026D01*
X46610Y204933D01*
X46656Y204841D01*
X46693Y204739D01*
X46721Y204647D01*
X46740Y204564D01*
X46749Y204499D01*
Y204462D01*
Y204443D01*
X46740Y204342D01*
X46730Y204249D01*
X46703Y204166D01*
X46675Y204092D01*
X46647Y204028D01*
X46629Y203981D01*
X46610Y203953D01*
X46601Y203944D01*
X46545Y203870D01*
X46471Y203806D01*
X46407Y203750D01*
X46342Y203704D01*
X46287Y203676D01*
X46240Y203648D01*
X46203Y203639D01*
X46194Y203630D01*
X46139Y203611D01*
X46074Y203602D01*
X45926Y203574D01*
X45760Y203556D01*
X45593Y203547D01*
X45427D01*
X45362Y203538D01*
X44474D01*
Y205359D01*
X45436D01*
X45528Y205350D01*
D02*
G37*
%LPC*%
G36*
X355666Y181041D02*
X352856D01*
Y174643D01*
X355629D01*
X355787Y174652D01*
X356064D01*
X356175Y174661D01*
X356351D01*
X356415Y174670D01*
X356508D01*
X356545Y174680D01*
X356582D01*
X356767Y174707D01*
X356933Y174754D01*
X357081Y174800D01*
X357210Y174855D01*
X357312Y174902D01*
X357386Y174948D01*
X357432Y174975D01*
X357451Y174985D01*
X357580Y175086D01*
X357682Y175197D01*
X357784Y175299D01*
X357858Y175410D01*
X357922Y175502D01*
X357968Y175576D01*
X357996Y175623D01*
X358005Y175641D01*
X358070Y175798D01*
X358126Y175946D01*
X358163Y176094D01*
X358181Y176224D01*
X358200Y176335D01*
X358209Y176418D01*
Y176473D01*
Y176483D01*
Y176492D01*
X358200Y176695D01*
X358163Y176880D01*
X358107Y177037D01*
X358052Y177185D01*
X357996Y177296D01*
X357941Y177379D01*
X357904Y177435D01*
X357895Y177453D01*
X357765Y177601D01*
X357626Y177721D01*
X357469Y177823D01*
X357331Y177897D01*
X357201Y177962D01*
X357090Y178008D01*
X357053Y178017D01*
X357025Y178027D01*
X357007Y178036D01*
X356998D01*
X357146Y178119D01*
X357275Y178202D01*
X357386Y178304D01*
X357478Y178387D01*
X357543Y178470D01*
X357599Y178535D01*
X357636Y178581D01*
X357645Y178600D01*
X357728Y178748D01*
X357793Y178886D01*
X357830Y179025D01*
X357867Y179154D01*
X357885Y179265D01*
X357895Y179349D01*
Y179404D01*
Y179413D01*
Y179423D01*
X357885Y179571D01*
X357867Y179718D01*
X357830Y179839D01*
X357793Y179950D01*
X357756Y180042D01*
X357719Y180116D01*
X357700Y180153D01*
X357691Y180172D01*
X357617Y180292D01*
X357534Y180393D01*
X357451Y180486D01*
X357377Y180569D01*
X357303Y180625D01*
X357247Y180671D01*
X357210Y180699D01*
X357201Y180708D01*
X357090Y180782D01*
X356970Y180837D01*
X356859Y180883D01*
X356757Y180920D01*
X356665Y180948D01*
X356600Y180967D01*
X356554Y180976D01*
X356535D01*
X356378Y180994D01*
X356203Y181013D01*
X356018Y181022D01*
X355833Y181031D01*
X355666Y181041D01*
D02*
G37*
G36*
X363229Y180957D02*
X359032D01*
Y179820D01*
X361815D01*
X361510Y179404D01*
X361241Y178970D01*
X361112Y178766D01*
X361001Y178554D01*
X360899Y178359D01*
X360807Y178174D01*
X360724Y177999D01*
X360650Y177842D01*
X360585Y177694D01*
X360530Y177574D01*
X360493Y177481D01*
X360465Y177407D01*
X360446Y177361D01*
X360437Y177342D01*
X360345Y177083D01*
X360261Y176834D01*
X360197Y176584D01*
X360132Y176344D01*
X360086Y176103D01*
X360039Y175882D01*
X360003Y175669D01*
X359975Y175475D01*
X359947Y175299D01*
X359929Y175133D01*
X359910Y174994D01*
X359901Y174874D01*
Y174772D01*
X359892Y174698D01*
Y174661D01*
Y174643D01*
X361075D01*
X361084Y174966D01*
X361112Y175299D01*
X361158Y175623D01*
X361177Y175771D01*
X361204Y175919D01*
X361232Y176048D01*
X361260Y176177D01*
X361278Y176279D01*
X361297Y176372D01*
X361315Y176455D01*
X361334Y176510D01*
X361343Y176547D01*
Y176556D01*
X361463Y176954D01*
X361593Y177333D01*
X361657Y177509D01*
X361731Y177675D01*
X361796Y177832D01*
X361861Y177980D01*
X361926Y178110D01*
X361981Y178230D01*
X362037Y178341D01*
X362074Y178424D01*
X362110Y178498D01*
X362138Y178544D01*
X362157Y178581D01*
X362166Y178591D01*
X362268Y178766D01*
X362369Y178933D01*
X362462Y179081D01*
X362554Y179228D01*
X362647Y179358D01*
X362739Y179478D01*
X362822Y179589D01*
X362896Y179691D01*
X362970Y179783D01*
X363035Y179857D01*
X363091Y179922D01*
X363137Y179977D01*
X363174Y180014D01*
X363201Y180042D01*
X363220Y180061D01*
X363229Y180070D01*
Y180957D01*
D02*
G37*
G36*
X349250Y181041D02*
X346892D01*
Y174643D01*
X348187D01*
Y177056D01*
X349333D01*
X349472Y177065D01*
X349601D01*
X349721Y177074D01*
X349832Y177083D01*
X349934Y177093D01*
X350017Y177102D01*
X350101D01*
X350165Y177111D01*
X350230Y177120D01*
X350276Y177130D01*
X350313D01*
X350341Y177139D01*
X350359D01*
X350489Y177176D01*
X350609Y177222D01*
X350720Y177268D01*
X350822Y177324D01*
X350905Y177370D01*
X350970Y177407D01*
X351007Y177435D01*
X351025Y177444D01*
X351145Y177537D01*
X351247Y177638D01*
X351349Y177749D01*
X351423Y177842D01*
X351487Y177934D01*
X351534Y178008D01*
X351561Y178054D01*
X351571Y178073D01*
X351645Y178230D01*
X351700Y178396D01*
X351737Y178572D01*
X351765Y178729D01*
X351783Y178859D01*
Y178923D01*
X351792Y178970D01*
Y179016D01*
Y179044D01*
Y179062D01*
Y179071D01*
X351774Y179339D01*
X351737Y179589D01*
X351672Y179792D01*
X351608Y179977D01*
X351571Y180051D01*
X351534Y180116D01*
X351506Y180172D01*
X351469Y180227D01*
X351450Y180264D01*
X351432Y180292D01*
X351413Y180301D01*
Y180310D01*
X351265Y180477D01*
X351118Y180615D01*
X350960Y180726D01*
X350822Y180809D01*
X350692Y180865D01*
X350591Y180911D01*
X350554Y180920D01*
X350526Y180930D01*
X350507Y180939D01*
X350498D01*
X350424Y180957D01*
X350332Y180976D01*
X350221Y180985D01*
X350110Y180994D01*
X349851Y181013D01*
X349592Y181031D01*
X349352D01*
X349250Y181041D01*
D02*
G37*
%LPD*%
G36*
X355620Y177426D02*
X355731Y177416D01*
X355842D01*
X355934Y177407D01*
X356018Y177398D01*
X356082Y177389D01*
X356147Y177379D01*
X356193Y177370D01*
X356267Y177361D01*
X356314Y177342D01*
X356323D01*
X356415Y177305D01*
X356498Y177259D01*
X356572Y177213D01*
X356628Y177157D01*
X356674Y177120D01*
X356702Y177083D01*
X356720Y177056D01*
X356730Y177047D01*
X356776Y176963D01*
X356813Y176880D01*
X356841Y176806D01*
X356859Y176723D01*
X356868Y176658D01*
X356878Y176603D01*
Y176566D01*
Y176556D01*
X356868Y176436D01*
X356850Y176325D01*
X356822Y176233D01*
X356785Y176159D01*
X356748Y176094D01*
X356720Y176048D01*
X356702Y176020D01*
X356693Y176011D01*
X356619Y175946D01*
X356545Y175891D01*
X356461Y175845D01*
X356387Y175808D01*
X356323Y175789D01*
X356267Y175771D01*
X356230Y175761D01*
X356221D01*
X356184Y175752D01*
X356129D01*
X356008Y175743D01*
X355860Y175734D01*
X355713D01*
X355574Y175724D01*
X354150D01*
Y177435D01*
X355491D01*
X355620Y177426D01*
D02*
G37*
G36*
X355537Y179968D02*
X355777D01*
X355833Y179959D01*
X355934D01*
X355971Y179950D01*
X355981D01*
X356092Y179931D01*
X356193Y179903D01*
X356277Y179866D01*
X356351Y179829D01*
X356397Y179792D01*
X356443Y179755D01*
X356461Y179737D01*
X356471Y179728D01*
X356526Y179654D01*
X356563Y179571D01*
X356600Y179497D01*
X356619Y179423D01*
X356628Y179349D01*
X356637Y179293D01*
Y179256D01*
Y179247D01*
X356628Y179136D01*
X356609Y179034D01*
X356572Y178951D01*
X356545Y178877D01*
X356508Y178812D01*
X356471Y178775D01*
X356452Y178748D01*
X356443Y178738D01*
X356369Y178674D01*
X356286Y178627D01*
X356203Y178591D01*
X356119Y178563D01*
X356036Y178535D01*
X355981Y178526D01*
X355944Y178517D01*
X355888D01*
X355833Y178507D01*
X355546D01*
X355389Y178498D01*
X354150D01*
Y179977D01*
X355435D01*
X355537Y179968D01*
D02*
G37*
G36*
X349241Y179950D02*
X349324D01*
X349407Y179940D01*
X349527D01*
X349620Y179931D01*
X349684Y179922D01*
X349721Y179913D01*
X349731D01*
X349842Y179885D01*
X349943Y179848D01*
X350036Y179802D01*
X350110Y179746D01*
X350165Y179700D01*
X350211Y179663D01*
X350239Y179635D01*
X350248Y179626D01*
X350322Y179534D01*
X350369Y179441D01*
X350406Y179339D01*
X350433Y179247D01*
X350452Y179164D01*
X350461Y179099D01*
Y179062D01*
Y179044D01*
X350452Y178942D01*
X350443Y178849D01*
X350415Y178766D01*
X350387Y178692D01*
X350359Y178627D01*
X350341Y178581D01*
X350322Y178554D01*
X350313Y178544D01*
X350258Y178470D01*
X350184Y178406D01*
X350119Y178350D01*
X350054Y178304D01*
X349999Y178276D01*
X349953Y178248D01*
X349916Y178239D01*
X349906Y178230D01*
X349851Y178211D01*
X349786Y178202D01*
X349638Y178174D01*
X349472Y178156D01*
X349305Y178147D01*
X349139D01*
X349074Y178137D01*
X348187D01*
Y179959D01*
X349148D01*
X349241Y179950D01*
D02*
G37*
%LPC*%
G36*
X347308Y257278D02*
X347225D01*
X347031Y257268D01*
X346855Y257250D01*
X346689Y257213D01*
X346550Y257176D01*
X346439Y257139D01*
X346347Y257102D01*
X346291Y257083D01*
X346282Y257074D01*
X346273D01*
X346125Y256991D01*
X345986Y256898D01*
X345875Y256806D01*
X345783Y256723D01*
X345709Y256640D01*
X345653Y256575D01*
X345616Y256538D01*
X345607Y256519D01*
X345524Y256381D01*
X345450Y256233D01*
X345395Y256076D01*
X345339Y255928D01*
X345302Y255789D01*
X345274Y255687D01*
X345265Y255641D01*
Y255613D01*
X345256Y255595D01*
Y255586D01*
X346384Y255401D01*
X346412Y255549D01*
X346449Y255678D01*
X346485Y255789D01*
X346532Y255872D01*
X346578Y255946D01*
X346615Y256002D01*
X346643Y256029D01*
X346652Y256039D01*
X346735Y256113D01*
X346828Y256168D01*
X346920Y256205D01*
X347003Y256233D01*
X347077Y256251D01*
X347133Y256261D01*
X347188D01*
X347299Y256251D01*
X347410Y256233D01*
X347493Y256196D01*
X347567Y256168D01*
X347632Y256131D01*
X347669Y256094D01*
X347697Y256076D01*
X347706Y256066D01*
X347771Y255992D01*
X347817Y255900D01*
X347854Y255817D01*
X347872Y255734D01*
X347891Y255660D01*
X347900Y255604D01*
Y255567D01*
Y255549D01*
X347891Y255410D01*
X347863Y255290D01*
X347817Y255188D01*
X347771Y255105D01*
X347715Y255031D01*
X347678Y254985D01*
X347641Y254948D01*
X347632Y254938D01*
X347521Y254865D01*
X347401Y254809D01*
X347271Y254772D01*
X347151Y254744D01*
X347040Y254735D01*
X346948Y254726D01*
X346865D01*
X346735Y253736D01*
X346855Y253764D01*
X346957Y253792D01*
X347059Y253811D01*
X347142Y253820D01*
X347207Y253829D01*
X347299D01*
X347429Y253820D01*
X347539Y253783D01*
X347641Y253746D01*
X347734Y253690D01*
X347798Y253644D01*
X347854Y253598D01*
X347891Y253561D01*
X347900Y253552D01*
X347983Y253441D01*
X348048Y253320D01*
X348094Y253200D01*
X348131Y253080D01*
X348150Y252969D01*
X348159Y252886D01*
Y252830D01*
Y252821D01*
Y252812D01*
X348150Y252636D01*
X348122Y252479D01*
X348076Y252340D01*
X348030Y252229D01*
X347974Y252146D01*
X347937Y252082D01*
X347900Y252035D01*
X347891Y252026D01*
X347789Y251934D01*
X347678Y251860D01*
X347576Y251813D01*
X347475Y251776D01*
X347382Y251758D01*
X347318Y251749D01*
X347271Y251740D01*
X347253D01*
X347123Y251749D01*
X347012Y251776D01*
X346911Y251813D01*
X346818Y251860D01*
X346754Y251897D01*
X346698Y251934D01*
X346661Y251961D01*
X346652Y251971D01*
X346569Y252072D01*
X346495Y252183D01*
X346449Y252303D01*
X346402Y252414D01*
X346375Y252516D01*
X346356Y252599D01*
X346347Y252655D01*
Y252664D01*
Y252673D01*
X345163Y252525D01*
X345182Y252377D01*
X345219Y252239D01*
X345302Y251980D01*
X345404Y251758D01*
X345468Y251665D01*
X345524Y251573D01*
X345579Y251490D01*
X345635Y251425D01*
X345681Y251360D01*
X345727Y251314D01*
X345764Y251277D01*
X345792Y251249D01*
X345811Y251231D01*
X345820Y251222D01*
X345931Y251138D01*
X346051Y251055D01*
X346162Y250991D01*
X346291Y250935D01*
X346532Y250843D01*
X346754Y250787D01*
X346865Y250769D01*
X346957Y250750D01*
X347040Y250741D01*
X347114Y250732D01*
X347179Y250722D01*
X347262D01*
X347429Y250732D01*
X347595Y250750D01*
X347743Y250778D01*
X347891Y250815D01*
X348020Y250861D01*
X348150Y250907D01*
X348270Y250963D01*
X348372Y251018D01*
X348464Y251074D01*
X348557Y251129D01*
X348621Y251175D01*
X348686Y251222D01*
X348732Y251259D01*
X348769Y251286D01*
X348788Y251305D01*
X348797Y251314D01*
X348908Y251425D01*
X349000Y251545D01*
X349084Y251665D01*
X349157Y251786D01*
X349213Y251915D01*
X349268Y252035D01*
X349342Y252257D01*
X349361Y252359D01*
X349379Y252461D01*
X349398Y252544D01*
X349407Y252618D01*
X349416Y252673D01*
Y252719D01*
Y252747D01*
Y252757D01*
X349398Y252969D01*
X349361Y253154D01*
X349315Y253330D01*
X349250Y253468D01*
X349185Y253589D01*
X349139Y253672D01*
X349102Y253727D01*
X349084Y253746D01*
X348954Y253884D01*
X348806Y254005D01*
X348658Y254097D01*
X348520Y254171D01*
X348399Y254226D01*
X348298Y254254D01*
X348261Y254273D01*
X348233D01*
X348214Y254282D01*
X348205D01*
X348372Y254384D01*
X348510Y254485D01*
X348630Y254596D01*
X348741Y254707D01*
X348834Y254818D01*
X348908Y254929D01*
X348963Y255040D01*
X349019Y255142D01*
X349056Y255243D01*
X349084Y255336D01*
X349102Y255419D01*
X349111Y255493D01*
X349120Y255549D01*
X349130Y255595D01*
Y255623D01*
Y255632D01*
X349120Y255743D01*
X349111Y255844D01*
X349056Y256048D01*
X348991Y256233D01*
X348908Y256390D01*
X348825Y256519D01*
X348751Y256612D01*
X348723Y256649D01*
X348695Y256677D01*
X348686Y256686D01*
X348677Y256695D01*
X348575Y256797D01*
X348455Y256889D01*
X348344Y256963D01*
X348224Y257028D01*
X348094Y257093D01*
X347974Y257139D01*
X347743Y257204D01*
X347641Y257231D01*
X347539Y257250D01*
X347456Y257259D01*
X347373Y257268D01*
X347308Y257278D01*
D02*
G37*
G36*
X351672Y252072D02*
X350443D01*
Y250843D01*
X351672D01*
Y252072D01*
D02*
G37*
G36*
X342769Y256224D02*
X341650D01*
Y254569D01*
X339977D01*
Y253422D01*
X341650D01*
Y251767D01*
X342769D01*
Y253422D01*
X344451D01*
Y254569D01*
X342769D01*
Y256224D01*
D02*
G37*
G36*
X363229Y257241D02*
X361852D01*
X360289Y252507D01*
X358662Y257241D01*
X357266D01*
X359559Y250843D01*
X360955D01*
X363229Y257241D01*
D02*
G37*
G36*
X354770Y257278D02*
X354686D01*
X354492Y257268D01*
X354316Y257250D01*
X354150Y257213D01*
X354011Y257176D01*
X353900Y257139D01*
X353808Y257102D01*
X353753Y257083D01*
X353743Y257074D01*
X353734D01*
X353586Y256991D01*
X353447Y256898D01*
X353336Y256806D01*
X353244Y256723D01*
X353170Y256640D01*
X353115Y256575D01*
X353078Y256538D01*
X353068Y256519D01*
X352985Y256381D01*
X352911Y256233D01*
X352856Y256076D01*
X352800Y255928D01*
X352763Y255789D01*
X352735Y255687D01*
X352726Y255641D01*
Y255613D01*
X352717Y255595D01*
Y255586D01*
X353845Y255401D01*
X353873Y255549D01*
X353910Y255678D01*
X353947Y255789D01*
X353993Y255872D01*
X354039Y255946D01*
X354076Y256002D01*
X354104Y256029D01*
X354113Y256039D01*
X354196Y256113D01*
X354289Y256168D01*
X354381Y256205D01*
X354464Y256233D01*
X354538Y256251D01*
X354594Y256261D01*
X354649D01*
X354760Y256251D01*
X354871Y256233D01*
X354954Y256196D01*
X355028Y256168D01*
X355093Y256131D01*
X355130Y256094D01*
X355158Y256076D01*
X355167Y256066D01*
X355232Y255992D01*
X355278Y255900D01*
X355315Y255817D01*
X355334Y255734D01*
X355352Y255660D01*
X355361Y255604D01*
Y255567D01*
Y255549D01*
X355352Y255410D01*
X355324Y255290D01*
X355278Y255188D01*
X355232Y255105D01*
X355176Y255031D01*
X355139Y254985D01*
X355102Y254948D01*
X355093Y254938D01*
X354982Y254865D01*
X354862Y254809D01*
X354733Y254772D01*
X354612Y254744D01*
X354501Y254735D01*
X354409Y254726D01*
X354326D01*
X354196Y253736D01*
X354316Y253764D01*
X354418Y253792D01*
X354520Y253811D01*
X354603Y253820D01*
X354668Y253829D01*
X354760D01*
X354890Y253820D01*
X355001Y253783D01*
X355102Y253746D01*
X355195Y253690D01*
X355260Y253644D01*
X355315Y253598D01*
X355352Y253561D01*
X355361Y253552D01*
X355444Y253441D01*
X355509Y253320D01*
X355555Y253200D01*
X355592Y253080D01*
X355611Y252969D01*
X355620Y252886D01*
Y252830D01*
Y252821D01*
Y252812D01*
X355611Y252636D01*
X355583Y252479D01*
X355537Y252340D01*
X355491Y252229D01*
X355435Y252146D01*
X355398Y252082D01*
X355361Y252035D01*
X355352Y252026D01*
X355250Y251934D01*
X355139Y251860D01*
X355038Y251813D01*
X354936Y251776D01*
X354843Y251758D01*
X354779Y251749D01*
X354733Y251740D01*
X354714D01*
X354585Y251749D01*
X354474Y251776D01*
X354372Y251813D01*
X354280Y251860D01*
X354215Y251897D01*
X354159Y251934D01*
X354122Y251961D01*
X354113Y251971D01*
X354030Y252072D01*
X353956Y252183D01*
X353910Y252303D01*
X353863Y252414D01*
X353836Y252516D01*
X353817Y252599D01*
X353808Y252655D01*
Y252664D01*
Y252673D01*
X352625Y252525D01*
X352643Y252377D01*
X352680Y252239D01*
X352763Y251980D01*
X352865Y251758D01*
X352930Y251665D01*
X352985Y251573D01*
X353041Y251490D01*
X353096Y251425D01*
X353142Y251360D01*
X353189Y251314D01*
X353226Y251277D01*
X353253Y251249D01*
X353272Y251231D01*
X353281Y251222D01*
X353392Y251138D01*
X353512Y251055D01*
X353623Y250991D01*
X353753Y250935D01*
X353993Y250843D01*
X354215Y250787D01*
X354326Y250769D01*
X354418Y250750D01*
X354501Y250741D01*
X354575Y250732D01*
X354640Y250722D01*
X354723D01*
X354890Y250732D01*
X355056Y250750D01*
X355204Y250778D01*
X355352Y250815D01*
X355481Y250861D01*
X355611Y250907D01*
X355731Y250963D01*
X355833Y251018D01*
X355925Y251074D01*
X356018Y251129D01*
X356082Y251175D01*
X356147Y251222D01*
X356193Y251259D01*
X356230Y251286D01*
X356249Y251305D01*
X356258Y251314D01*
X356369Y251425D01*
X356461Y251545D01*
X356545Y251665D01*
X356619Y251786D01*
X356674Y251915D01*
X356730Y252035D01*
X356804Y252257D01*
X356822Y252359D01*
X356841Y252461D01*
X356859Y252544D01*
X356868Y252618D01*
X356878Y252673D01*
Y252719D01*
Y252747D01*
Y252757D01*
X356859Y252969D01*
X356822Y253154D01*
X356776Y253330D01*
X356711Y253468D01*
X356646Y253589D01*
X356600Y253672D01*
X356563Y253727D01*
X356545Y253746D01*
X356415Y253884D01*
X356267Y254005D01*
X356119Y254097D01*
X355981Y254171D01*
X355860Y254226D01*
X355759Y254254D01*
X355722Y254273D01*
X355694D01*
X355676Y254282D01*
X355666D01*
X355833Y254384D01*
X355971Y254485D01*
X356092Y254596D01*
X356203Y254707D01*
X356295Y254818D01*
X356369Y254929D01*
X356424Y255040D01*
X356480Y255142D01*
X356517Y255243D01*
X356545Y255336D01*
X356563Y255419D01*
X356572Y255493D01*
X356582Y255549D01*
X356591Y255595D01*
Y255623D01*
Y255632D01*
X356582Y255743D01*
X356572Y255844D01*
X356517Y256048D01*
X356452Y256233D01*
X356369Y256390D01*
X356286Y256519D01*
X356212Y256612D01*
X356184Y256649D01*
X356156Y256677D01*
X356147Y256686D01*
X356138Y256695D01*
X356036Y256797D01*
X355916Y256889D01*
X355805Y256963D01*
X355685Y257028D01*
X355555Y257093D01*
X355435Y257139D01*
X355204Y257204D01*
X355102Y257231D01*
X355001Y257250D01*
X354917Y257259D01*
X354834Y257268D01*
X354770Y257278D01*
D02*
G37*
G36*
X245049Y188128D02*
X244939D01*
X244698Y188119D01*
X244458Y188091D01*
X244245Y188045D01*
X244032Y187990D01*
X243848Y187925D01*
X243663Y187851D01*
X243505Y187768D01*
X243358Y187684D01*
X243219Y187601D01*
X243108Y187518D01*
X243006Y187444D01*
X242923Y187379D01*
X242858Y187324D01*
X242812Y187278D01*
X242784Y187250D01*
X242775Y187241D01*
X242627Y187065D01*
X242507Y186880D01*
X242396Y186686D01*
X242304Y186482D01*
X242220Y186270D01*
X242156Y186066D01*
X242100Y185863D01*
X242054Y185669D01*
X242017Y185475D01*
X241999Y185308D01*
X241980Y185151D01*
X241961Y185022D01*
Y184911D01*
X241952Y184827D01*
Y184772D01*
Y184763D01*
Y184753D01*
X241961Y184476D01*
X241989Y184217D01*
X242026Y183968D01*
X242082Y183746D01*
X242137Y183533D01*
X242211Y183330D01*
X242285Y183154D01*
X242359Y182997D01*
X242433Y182849D01*
X242507Y182719D01*
X242581Y182618D01*
X242636Y182525D01*
X242692Y182461D01*
X242729Y182405D01*
X242757Y182377D01*
X242766Y182368D01*
X242923Y182211D01*
X243090Y182082D01*
X243265Y181961D01*
X243441Y181869D01*
X243617Y181786D01*
X243792Y181712D01*
X243959Y181656D01*
X244116Y181610D01*
X244273Y181573D01*
X244412Y181545D01*
X244541Y181527D01*
X244643Y181518D01*
X244735Y181508D01*
X244800Y181499D01*
X244855D01*
X245049Y181508D01*
X245225Y181518D01*
X245401Y181545D01*
X245558Y181582D01*
X245706Y181619D01*
X245845Y181656D01*
X245974Y181702D01*
X246094Y181758D01*
X246196Y181804D01*
X246289Y181850D01*
X246372Y181887D01*
X246436Y181924D01*
X246492Y181961D01*
X246529Y181989D01*
X246547Y181998D01*
X246557Y182008D01*
X246677Y182109D01*
X246788Y182220D01*
X246991Y182470D01*
X247157Y182729D01*
X247287Y182978D01*
X247342Y183099D01*
X247389Y183209D01*
X247426Y183311D01*
X247463Y183394D01*
X247490Y183468D01*
X247509Y183524D01*
X247518Y183561D01*
Y183570D01*
X246261Y183958D01*
X246187Y183709D01*
X246103Y183496D01*
X246020Y183320D01*
X245928Y183172D01*
X245854Y183062D01*
X245789Y182988D01*
X245743Y182941D01*
X245725Y182923D01*
X245576Y182812D01*
X245429Y182738D01*
X245281Y182682D01*
X245151Y182636D01*
X245031Y182618D01*
X244929Y182609D01*
X244892Y182599D01*
X244846D01*
X244717Y182609D01*
X244597Y182618D01*
X244375Y182682D01*
X244181Y182757D01*
X244023Y182858D01*
X243894Y182951D01*
X243801Y183025D01*
X243764Y183062D01*
X243737Y183089D01*
X243727Y183099D01*
X243718Y183108D01*
X243644Y183209D01*
X243580Y183330D01*
X243515Y183459D01*
X243469Y183598D01*
X243395Y183884D01*
X243339Y184171D01*
X243321Y184310D01*
X243311Y184430D01*
X243293Y184550D01*
Y184652D01*
X243284Y184726D01*
Y184790D01*
Y184837D01*
Y184846D01*
X243293Y185059D01*
X243302Y185253D01*
X243321Y185428D01*
X243348Y185595D01*
X243385Y185743D01*
X243422Y185882D01*
X243459Y186002D01*
X243505Y186113D01*
X243542Y186205D01*
X243580Y186288D01*
X243617Y186353D01*
X243654Y186409D01*
X243681Y186455D01*
X243700Y186482D01*
X243718Y186501D01*
Y186510D01*
X243801Y186603D01*
X243894Y186686D01*
X243986Y186751D01*
X244088Y186806D01*
X244282Y186898D01*
X244467Y186963D01*
X244624Y187000D01*
X244698Y187009D01*
X244754Y187019D01*
X244809Y187028D01*
X244874D01*
X245059Y187019D01*
X245225Y186982D01*
X245373Y186936D01*
X245503Y186880D01*
X245604Y186824D01*
X245678Y186778D01*
X245725Y186741D01*
X245743Y186732D01*
X245863Y186621D01*
X245974Y186492D01*
X246057Y186362D01*
X246122Y186233D01*
X246168Y186122D01*
X246196Y186039D01*
X246215Y186002D01*
Y185974D01*
X246224Y185965D01*
Y185955D01*
X247500Y186261D01*
X247407Y186529D01*
X247306Y186760D01*
X247194Y186963D01*
X247093Y187130D01*
X246991Y187259D01*
X246954Y187314D01*
X246917Y187361D01*
X246889Y187388D01*
X246862Y187416D01*
X246852Y187435D01*
X246843D01*
X246705Y187555D01*
X246547Y187666D01*
X246399Y187758D01*
X246242Y187832D01*
X246076Y187906D01*
X245919Y187962D01*
X245762Y188008D01*
X245613Y188045D01*
X245475Y188073D01*
X245345Y188091D01*
X245235Y188110D01*
X245133Y188119D01*
X245049Y188128D01*
D02*
G37*
G36*
X256930Y188036D02*
X255895D01*
X253121Y183958D01*
Y182895D01*
X255747D01*
Y181610D01*
X256930D01*
Y182895D01*
X257725D01*
Y183968D01*
X256930D01*
Y188036D01*
D02*
G37*
G36*
X251494Y188045D02*
X250495D01*
X250403Y187832D01*
X250283Y187638D01*
X250153Y187453D01*
X250024Y187305D01*
X249913Y187185D01*
X249811Y187093D01*
X249774Y187056D01*
X249746Y187028D01*
X249728Y187019D01*
X249719Y187009D01*
X249515Y186861D01*
X249321Y186732D01*
X249145Y186630D01*
X248988Y186556D01*
X248859Y186501D01*
X248766Y186455D01*
X248729Y186445D01*
X248702Y186436D01*
X248692Y186427D01*
X248683D01*
Y185317D01*
X249016Y185447D01*
X249312Y185586D01*
X249450Y185660D01*
X249580Y185743D01*
X249700Y185817D01*
X249811Y185891D01*
X249913Y185965D01*
X250005Y186029D01*
X250079Y186085D01*
X250144Y186140D01*
X250199Y186187D01*
X250236Y186214D01*
X250255Y186233D01*
X250264Y186242D01*
Y181610D01*
X251494D01*
Y188045D01*
D02*
G37*
G36*
X238578Y188008D02*
X236220D01*
Y181610D01*
X237514D01*
Y184023D01*
X238661D01*
X238799Y184032D01*
X238929D01*
X239049Y184042D01*
X239160Y184051D01*
X239262Y184060D01*
X239345Y184069D01*
X239428D01*
X239493Y184079D01*
X239558Y184088D01*
X239604Y184097D01*
X239641D01*
X239669Y184106D01*
X239687D01*
X239816Y184143D01*
X239937Y184189D01*
X240048Y184236D01*
X240149Y184291D01*
X240233Y184338D01*
X240297Y184374D01*
X240334Y184402D01*
X240353Y184411D01*
X240473Y184504D01*
X240575Y184606D01*
X240676Y184716D01*
X240750Y184809D01*
X240815Y184901D01*
X240861Y184975D01*
X240889Y185022D01*
X240898Y185040D01*
X240972Y185197D01*
X241028Y185364D01*
X241065Y185539D01*
X241092Y185697D01*
X241111Y185826D01*
Y185891D01*
X241120Y185937D01*
Y185983D01*
Y186011D01*
Y186029D01*
Y186039D01*
X241102Y186307D01*
X241065Y186556D01*
X241000Y186760D01*
X240935Y186945D01*
X240898Y187019D01*
X240861Y187083D01*
X240834Y187139D01*
X240797Y187194D01*
X240778Y187231D01*
X240760Y187259D01*
X240741Y187268D01*
Y187278D01*
X240593Y187444D01*
X240445Y187583D01*
X240288Y187694D01*
X240149Y187777D01*
X240020Y187832D01*
X239918Y187878D01*
X239881Y187888D01*
X239853Y187897D01*
X239835Y187906D01*
X239826D01*
X239752Y187925D01*
X239659Y187943D01*
X239548Y187952D01*
X239438Y187962D01*
X239179Y187980D01*
X238920Y187999D01*
X238679D01*
X238578Y188008D01*
D02*
G37*
%LPD*%
G36*
X255747Y183968D02*
X254258D01*
X255747Y186168D01*
Y183968D01*
D02*
G37*
G36*
X238568Y186917D02*
X238652D01*
X238735Y186908D01*
X238855D01*
X238948Y186898D01*
X239012Y186889D01*
X239049Y186880D01*
X239058D01*
X239169Y186852D01*
X239271Y186815D01*
X239363Y186769D01*
X239438Y186714D01*
X239493Y186667D01*
X239539Y186630D01*
X239567Y186603D01*
X239576Y186593D01*
X239650Y186501D01*
X239696Y186409D01*
X239733Y186307D01*
X239761Y186214D01*
X239780Y186131D01*
X239789Y186066D01*
Y186029D01*
Y186011D01*
X239780Y185909D01*
X239770Y185817D01*
X239743Y185734D01*
X239715Y185660D01*
X239687Y185595D01*
X239669Y185549D01*
X239650Y185521D01*
X239641Y185512D01*
X239585Y185438D01*
X239511Y185373D01*
X239447Y185317D01*
X239382Y185271D01*
X239326Y185243D01*
X239280Y185216D01*
X239243Y185207D01*
X239234Y185197D01*
X239179Y185179D01*
X239114Y185170D01*
X238966Y185142D01*
X238799Y185123D01*
X238633Y185114D01*
X238467D01*
X238402Y185105D01*
X237514D01*
Y186926D01*
X238476D01*
X238568Y186917D01*
D02*
G37*
%LPC*%
G36*
X344082Y147368D02*
X341724D01*
Y140970D01*
X343018D01*
Y143383D01*
X344165D01*
X344304Y143392D01*
X344433D01*
X344553Y143402D01*
X344664Y143411D01*
X344766Y143420D01*
X344849Y143429D01*
X344932D01*
X344997Y143439D01*
X345062Y143448D01*
X345108Y143457D01*
X345145D01*
X345173Y143466D01*
X345191D01*
X345321Y143503D01*
X345441Y143549D01*
X345552Y143596D01*
X345653Y143651D01*
X345737Y143698D01*
X345801Y143734D01*
X345838Y143762D01*
X345857Y143771D01*
X345977Y143864D01*
X346079Y143966D01*
X346180Y144076D01*
X346254Y144169D01*
X346319Y144261D01*
X346365Y144335D01*
X346393Y144382D01*
X346402Y144400D01*
X346476Y144557D01*
X346532Y144724D01*
X346569Y144899D01*
X346596Y145057D01*
X346615Y145186D01*
Y145251D01*
X346624Y145297D01*
Y145343D01*
Y145371D01*
Y145389D01*
Y145399D01*
X346606Y145667D01*
X346569Y145916D01*
X346504Y146120D01*
X346439Y146305D01*
X346402Y146379D01*
X346365Y146443D01*
X346338Y146499D01*
X346301Y146554D01*
X346282Y146591D01*
X346264Y146619D01*
X346245Y146628D01*
Y146638D01*
X346097Y146804D01*
X345949Y146943D01*
X345792Y147054D01*
X345653Y147137D01*
X345524Y147192D01*
X345422Y147239D01*
X345385Y147248D01*
X345358Y147257D01*
X345339Y147266D01*
X345330D01*
X345256Y147285D01*
X345163Y147303D01*
X345052Y147312D01*
X344941Y147322D01*
X344683Y147340D01*
X344424Y147359D01*
X344183D01*
X344082Y147368D01*
D02*
G37*
G36*
X350877D02*
X349509D01*
X347031Y140970D01*
X348399D01*
X348926Y142422D01*
X351497D01*
X352051Y140970D01*
X353447D01*
X350877Y147368D01*
D02*
G37*
G36*
X356998Y147405D02*
X355999D01*
X355907Y147192D01*
X355787Y146998D01*
X355657Y146813D01*
X355528Y146665D01*
X355417Y146545D01*
X355315Y146453D01*
X355278Y146416D01*
X355250Y146388D01*
X355232Y146379D01*
X355223Y146369D01*
X355019Y146222D01*
X354825Y146092D01*
X354649Y145990D01*
X354492Y145916D01*
X354363Y145861D01*
X354270Y145815D01*
X354233Y145805D01*
X354206Y145796D01*
X354196Y145787D01*
X354187D01*
Y144677D01*
X354520Y144807D01*
X354816Y144946D01*
X354954Y145020D01*
X355084Y145103D01*
X355204Y145177D01*
X355315Y145251D01*
X355417Y145325D01*
X355509Y145389D01*
X355583Y145445D01*
X355648Y145500D01*
X355703Y145547D01*
X355740Y145574D01*
X355759Y145593D01*
X355768Y145602D01*
Y140970D01*
X356998D01*
Y147405D01*
D02*
G37*
G36*
X362434Y147396D02*
X361399D01*
X358625Y143318D01*
Y142255D01*
X361251D01*
Y140970D01*
X362434D01*
Y142255D01*
X363229D01*
Y143328D01*
X362434D01*
Y147396D01*
D02*
G37*
%LPD*%
G36*
X344072Y146277D02*
X344156D01*
X344239Y146268D01*
X344359D01*
X344451Y146258D01*
X344516Y146249D01*
X344553Y146240D01*
X344562D01*
X344673Y146212D01*
X344775Y146175D01*
X344868Y146129D01*
X344941Y146074D01*
X344997Y146027D01*
X345043Y145990D01*
X345071Y145963D01*
X345080Y145953D01*
X345154Y145861D01*
X345200Y145768D01*
X345237Y145667D01*
X345265Y145574D01*
X345284Y145491D01*
X345293Y145426D01*
Y145389D01*
Y145371D01*
X345284Y145269D01*
X345274Y145177D01*
X345247Y145093D01*
X345219Y145020D01*
X345191Y144955D01*
X345173Y144909D01*
X345154Y144881D01*
X345145Y144872D01*
X345089Y144798D01*
X345015Y144733D01*
X344951Y144677D01*
X344886Y144631D01*
X344831Y144604D01*
X344784Y144576D01*
X344747Y144566D01*
X344738Y144557D01*
X344683Y144539D01*
X344618Y144530D01*
X344470Y144502D01*
X344304Y144483D01*
X344137Y144474D01*
X343971D01*
X343906Y144465D01*
X343018D01*
Y146286D01*
X343980D01*
X344072Y146277D01*
D02*
G37*
G36*
X351081Y143503D02*
X349315D01*
X350184Y145879D01*
X351081Y143503D01*
D02*
G37*
G36*
X361251Y143328D02*
X359762D01*
X361251Y145528D01*
Y143328D01*
D02*
G37*
%LPC*%
G36*
X308644Y188045D02*
X307645D01*
X307553Y187832D01*
X307433Y187638D01*
X307303Y187453D01*
X307174Y187305D01*
X307063Y187185D01*
X306961Y187093D01*
X306924Y187056D01*
X306896Y187028D01*
X306878Y187019D01*
X306869Y187009D01*
X306665Y186861D01*
X306471Y186732D01*
X306295Y186630D01*
X306138Y186556D01*
X306009Y186501D01*
X305916Y186455D01*
X305879Y186445D01*
X305852Y186436D01*
X305842Y186427D01*
X305833D01*
Y185317D01*
X306166Y185447D01*
X306462Y185586D01*
X306600Y185660D01*
X306730Y185743D01*
X306850Y185817D01*
X306961Y185891D01*
X307063Y185965D01*
X307155Y186029D01*
X307229Y186085D01*
X307294Y186140D01*
X307349Y186187D01*
X307386Y186214D01*
X307405Y186233D01*
X307414Y186242D01*
Y181610D01*
X308644D01*
Y188045D01*
D02*
G37*
G36*
X314524Y187925D02*
X311279D01*
X310650Y184587D01*
X311639Y184448D01*
X311723Y184532D01*
X311806Y184606D01*
X311889Y184670D01*
X311972Y184726D01*
X312129Y184809D01*
X312277Y184865D01*
X312407Y184892D01*
X312499Y184911D01*
X312536Y184920D01*
X312592D01*
X312740Y184911D01*
X312878Y184874D01*
X312998Y184827D01*
X313100Y184772D01*
X313174Y184707D01*
X313239Y184661D01*
X313276Y184624D01*
X313285Y184615D01*
X313377Y184495D01*
X313442Y184356D01*
X313488Y184208D01*
X313516Y184060D01*
X313544Y183931D01*
X313553Y183829D01*
Y183783D01*
Y183755D01*
Y183736D01*
Y183727D01*
X313544Y183505D01*
X313516Y183311D01*
X313470Y183154D01*
X313424Y183025D01*
X313368Y182914D01*
X313331Y182840D01*
X313294Y182803D01*
X313285Y182784D01*
X313183Y182682D01*
X313072Y182599D01*
X312961Y182544D01*
X312860Y182507D01*
X312767Y182488D01*
X312693Y182479D01*
X312647Y182470D01*
X312629D01*
X312508Y182479D01*
X312388Y182507D01*
X312286Y182544D01*
X312203Y182590D01*
X312129Y182636D01*
X312074Y182673D01*
X312037Y182701D01*
X312028Y182710D01*
X311944Y182812D01*
X311870Y182914D01*
X311815Y183025D01*
X311778Y183126D01*
X311750Y183219D01*
X311732Y183302D01*
X311723Y183348D01*
Y183367D01*
X310502Y183237D01*
X310530Y183089D01*
X310558Y182951D01*
X310650Y182701D01*
X310752Y182479D01*
X310807Y182387D01*
X310872Y182294D01*
X310927Y182220D01*
X310974Y182155D01*
X311029Y182100D01*
X311066Y182045D01*
X311103Y182008D01*
X311131Y181980D01*
X311149Y181971D01*
X311159Y181961D01*
X311269Y181878D01*
X311380Y181804D01*
X311501Y181739D01*
X311621Y181693D01*
X311870Y181601D01*
X312092Y181545D01*
X312203Y181527D01*
X312296Y181518D01*
X312388Y181508D01*
X312462Y181499D01*
X312527Y181490D01*
X312610D01*
X312813Y181499D01*
X313008Y181527D01*
X313183Y181564D01*
X313350Y181619D01*
X313507Y181684D01*
X313646Y181758D01*
X313775Y181832D01*
X313895Y181915D01*
X313997Y181989D01*
X314089Y182063D01*
X314173Y182137D01*
X314237Y182202D01*
X314284Y182257D01*
X314321Y182294D01*
X314339Y182322D01*
X314348Y182331D01*
X314431Y182451D01*
X314505Y182572D01*
X314561Y182692D01*
X314616Y182821D01*
X314700Y183062D01*
X314755Y183284D01*
X314774Y183376D01*
X314783Y183468D01*
X314801Y183552D01*
Y183626D01*
X314811Y183681D01*
Y183718D01*
Y183746D01*
Y183755D01*
X314801Y183931D01*
X314783Y184097D01*
X314755Y184254D01*
X314718Y184402D01*
X314681Y184532D01*
X314626Y184661D01*
X314579Y184781D01*
X314524Y184883D01*
X314468Y184975D01*
X314422Y185059D01*
X314367Y185133D01*
X314330Y185188D01*
X314293Y185234D01*
X314265Y185271D01*
X314247Y185290D01*
X314237Y185299D01*
X314126Y185401D01*
X314015Y185493D01*
X313895Y185576D01*
X313775Y185650D01*
X313664Y185706D01*
X313544Y185752D01*
X313331Y185826D01*
X313230Y185854D01*
X313137Y185872D01*
X313054Y185882D01*
X312989Y185891D01*
X312934Y185900D01*
X312850D01*
X312693Y185891D01*
X312536Y185863D01*
X312397Y185835D01*
X312268Y185798D01*
X312166Y185752D01*
X312083Y185724D01*
X312028Y185697D01*
X312018Y185687D01*
X312009D01*
X312203Y186778D01*
X314524D01*
Y187925D01*
D02*
G37*
G36*
X295728Y188008D02*
X293370D01*
Y181610D01*
X294664D01*
Y184023D01*
X295811D01*
X295949Y184032D01*
X296079D01*
X296199Y184042D01*
X296310Y184051D01*
X296412Y184060D01*
X296495Y184069D01*
X296578D01*
X296643Y184079D01*
X296708Y184088D01*
X296754Y184097D01*
X296791D01*
X296819Y184106D01*
X296837D01*
X296966Y184143D01*
X297087Y184189D01*
X297198Y184236D01*
X297299Y184291D01*
X297383Y184338D01*
X297447Y184374D01*
X297484Y184402D01*
X297503Y184411D01*
X297623Y184504D01*
X297725Y184606D01*
X297826Y184716D01*
X297900Y184809D01*
X297965Y184901D01*
X298011Y184975D01*
X298039Y185022D01*
X298048Y185040D01*
X298122Y185197D01*
X298178Y185364D01*
X298215Y185539D01*
X298242Y185697D01*
X298261Y185826D01*
Y185891D01*
X298270Y185937D01*
Y185983D01*
Y186011D01*
Y186029D01*
Y186039D01*
X298252Y186307D01*
X298215Y186556D01*
X298150Y186760D01*
X298085Y186945D01*
X298048Y187019D01*
X298011Y187083D01*
X297984Y187139D01*
X297947Y187194D01*
X297928Y187231D01*
X297910Y187259D01*
X297891Y187268D01*
Y187278D01*
X297743Y187444D01*
X297595Y187583D01*
X297438Y187694D01*
X297299Y187777D01*
X297170Y187832D01*
X297068Y187878D01*
X297031Y187888D01*
X297003Y187897D01*
X296985Y187906D01*
X296976D01*
X296902Y187925D01*
X296809Y187943D01*
X296698Y187952D01*
X296588Y187962D01*
X296329Y187980D01*
X296070Y187999D01*
X295829D01*
X295728Y188008D01*
D02*
G37*
G36*
X302199Y188128D02*
X302089D01*
X301848Y188119D01*
X301608Y188091D01*
X301395Y188045D01*
X301182Y187990D01*
X300998Y187925D01*
X300813Y187851D01*
X300655Y187768D01*
X300508Y187684D01*
X300369Y187601D01*
X300258Y187518D01*
X300156Y187444D01*
X300073Y187379D01*
X300008Y187324D01*
X299962Y187278D01*
X299934Y187250D01*
X299925Y187241D01*
X299777Y187065D01*
X299657Y186880D01*
X299546Y186686D01*
X299454Y186482D01*
X299370Y186270D01*
X299306Y186066D01*
X299250Y185863D01*
X299204Y185669D01*
X299167Y185475D01*
X299149Y185308D01*
X299130Y185151D01*
X299111Y185022D01*
Y184911D01*
X299102Y184827D01*
Y184772D01*
Y184763D01*
Y184753D01*
X299111Y184476D01*
X299139Y184217D01*
X299176Y183968D01*
X299232Y183746D01*
X299287Y183533D01*
X299361Y183330D01*
X299435Y183154D01*
X299509Y182997D01*
X299583Y182849D01*
X299657Y182719D01*
X299731Y182618D01*
X299786Y182525D01*
X299842Y182461D01*
X299879Y182405D01*
X299907Y182377D01*
X299916Y182368D01*
X300073Y182211D01*
X300240Y182082D01*
X300415Y181961D01*
X300591Y181869D01*
X300767Y181786D01*
X300942Y181712D01*
X301109Y181656D01*
X301266Y181610D01*
X301423Y181573D01*
X301562Y181545D01*
X301691Y181527D01*
X301793Y181518D01*
X301885Y181508D01*
X301950Y181499D01*
X302005D01*
X302199Y181508D01*
X302375Y181518D01*
X302551Y181545D01*
X302708Y181582D01*
X302856Y181619D01*
X302995Y181656D01*
X303124Y181702D01*
X303244Y181758D01*
X303346Y181804D01*
X303438Y181850D01*
X303522Y181887D01*
X303586Y181924D01*
X303642Y181961D01*
X303679Y181989D01*
X303697Y181998D01*
X303707Y182008D01*
X303827Y182109D01*
X303938Y182220D01*
X304141Y182470D01*
X304307Y182729D01*
X304437Y182978D01*
X304492Y183099D01*
X304539Y183209D01*
X304576Y183311D01*
X304613Y183394D01*
X304640Y183468D01*
X304659Y183524D01*
X304668Y183561D01*
Y183570D01*
X303411Y183958D01*
X303337Y183709D01*
X303253Y183496D01*
X303170Y183320D01*
X303078Y183172D01*
X303004Y183062D01*
X302939Y182988D01*
X302893Y182941D01*
X302875Y182923D01*
X302726Y182812D01*
X302579Y182738D01*
X302431Y182682D01*
X302301Y182636D01*
X302181Y182618D01*
X302079Y182609D01*
X302042Y182599D01*
X301996D01*
X301867Y182609D01*
X301747Y182618D01*
X301525Y182682D01*
X301331Y182757D01*
X301173Y182858D01*
X301044Y182951D01*
X300951Y183025D01*
X300914Y183062D01*
X300887Y183089D01*
X300877Y183099D01*
X300868Y183108D01*
X300794Y183209D01*
X300730Y183330D01*
X300665Y183459D01*
X300619Y183598D01*
X300545Y183884D01*
X300489Y184171D01*
X300471Y184310D01*
X300461Y184430D01*
X300443Y184550D01*
Y184652D01*
X300434Y184726D01*
Y184790D01*
Y184837D01*
Y184846D01*
X300443Y185059D01*
X300452Y185253D01*
X300471Y185428D01*
X300498Y185595D01*
X300535Y185743D01*
X300572Y185882D01*
X300609Y186002D01*
X300655Y186113D01*
X300693Y186205D01*
X300730Y186288D01*
X300767Y186353D01*
X300804Y186409D01*
X300831Y186455D01*
X300850Y186482D01*
X300868Y186501D01*
Y186510D01*
X300951Y186603D01*
X301044Y186686D01*
X301136Y186751D01*
X301238Y186806D01*
X301432Y186898D01*
X301617Y186963D01*
X301774Y187000D01*
X301848Y187009D01*
X301904Y187019D01*
X301959Y187028D01*
X302024D01*
X302209Y187019D01*
X302375Y186982D01*
X302523Y186936D01*
X302653Y186880D01*
X302754Y186824D01*
X302828Y186778D01*
X302875Y186741D01*
X302893Y186732D01*
X303013Y186621D01*
X303124Y186492D01*
X303207Y186362D01*
X303272Y186233D01*
X303318Y186122D01*
X303346Y186039D01*
X303365Y186002D01*
Y185974D01*
X303374Y185965D01*
Y185955D01*
X304650Y186261D01*
X304557Y186529D01*
X304456Y186760D01*
X304345Y186963D01*
X304243Y187130D01*
X304141Y187259D01*
X304104Y187314D01*
X304067Y187361D01*
X304039Y187388D01*
X304012Y187416D01*
X304002Y187435D01*
X303993D01*
X303855Y187555D01*
X303697Y187666D01*
X303549Y187758D01*
X303392Y187832D01*
X303226Y187906D01*
X303069Y187962D01*
X302911Y188008D01*
X302764Y188045D01*
X302625Y188073D01*
X302495Y188091D01*
X302384Y188110D01*
X302283Y188119D01*
X302199Y188128D01*
D02*
G37*
%LPD*%
G36*
X295718Y186917D02*
X295802D01*
X295885Y186908D01*
X296005D01*
X296098Y186898D01*
X296162Y186889D01*
X296199Y186880D01*
X296208D01*
X296319Y186852D01*
X296421Y186815D01*
X296514Y186769D01*
X296588Y186714D01*
X296643Y186667D01*
X296689Y186630D01*
X296717Y186603D01*
X296726Y186593D01*
X296800Y186501D01*
X296846Y186409D01*
X296883Y186307D01*
X296911Y186214D01*
X296930Y186131D01*
X296939Y186066D01*
Y186029D01*
Y186011D01*
X296930Y185909D01*
X296920Y185817D01*
X296893Y185734D01*
X296865Y185660D01*
X296837Y185595D01*
X296819Y185549D01*
X296800Y185521D01*
X296791Y185512D01*
X296735Y185438D01*
X296661Y185373D01*
X296597Y185317D01*
X296532Y185271D01*
X296476Y185243D01*
X296430Y185216D01*
X296393Y185207D01*
X296384Y185197D01*
X296329Y185179D01*
X296264Y185170D01*
X296116Y185142D01*
X295949Y185123D01*
X295783Y185114D01*
X295617D01*
X295552Y185105D01*
X294664D01*
Y186926D01*
X295626D01*
X295718Y186917D01*
D02*
G37*
%LPC*%
G36*
X361121Y162028D02*
X361038D01*
X360844Y162018D01*
X360668Y162000D01*
X360502Y161963D01*
X360363Y161926D01*
X360252Y161889D01*
X360160Y161852D01*
X360104Y161833D01*
X360095Y161824D01*
X360086D01*
X359938Y161741D01*
X359799Y161649D01*
X359688Y161556D01*
X359596Y161473D01*
X359522Y161390D01*
X359466Y161325D01*
X359429Y161288D01*
X359420Y161269D01*
X359337Y161131D01*
X359263Y160983D01*
X359207Y160826D01*
X359152Y160678D01*
X359115Y160539D01*
X359087Y160437D01*
X359078Y160391D01*
Y160363D01*
X359069Y160345D01*
Y160336D01*
X360197Y160151D01*
X360224Y160299D01*
X360261Y160428D01*
X360298Y160539D01*
X360345Y160622D01*
X360391Y160696D01*
X360428Y160752D01*
X360456Y160779D01*
X360465Y160789D01*
X360548Y160863D01*
X360640Y160918D01*
X360733Y160955D01*
X360816Y160983D01*
X360890Y161001D01*
X360946Y161010D01*
X361001D01*
X361112Y161001D01*
X361223Y160983D01*
X361306Y160946D01*
X361380Y160918D01*
X361445Y160881D01*
X361482Y160844D01*
X361510Y160826D01*
X361519Y160816D01*
X361584Y160742D01*
X361630Y160650D01*
X361667Y160567D01*
X361685Y160484D01*
X361704Y160410D01*
X361713Y160354D01*
Y160317D01*
Y160299D01*
X361704Y160160D01*
X361676Y160040D01*
X361630Y159938D01*
X361584Y159855D01*
X361528Y159781D01*
X361491Y159735D01*
X361454Y159698D01*
X361445Y159688D01*
X361334Y159614D01*
X361214Y159559D01*
X361084Y159522D01*
X360964Y159494D01*
X360853Y159485D01*
X360761Y159476D01*
X360677D01*
X360548Y158486D01*
X360668Y158514D01*
X360770Y158542D01*
X360872Y158560D01*
X360955Y158570D01*
X361020Y158579D01*
X361112D01*
X361241Y158570D01*
X361352Y158533D01*
X361454Y158496D01*
X361547Y158440D01*
X361611Y158394D01*
X361667Y158348D01*
X361704Y158311D01*
X361713Y158302D01*
X361796Y158191D01*
X361861Y158070D01*
X361907Y157950D01*
X361944Y157830D01*
X361963Y157719D01*
X361972Y157636D01*
Y157580D01*
Y157571D01*
Y157562D01*
X361963Y157386D01*
X361935Y157229D01*
X361889Y157090D01*
X361842Y156980D01*
X361787Y156896D01*
X361750Y156832D01*
X361713Y156785D01*
X361704Y156776D01*
X361602Y156684D01*
X361491Y156610D01*
X361389Y156563D01*
X361288Y156526D01*
X361195Y156508D01*
X361130Y156499D01*
X361084Y156489D01*
X361066D01*
X360936Y156499D01*
X360825Y156526D01*
X360724Y156563D01*
X360631Y156610D01*
X360566Y156647D01*
X360511Y156684D01*
X360474Y156711D01*
X360465Y156721D01*
X360382Y156822D01*
X360308Y156933D01*
X360261Y157053D01*
X360215Y157164D01*
X360187Y157266D01*
X360169Y157349D01*
X360160Y157405D01*
Y157414D01*
Y157423D01*
X358976Y157275D01*
X358995Y157127D01*
X359032Y156989D01*
X359115Y156730D01*
X359217Y156508D01*
X359281Y156416D01*
X359337Y156323D01*
X359392Y156240D01*
X359448Y156175D01*
X359494Y156110D01*
X359540Y156064D01*
X359577Y156027D01*
X359605Y155999D01*
X359623Y155981D01*
X359633Y155972D01*
X359744Y155889D01*
X359864Y155805D01*
X359975Y155741D01*
X360104Y155685D01*
X360345Y155593D01*
X360566Y155537D01*
X360677Y155519D01*
X360770Y155500D01*
X360853Y155491D01*
X360927Y155482D01*
X360992Y155472D01*
X361075D01*
X361241Y155482D01*
X361408Y155500D01*
X361556Y155528D01*
X361704Y155565D01*
X361833Y155611D01*
X361963Y155657D01*
X362083Y155713D01*
X362184Y155768D01*
X362277Y155824D01*
X362369Y155879D01*
X362434Y155926D01*
X362499Y155972D01*
X362545Y156009D01*
X362582Y156036D01*
X362601Y156055D01*
X362610Y156064D01*
X362721Y156175D01*
X362813Y156295D01*
X362896Y156416D01*
X362970Y156536D01*
X363026Y156665D01*
X363081Y156785D01*
X363155Y157007D01*
X363174Y157109D01*
X363192Y157211D01*
X363211Y157294D01*
X363220Y157368D01*
X363229Y157423D01*
Y157470D01*
Y157497D01*
Y157507D01*
X363211Y157719D01*
X363174Y157904D01*
X363128Y158080D01*
X363063Y158218D01*
X362998Y158339D01*
X362952Y158422D01*
X362915Y158477D01*
X362896Y158496D01*
X362767Y158634D01*
X362619Y158755D01*
X362471Y158847D01*
X362332Y158921D01*
X362212Y158976D01*
X362110Y159004D01*
X362074Y159023D01*
X362046D01*
X362027Y159032D01*
X362018D01*
X362184Y159134D01*
X362323Y159235D01*
X362443Y159346D01*
X362554Y159457D01*
X362647Y159568D01*
X362721Y159679D01*
X362776Y159790D01*
X362832Y159892D01*
X362869Y159993D01*
X362896Y160086D01*
X362915Y160169D01*
X362924Y160243D01*
X362933Y160299D01*
X362943Y160345D01*
Y160373D01*
Y160382D01*
X362933Y160493D01*
X362924Y160595D01*
X362869Y160798D01*
X362804Y160983D01*
X362721Y161140D01*
X362637Y161269D01*
X362564Y161362D01*
X362536Y161399D01*
X362508Y161427D01*
X362499Y161436D01*
X362490Y161445D01*
X362388Y161547D01*
X362268Y161639D01*
X362157Y161713D01*
X362037Y161778D01*
X361907Y161843D01*
X361787Y161889D01*
X361556Y161954D01*
X361454Y161981D01*
X361352Y162000D01*
X361269Y162009D01*
X361186Y162018D01*
X361121Y162028D01*
D02*
G37*
G36*
X355657Y161991D02*
X352846D01*
Y155593D01*
X355620D01*
X355777Y155602D01*
X356055D01*
X356166Y155611D01*
X356341D01*
X356406Y155620D01*
X356498D01*
X356535Y155630D01*
X356572D01*
X356757Y155657D01*
X356924Y155704D01*
X357072Y155750D01*
X357201Y155805D01*
X357303Y155851D01*
X357377Y155898D01*
X357423Y155926D01*
X357441Y155935D01*
X357571Y156036D01*
X357673Y156147D01*
X357774Y156249D01*
X357848Y156360D01*
X357913Y156453D01*
X357959Y156526D01*
X357987Y156573D01*
X357996Y156591D01*
X358061Y156748D01*
X358116Y156896D01*
X358153Y157044D01*
X358172Y157174D01*
X358190Y157285D01*
X358200Y157368D01*
Y157423D01*
Y157432D01*
Y157442D01*
X358190Y157645D01*
X358153Y157830D01*
X358098Y157987D01*
X358042Y158135D01*
X357987Y158246D01*
X357932Y158329D01*
X357895Y158385D01*
X357885Y158403D01*
X357756Y158551D01*
X357617Y158671D01*
X357460Y158773D01*
X357321Y158847D01*
X357192Y158912D01*
X357081Y158958D01*
X357044Y158967D01*
X357016Y158976D01*
X356998Y158986D01*
X356988D01*
X357136Y159069D01*
X357266Y159152D01*
X357377Y159254D01*
X357469Y159337D01*
X357534Y159420D01*
X357589Y159485D01*
X357626Y159531D01*
X357636Y159550D01*
X357719Y159698D01*
X357784Y159836D01*
X357821Y159975D01*
X357858Y160105D01*
X357876Y160215D01*
X357885Y160299D01*
Y160354D01*
Y160363D01*
Y160373D01*
X357876Y160520D01*
X357858Y160669D01*
X357821Y160789D01*
X357784Y160900D01*
X357747Y160992D01*
X357710Y161066D01*
X357691Y161103D01*
X357682Y161122D01*
X357608Y161242D01*
X357525Y161343D01*
X357441Y161436D01*
X357368Y161519D01*
X357294Y161574D01*
X357238Y161621D01*
X357201Y161649D01*
X357192Y161658D01*
X357081Y161732D01*
X356961Y161787D01*
X356850Y161833D01*
X356748Y161870D01*
X356656Y161898D01*
X356591Y161917D01*
X356545Y161926D01*
X356526D01*
X356369Y161944D01*
X356193Y161963D01*
X356008Y161972D01*
X355824Y161981D01*
X355657Y161991D01*
D02*
G37*
G36*
X349241D02*
X346883D01*
Y155593D01*
X348177D01*
Y158006D01*
X349324D01*
X349463Y158015D01*
X349592D01*
X349712Y158024D01*
X349823Y158034D01*
X349925Y158043D01*
X350008Y158052D01*
X350091D01*
X350156Y158061D01*
X350221Y158070D01*
X350267Y158080D01*
X350304D01*
X350332Y158089D01*
X350350D01*
X350480Y158126D01*
X350600Y158172D01*
X350711Y158218D01*
X350812Y158274D01*
X350896Y158320D01*
X350960Y158357D01*
X350997Y158385D01*
X351016Y158394D01*
X351136Y158486D01*
X351238Y158588D01*
X351339Y158699D01*
X351413Y158792D01*
X351478Y158884D01*
X351524Y158958D01*
X351552Y159004D01*
X351561Y159023D01*
X351635Y159180D01*
X351691Y159346D01*
X351728Y159522D01*
X351755Y159679D01*
X351774Y159809D01*
Y159873D01*
X351783Y159920D01*
Y159966D01*
Y159993D01*
Y160012D01*
Y160021D01*
X351765Y160289D01*
X351728Y160539D01*
X351663Y160742D01*
X351598Y160927D01*
X351561Y161001D01*
X351524Y161066D01*
X351497Y161122D01*
X351460Y161177D01*
X351441Y161214D01*
X351423Y161242D01*
X351404Y161251D01*
Y161260D01*
X351256Y161427D01*
X351108Y161565D01*
X350951Y161676D01*
X350812Y161759D01*
X350683Y161815D01*
X350581Y161861D01*
X350544Y161870D01*
X350517Y161880D01*
X350498Y161889D01*
X350489D01*
X350415Y161907D01*
X350322Y161926D01*
X350211Y161935D01*
X350101Y161944D01*
X349842Y161963D01*
X349583Y161981D01*
X349342D01*
X349241Y161991D01*
D02*
G37*
%LPD*%
G36*
X355528Y160918D02*
X355768D01*
X355824Y160909D01*
X355925D01*
X355962Y160900D01*
X355971D01*
X356082Y160881D01*
X356184Y160853D01*
X356267Y160816D01*
X356341Y160779D01*
X356387Y160742D01*
X356434Y160705D01*
X356452Y160687D01*
X356461Y160678D01*
X356517Y160604D01*
X356554Y160520D01*
X356591Y160447D01*
X356609Y160373D01*
X356619Y160299D01*
X356628Y160243D01*
Y160206D01*
Y160197D01*
X356619Y160086D01*
X356600Y159984D01*
X356563Y159901D01*
X356535Y159827D01*
X356498Y159762D01*
X356461Y159725D01*
X356443Y159698D01*
X356434Y159688D01*
X356360Y159624D01*
X356277Y159578D01*
X356193Y159541D01*
X356110Y159513D01*
X356027Y159485D01*
X355971Y159476D01*
X355934Y159466D01*
X355879D01*
X355824Y159457D01*
X355537D01*
X355380Y159448D01*
X354141D01*
Y160927D01*
X355426D01*
X355528Y160918D01*
D02*
G37*
G36*
X355611Y158376D02*
X355722Y158366D01*
X355833D01*
X355925Y158357D01*
X356008Y158348D01*
X356073Y158339D01*
X356138Y158329D01*
X356184Y158320D01*
X356258Y158311D01*
X356304Y158292D01*
X356314D01*
X356406Y158255D01*
X356489Y158209D01*
X356563Y158163D01*
X356619Y158107D01*
X356665Y158070D01*
X356693Y158034D01*
X356711Y158006D01*
X356720Y157997D01*
X356767Y157913D01*
X356804Y157830D01*
X356831Y157756D01*
X356850Y157673D01*
X356859Y157608D01*
X356868Y157553D01*
Y157516D01*
Y157507D01*
X356859Y157386D01*
X356841Y157275D01*
X356813Y157183D01*
X356776Y157109D01*
X356739Y157044D01*
X356711Y156998D01*
X356693Y156970D01*
X356683Y156961D01*
X356609Y156896D01*
X356535Y156841D01*
X356452Y156795D01*
X356378Y156758D01*
X356314Y156739D01*
X356258Y156721D01*
X356221Y156711D01*
X356212D01*
X356175Y156702D01*
X356119D01*
X355999Y156693D01*
X355851Y156684D01*
X355703D01*
X355565Y156674D01*
X354141D01*
Y158385D01*
X355481D01*
X355611Y158376D01*
D02*
G37*
G36*
X349231Y160900D02*
X349315D01*
X349398Y160890D01*
X349518D01*
X349610Y160881D01*
X349675Y160872D01*
X349712Y160863D01*
X349721D01*
X349832Y160835D01*
X349934Y160798D01*
X350027Y160752D01*
X350101Y160696D01*
X350156Y160650D01*
X350202Y160613D01*
X350230Y160585D01*
X350239Y160576D01*
X350313Y160484D01*
X350359Y160391D01*
X350396Y160289D01*
X350424Y160197D01*
X350443Y160114D01*
X350452Y160049D01*
Y160012D01*
Y159993D01*
X350443Y159892D01*
X350433Y159799D01*
X350406Y159716D01*
X350378Y159642D01*
X350350Y159578D01*
X350332Y159531D01*
X350313Y159503D01*
X350304Y159494D01*
X350248Y159420D01*
X350174Y159356D01*
X350110Y159300D01*
X350045Y159254D01*
X349990Y159226D01*
X349943Y159198D01*
X349906Y159189D01*
X349897Y159180D01*
X349842Y159161D01*
X349777Y159152D01*
X349629Y159124D01*
X349463Y159106D01*
X349296Y159097D01*
X349130D01*
X349065Y159087D01*
X348177D01*
Y160909D01*
X349139D01*
X349231Y160900D01*
D02*
G37*
%LPC*%
G36*
X357183Y87715D02*
X356184D01*
X356092Y87502D01*
X355971Y87308D01*
X355842Y87123D01*
X355713Y86975D01*
X355602Y86855D01*
X355500Y86763D01*
X355463Y86726D01*
X355435Y86698D01*
X355417Y86689D01*
X355407Y86679D01*
X355204Y86531D01*
X355010Y86402D01*
X354834Y86300D01*
X354677Y86226D01*
X354548Y86171D01*
X354455Y86125D01*
X354418Y86115D01*
X354390Y86106D01*
X354381Y86097D01*
X354372D01*
Y84987D01*
X354705Y85117D01*
X355001Y85256D01*
X355139Y85330D01*
X355269Y85413D01*
X355389Y85487D01*
X355500Y85561D01*
X355602Y85635D01*
X355694Y85699D01*
X355768Y85755D01*
X355833Y85810D01*
X355888Y85857D01*
X355925Y85884D01*
X355944Y85903D01*
X355953Y85912D01*
Y81280D01*
X357183D01*
Y87715D01*
D02*
G37*
G36*
X344267Y87678D02*
X341909D01*
Y81280D01*
X343203D01*
Y83693D01*
X344350D01*
X344488Y83702D01*
X344618D01*
X344738Y83712D01*
X344849Y83721D01*
X344951Y83730D01*
X345034Y83739D01*
X345117D01*
X345182Y83749D01*
X345247Y83758D01*
X345293Y83767D01*
X345330D01*
X345358Y83776D01*
X345376D01*
X345505Y83813D01*
X345626Y83860D01*
X345737Y83906D01*
X345838Y83961D01*
X345922Y84008D01*
X345986Y84044D01*
X346023Y84072D01*
X346042Y84081D01*
X346162Y84174D01*
X346264Y84276D01*
X346365Y84387D01*
X346439Y84479D01*
X346504Y84571D01*
X346550Y84645D01*
X346578Y84692D01*
X346587Y84710D01*
X346661Y84867D01*
X346717Y85034D01*
X346754Y85209D01*
X346781Y85367D01*
X346800Y85496D01*
Y85561D01*
X346809Y85607D01*
Y85653D01*
Y85681D01*
Y85699D01*
Y85709D01*
X346791Y85977D01*
X346754Y86226D01*
X346689Y86430D01*
X346624Y86615D01*
X346587Y86689D01*
X346550Y86753D01*
X346522Y86809D01*
X346485Y86864D01*
X346467Y86901D01*
X346449Y86929D01*
X346430Y86938D01*
Y86948D01*
X346282Y87114D01*
X346134Y87253D01*
X345977Y87364D01*
X345838Y87447D01*
X345709Y87502D01*
X345607Y87549D01*
X345570Y87558D01*
X345542Y87567D01*
X345524Y87576D01*
X345515D01*
X345441Y87595D01*
X345348Y87613D01*
X345237Y87622D01*
X345126Y87632D01*
X344868Y87650D01*
X344609Y87669D01*
X344368D01*
X344267Y87678D01*
D02*
G37*
G36*
X351062D02*
X349694D01*
X347216Y81280D01*
X348584D01*
X349111Y82732D01*
X351682D01*
X352236Y81280D01*
X353632D01*
X351062Y87678D01*
D02*
G37*
G36*
X361121Y87715D02*
X361038D01*
X360844Y87706D01*
X360668Y87687D01*
X360502Y87650D01*
X360363Y87613D01*
X360252Y87576D01*
X360160Y87539D01*
X360104Y87521D01*
X360095Y87512D01*
X360086D01*
X359938Y87428D01*
X359799Y87336D01*
X359688Y87243D01*
X359596Y87160D01*
X359522Y87077D01*
X359466Y87012D01*
X359429Y86975D01*
X359420Y86957D01*
X359337Y86818D01*
X359263Y86670D01*
X359207Y86513D01*
X359152Y86365D01*
X359115Y86226D01*
X359087Y86125D01*
X359078Y86079D01*
Y86051D01*
X359069Y86032D01*
Y86023D01*
X360197Y85838D01*
X360224Y85986D01*
X360261Y86115D01*
X360298Y86226D01*
X360345Y86310D01*
X360391Y86384D01*
X360428Y86439D01*
X360456Y86467D01*
X360465Y86476D01*
X360548Y86550D01*
X360640Y86606D01*
X360733Y86642D01*
X360816Y86670D01*
X360890Y86689D01*
X360946Y86698D01*
X361001D01*
X361112Y86689D01*
X361223Y86670D01*
X361306Y86633D01*
X361380Y86606D01*
X361445Y86568D01*
X361482Y86531D01*
X361510Y86513D01*
X361519Y86504D01*
X361584Y86430D01*
X361630Y86337D01*
X361667Y86254D01*
X361685Y86171D01*
X361704Y86097D01*
X361713Y86041D01*
Y86004D01*
Y85986D01*
X361704Y85847D01*
X361676Y85727D01*
X361630Y85625D01*
X361584Y85542D01*
X361528Y85468D01*
X361491Y85422D01*
X361454Y85385D01*
X361445Y85376D01*
X361334Y85302D01*
X361214Y85246D01*
X361084Y85209D01*
X360964Y85182D01*
X360853Y85172D01*
X360761Y85163D01*
X360677D01*
X360548Y84174D01*
X360668Y84202D01*
X360770Y84229D01*
X360872Y84248D01*
X360955Y84257D01*
X361020Y84266D01*
X361112D01*
X361241Y84257D01*
X361352Y84220D01*
X361454Y84183D01*
X361547Y84128D01*
X361611Y84081D01*
X361667Y84035D01*
X361704Y83998D01*
X361713Y83989D01*
X361796Y83878D01*
X361861Y83758D01*
X361907Y83638D01*
X361944Y83517D01*
X361963Y83406D01*
X361972Y83323D01*
Y83268D01*
Y83259D01*
Y83249D01*
X361963Y83074D01*
X361935Y82916D01*
X361889Y82778D01*
X361842Y82667D01*
X361787Y82584D01*
X361750Y82519D01*
X361713Y82473D01*
X361704Y82463D01*
X361602Y82371D01*
X361491Y82297D01*
X361389Y82251D01*
X361288Y82214D01*
X361195Y82195D01*
X361130Y82186D01*
X361084Y82177D01*
X361066D01*
X360936Y82186D01*
X360825Y82214D01*
X360724Y82251D01*
X360631Y82297D01*
X360566Y82334D01*
X360511Y82371D01*
X360474Y82399D01*
X360465Y82408D01*
X360382Y82510D01*
X360308Y82621D01*
X360261Y82741D01*
X360215Y82852D01*
X360187Y82954D01*
X360169Y83037D01*
X360160Y83092D01*
Y83101D01*
Y83111D01*
X358976Y82963D01*
X358995Y82815D01*
X359032Y82676D01*
X359115Y82417D01*
X359217Y82195D01*
X359281Y82103D01*
X359337Y82010D01*
X359392Y81927D01*
X359448Y81862D01*
X359494Y81798D01*
X359540Y81751D01*
X359577Y81714D01*
X359605Y81687D01*
X359623Y81668D01*
X359633Y81659D01*
X359744Y81576D01*
X359864Y81493D01*
X359975Y81428D01*
X360104Y81372D01*
X360345Y81280D01*
X360566Y81224D01*
X360677Y81206D01*
X360770Y81187D01*
X360853Y81178D01*
X360927Y81169D01*
X360992Y81160D01*
X361075D01*
X361241Y81169D01*
X361408Y81187D01*
X361556Y81215D01*
X361704Y81252D01*
X361833Y81299D01*
X361963Y81345D01*
X362083Y81400D01*
X362184Y81456D01*
X362277Y81511D01*
X362369Y81567D01*
X362434Y81613D01*
X362499Y81659D01*
X362545Y81696D01*
X362582Y81724D01*
X362601Y81742D01*
X362610Y81751D01*
X362721Y81862D01*
X362813Y81983D01*
X362896Y82103D01*
X362970Y82223D01*
X363026Y82353D01*
X363081Y82473D01*
X363155Y82695D01*
X363174Y82796D01*
X363192Y82898D01*
X363211Y82981D01*
X363220Y83055D01*
X363229Y83111D01*
Y83157D01*
Y83185D01*
Y83194D01*
X363211Y83406D01*
X363174Y83591D01*
X363128Y83767D01*
X363063Y83906D01*
X362998Y84026D01*
X362952Y84109D01*
X362915Y84165D01*
X362896Y84183D01*
X362767Y84322D01*
X362619Y84442D01*
X362471Y84535D01*
X362332Y84608D01*
X362212Y84664D01*
X362110Y84692D01*
X362074Y84710D01*
X362046D01*
X362027Y84719D01*
X362018D01*
X362184Y84821D01*
X362323Y84923D01*
X362443Y85034D01*
X362554Y85145D01*
X362647Y85256D01*
X362721Y85367D01*
X362776Y85478D01*
X362832Y85579D01*
X362869Y85681D01*
X362896Y85773D01*
X362915Y85857D01*
X362924Y85931D01*
X362933Y85986D01*
X362943Y86032D01*
Y86060D01*
Y86069D01*
X362933Y86180D01*
X362924Y86282D01*
X362869Y86485D01*
X362804Y86670D01*
X362721Y86827D01*
X362637Y86957D01*
X362564Y87049D01*
X362536Y87086D01*
X362508Y87114D01*
X362499Y87123D01*
X362490Y87133D01*
X362388Y87234D01*
X362268Y87327D01*
X362157Y87401D01*
X362037Y87465D01*
X361907Y87530D01*
X361787Y87576D01*
X361556Y87641D01*
X361454Y87669D01*
X361352Y87687D01*
X361269Y87696D01*
X361186Y87706D01*
X361121Y87715D01*
D02*
G37*
%LPD*%
G36*
X344257Y86587D02*
X344341D01*
X344424Y86578D01*
X344544D01*
X344636Y86568D01*
X344701Y86559D01*
X344738Y86550D01*
X344747D01*
X344858Y86522D01*
X344960Y86485D01*
X345052Y86439D01*
X345126Y86384D01*
X345182Y86337D01*
X345228Y86300D01*
X345256Y86273D01*
X345265Y86263D01*
X345339Y86171D01*
X345385Y86079D01*
X345422Y85977D01*
X345450Y85884D01*
X345468Y85801D01*
X345478Y85736D01*
Y85699D01*
Y85681D01*
X345468Y85579D01*
X345459Y85487D01*
X345432Y85403D01*
X345404Y85330D01*
X345376Y85265D01*
X345358Y85219D01*
X345339Y85191D01*
X345330Y85182D01*
X345274Y85108D01*
X345200Y85043D01*
X345136Y84987D01*
X345071Y84941D01*
X345015Y84914D01*
X344969Y84886D01*
X344932Y84876D01*
X344923Y84867D01*
X344868Y84849D01*
X344803Y84840D01*
X344655Y84812D01*
X344488Y84793D01*
X344322Y84784D01*
X344156D01*
X344091Y84775D01*
X343203D01*
Y86596D01*
X344165D01*
X344257Y86587D01*
D02*
G37*
G36*
X351265Y83813D02*
X349500D01*
X350369Y86189D01*
X351265Y83813D01*
D02*
G37*
D34*
X148340Y120170D02*
G03*
X148340Y120170I-1250J0D01*
G01*
X123150Y87800D02*
G03*
X123150Y87800I-1250J0D01*
G01*
D35*
X146900Y73800D02*
G03*
X146900Y73800I-3000J0D01*
G01*
D36*
X293870Y215900D02*
G03*
X293870Y215900I-500J0D01*
G01*
X326890Y130810D02*
G03*
X326890Y130810I-500J0D01*
G01*
D37*
X217170Y80010D02*
Y127000D01*
Y80010D02*
X285750D01*
Y127000D01*
X217170D02*
X285750D01*
X165100Y209550D02*
X170180D01*
X165100D02*
Y214630D01*
Y209550D02*
X168910Y213360D01*
Y254000D01*
X165100Y257810D02*
X168910Y254000D01*
X127000Y257810D02*
X165100D01*
X0Y0D02*
X406400D01*
Y279400D01*
X0D02*
X406400D01*
X0Y0D02*
Y279400D01*
D38*
X346980Y245300D02*
X348980D01*
X346980Y237300D02*
X348980D01*
X306340Y125920D02*
X308340D01*
X306340Y117920D02*
X308340D01*
X101340Y187170D02*
X132340D01*
X101340Y120170D02*
X132340D01*
X101340D02*
Y187170D01*
X132340Y120170D02*
Y187170D01*
X133900Y17800D02*
Y83800D01*
X170900Y17800D02*
Y83800D01*
X133900D02*
X170900D01*
X133900Y17800D02*
X170900D01*
X260750Y54800D02*
X262750D01*
X260750Y46800D02*
X262750D01*
X296050Y46800D02*
X298050D01*
X296050Y54800D02*
X298050D01*
X296050Y64580D02*
X298050D01*
X296050Y72580D02*
X298050D01*
X260750Y72580D02*
X262750D01*
X260750Y64580D02*
X262750D01*
X96790Y111950D02*
X98790D01*
X96790Y103950D02*
X98790D01*
X60050Y260700D02*
X63050D01*
X60050Y247300D02*
X63050D01*
X108090Y207740D02*
X110090D01*
X108090Y199240D02*
X110090D01*
X199830Y185820D02*
Y187820D01*
X191330Y185820D02*
Y187820D01*
X168510Y188570D02*
Y190570D01*
X182010Y188570D02*
Y190570D01*
X147760Y230250D02*
Y232250D01*
X139260Y230250D02*
Y232250D01*
X116440Y233000D02*
Y235000D01*
X129940Y233000D02*
Y235000D01*
X105950Y233250D02*
Y244250D01*
X89450Y233250D02*
Y244250D01*
X46550Y227600D02*
Y229600D01*
X55050Y227600D02*
Y229600D01*
X196190Y142640D02*
X198190D01*
X196190Y129140D02*
X198190D01*
X196190Y161690D02*
X198190D01*
X196190Y148190D02*
X198190D01*
X193440Y115130D02*
X195440D01*
X193440Y123630D02*
X195440D01*
X270400Y218880D02*
X272400D01*
X270400Y210380D02*
X272400D01*
X229000D02*
X231000D01*
X229000Y218880D02*
X231000D01*
X96660Y89730D02*
X98660D01*
X96660Y98230D02*
X98660D01*
X209950Y21860D02*
Y23860D01*
X196450Y21860D02*
Y23860D01*
X309920Y213510D02*
X314920D01*
X309920Y200510D02*
X314920D01*
X304840Y133200D02*
X309840D01*
X304840Y146200D02*
X309840D01*
D39*
X193200Y272650D02*
X308200D01*
X193200Y222650D02*
X308200D01*
Y262650D02*
Y272650D01*
Y222650D02*
Y230150D01*
X193200Y262650D02*
Y272650D01*
Y222650D02*
Y230150D01*
D40*
X317500Y12700D02*
Y38100D01*
X342900Y12700D02*
Y38100D01*
X215900D02*
X342900D01*
X215900Y12700D02*
Y38100D01*
Y12700D02*
X342900D01*
X368300D02*
X393700D01*
X368300Y241300D02*
X393700D01*
X368300Y266700D02*
X393700D01*
X368300Y12700D02*
Y266700D01*
X393700Y12700D02*
Y266700D01*
X12700Y12700D02*
X38100D01*
X12700Y241300D02*
X38100D01*
X12700Y266700D02*
X38100D01*
X12700Y12700D02*
Y266700D01*
X38100Y12700D02*
Y266700D01*
X127000Y214630D02*
X160020D01*
X127000Y196850D02*
X160020D01*
X270260Y168910D02*
Y201930D01*
X288040Y168910D02*
Y201930D01*
X213360Y168910D02*
Y201930D01*
X231140Y168910D02*
Y201930D01*
X339090Y110490D02*
X360680D01*
X339090Y92710D02*
X360680D01*
X339090Y135890D02*
X360680D01*
X339090Y118110D02*
X360680D01*
D41*
X41275Y228600D02*
D03*
X9525D02*
D03*
D42*
X203200Y3175D02*
D03*
Y276225D02*
D03*
D43*
X403225Y139700D02*
D03*
X3175D02*
D03*
D44*
X261280Y89535D02*
D03*
M02*
