G04 Layer_Color=8421504*
%FSLAX44Y44*%
%MOMM*%
G71*
G01*
G75*
%ADD10R,0.7500X1.0000*%
%ADD11R,5.5000X2.0000*%
%ADD12R,2.3500X3.3000*%
%ADD13R,2.3500X1.0000*%
%ADD14R,1.6000X0.3500*%
%ADD15R,1.1100X1.5400*%
%ADD16R,0.8000X1.5000*%
%ADD17R,1.5000X0.8000*%
%ADD18R,0.8000X1.0500*%
%ADD19R,1.0500X0.8000*%
%ADD20R,1.5500X1.1500*%
%ADD21R,1.8500X1.2000*%
%ADD22R,1.1500X1.5500*%
%ADD23R,1.0000X1.5000*%
D10*
X340230Y241300D02*
D03*
X355730D02*
D03*
X299590Y121920D02*
D03*
X315090D02*
D03*
X254000Y50800D02*
D03*
X269500D02*
D03*
X304800D02*
D03*
X289300D02*
D03*
X304800Y68580D02*
D03*
X289300D02*
D03*
X254000D02*
D03*
X269500D02*
D03*
X90040Y107950D02*
D03*
X105540D02*
D03*
D11*
X298200Y247650D02*
D03*
X203200D02*
D03*
D12*
X86590Y153670D02*
D03*
D13*
X147090Y176670D02*
D03*
Y153670D02*
D03*
Y130670D02*
D03*
D14*
X121900Y80050D02*
D03*
Y73550D02*
D03*
Y67050D02*
D03*
Y60550D02*
D03*
Y54050D02*
D03*
Y47550D02*
D03*
Y41050D02*
D03*
Y34550D02*
D03*
Y28050D02*
D03*
Y21550D02*
D03*
X182900Y80050D02*
D03*
Y73550D02*
D03*
Y67050D02*
D03*
Y60550D02*
D03*
Y54050D02*
D03*
Y47550D02*
D03*
Y41050D02*
D03*
Y34550D02*
D03*
Y28050D02*
D03*
Y21550D02*
D03*
D15*
X50800Y254000D02*
D03*
X72300D02*
D03*
D16*
X132080Y205740D02*
D03*
X143510D02*
D03*
X154940D02*
D03*
X344170Y101600D02*
D03*
X355600D02*
D03*
X344170Y127000D02*
D03*
X355600D02*
D03*
D17*
X279150Y173990D02*
D03*
Y185420D02*
D03*
Y196850D02*
D03*
X222250Y173990D02*
D03*
Y185420D02*
D03*
Y196850D02*
D03*
D18*
X101340Y203490D02*
D03*
X116840D02*
D03*
X202190Y119380D02*
D03*
X186690D02*
D03*
X263650Y214630D02*
D03*
X279150D02*
D03*
X237750D02*
D03*
X222250D02*
D03*
X105410Y93980D02*
D03*
X89910D02*
D03*
D19*
X195580Y194570D02*
D03*
Y179070D02*
D03*
X143510Y239000D02*
D03*
Y223500D02*
D03*
X50800Y220850D02*
D03*
Y236350D02*
D03*
D20*
X175260Y179070D02*
D03*
Y200070D02*
D03*
X123190Y223500D02*
D03*
Y244500D02*
D03*
X203200Y33360D02*
D03*
Y12360D02*
D03*
D21*
X97700Y254000D02*
D03*
Y223500D02*
D03*
D22*
X186690Y135890D02*
D03*
X207690D02*
D03*
X186690Y154940D02*
D03*
X207690D02*
D03*
D23*
X301170Y207010D02*
D03*
X323670D02*
D03*
X318590Y139700D02*
D03*
X296090D02*
D03*
M02*
